<svg width="450" height="450" viewBox="0 0 450 450" fill="none" xmlns="http://www.w3.org/2000/svg">
  <g id="page not found" clip-path="url(#clip0_52544_66629)">
    <g id="Group 230">
      <path id="Vector" fill-rule="evenodd" clip-rule="evenodd"
            d="M419.776 381.234C421.616 383.621 423.209 386.148 424.431 388.885L432.799 389.537L434.768 403.114L427.036 406.183C426.742 409.125 425.937 412.029 424.938 414.88L430.286 421.159L422.133 432.138L414.517 428.775C412.13 430.616 409.603 432.209 406.867 433.431L406.215 441.799L392.637 443.768L389.568 436.036C386.626 435.742 383.722 434.937 380.871 433.938L374.593 439.286L363.613 431.133L366.976 423.517C365.136 421.13 363.543 418.603 362.321 415.867L353.953 415.215L351.983 401.637L359.715 398.568C360.009 395.626 360.815 392.722 361.814 389.871L356.465 383.593L364.618 372.613L372.234 375.976C374.621 374.136 377.148 372.543 379.885 371.32L380.537 362.953L394.115 360.983L397.183 368.715C400.125 369.009 403.03 369.815 405.88 370.814L412.159 365.465L423.138 373.618L419.776 381.234ZM402.588 390.96C396.105 386.139 386.76 387.509 381.939 393.992C377.118 400.474 378.488 409.82 384.971 414.641C391.453 419.461 400.799 418.091 405.62 411.609C410.44 405.126 409.07 395.781 402.588 390.96Z"
            fill="#01579B"/>
      <g id="g">
        <g id="Group">
          <g id="Group_2">
            <path id="Vector_2"
                  d="M160.196 277.468L113.36 273.177C110.141 272.838 107.728 270.066 108.018 266.728L113.992 201.724C114.332 198.506 117.106 196.093 120.444 196.382L150.131 199.136L170.97 225.012L166.598 272.007C166.258 275.225 163.484 277.638 160.146 277.349L160.196 277.468Z"
                  fill="#E2ECFC"/>
            <g id="Group_3" opacity="0.3">
              <path id="Vector_3"
                    d="M150.131 199.135L148.51 217.432C148.239 220.481 150.434 223.065 153.484 223.335L171.089 224.961L150.25 199.085L150.131 199.135Z"
                    fill="white"/>
            </g>
            <g id="Group_4" opacity="0.2">
              <path id="Vector_4"
                    d="M148.508 219.111C148.508 219.111 147.85 223.581 152.816 225.431C152.985 225.5 153.154 225.57 153.323 225.64C155.538 226.257 170.37 230.296 170.509 229.958C170.48 229.551 170.969 225.011 170.969 225.011L153.364 223.385C153.364 223.385 148.943 222.846 148.508 219.111Z"
                    fill="black"/>
            </g>
          </g>
          <path id="Vector_5"
                d="M144.536 216.292C144.635 216.53 139.618 216.24 133.686 215.77C127.705 215.182 122.827 214.554 122.897 214.385C122.797 214.147 127.815 214.437 133.746 214.906C139.727 215.495 144.605 216.123 144.536 216.292Z"
                fill="#CAD4F5"/>
          <path id="Vector_6"
                d="M157.624 227.909C157.723 228.147 149.536 227.637 139.76 226.669C129.864 225.751 121.936 224.854 121.956 224.566C121.857 224.328 129.925 224.887 139.82 225.805C149.716 226.723 157.644 227.621 157.624 227.909Z"
                fill="#CAD4F5"/>
          <path id="Vector_7"
                d="M160.072 236.821C160.171 237.059 151.358 236.39 140.598 235.412C129.839 234.434 121.165 233.427 121.185 233.139C121.086 232.901 129.899 233.57 140.659 234.548C151.418 235.526 160.092 236.533 160.072 236.821Z"
                fill="#CAD4F5"/>
          <path id="Vector_8"
                d="M159.271 244.983C159.37 245.222 150.558 244.552 139.798 243.574C129.038 242.596 120.365 241.589 120.385 241.301C120.285 241.063 129.098 241.732 139.858 242.71C150.618 243.688 159.291 244.695 159.271 244.983Z"
                fill="#CAD4F5"/>
          <path id="Vector_9"
                d="M158.591 253.102C158.69 253.341 149.878 252.671 139.118 251.693C128.358 250.715 119.685 249.709 119.705 249.42C119.606 249.182 128.418 249.851 139.178 250.829C149.938 251.807 158.611 252.814 158.591 253.102Z"
                fill="#CAD4F5"/>
          <path id="Vector_10"
                d="M157.791 261.268C157.89 261.507 149.077 260.837 138.317 259.859C127.558 258.881 118.884 257.875 118.904 257.586C118.805 257.348 127.618 258.017 138.378 258.995C149.137 259.973 157.811 260.98 157.791 261.268Z"
                fill="#CAD4F5"/>
        </g>
      </g>
      <g id="Group_5">
        <g id="Group_6">
          <path id="Vector_11"
                d="M42.0632 348.289C36.6382 345.503 30.3335 345.21 24.4687 346.089C21.2431 346.676 18.0175 347.556 15.8182 349.902C13.6189 352.247 13.179 356.499 15.8182 358.552C17.2844 359.725 19.337 360.018 21.2431 359.872C25.9349 359.872 31.0666 358.992 34.7322 361.778C36.7848 363.391 38.251 366.03 40.7436 366.763C43.2361 367.496 46.0219 366.03 47.3415 363.83C48.6611 361.631 48.6611 358.845 48.0746 356.206C48.0746 356.206 47.4881 350.635 42.0632 347.849V348.289Z"
                fill="#C2C9DC"/>
          <path id="Vector_12"
                d="M54.3789 324.536C51.1532 329.228 44.7019 327.615 41.7695 324.829C38.8371 322.043 37.5175 317.791 36.4912 313.832C33.852 304.889 31.2129 295.358 33.2656 286.121C33.852 283.335 34.8784 280.696 36.7844 278.644C38.6905 276.591 41.6229 275.418 44.4087 276.151C47.6343 277.031 49.5404 280.11 51.0066 283.189C55.2586 291.986 57.4579 301.663 57.4579 311.487C57.4579 316.032 56.8714 320.87 54.3789 324.536Z"
                fill="#C2C9DC"/>
          <path id="Vector_13"
                d="M63.3229 331.281C59.8041 327.029 59.0709 320.87 60.6838 315.592C62.2966 310.314 65.8155 305.769 69.9209 302.103C74.7593 297.851 80.4775 294.479 86.4889 292.28C88.8348 291.4 91.474 290.813 93.9666 290.96C96.4591 291.253 99.0982 292.426 100.271 294.772C102.031 298.144 100.271 302.103 98.5118 305.475C95.2861 311.34 91.6207 316.912 87.6619 322.043C84.4363 326.295 80.6241 330.401 75.639 332.307C70.6539 334.213 65.5222 333.92 62.8831 330.547"
                fill="#C2C9DC"/>
          <path id="Vector_14"
                d="M54.5256 395.059C54.5256 395.059 54.379 394.326 54.2324 393.007C54.0858 391.394 53.9391 389.488 53.6459 387.142C53.3527 384.649 53.0594 381.864 52.3263 378.638C51.5932 375.412 50.5669 372.04 49.2473 368.668C47.7811 365.149 46.1683 362.07 44.1156 359.577C42.0629 357.085 39.8636 355.179 37.6643 354.152C35.465 353.126 33.5589 352.686 32.2393 352.393C30.9198 352.393 30.1867 352.1 30.1867 352.1C30.1867 352.1 30.9198 352.1 32.386 352.1C33.7056 352.1 35.7582 352.539 38.1042 353.566C40.4501 354.592 42.796 356.498 44.9953 358.991C47.048 361.483 48.8075 364.709 50.2737 368.228C51.5932 371.747 52.7662 375.266 53.3526 378.491C53.9391 381.717 54.2324 384.649 54.5256 387.142C54.6723 389.634 54.8188 391.54 54.8188 393.007C54.8188 394.326 54.8188 395.206 54.8188 395.206L54.5256 395.059Z"
                fill="#01579B"/>
          <path id="Vector_15"
                d="M54.0857 390.661C54.0857 390.661 54.0857 390.368 54.0857 389.635C54.0857 388.902 54.0857 388.022 54.0857 386.849C54.0857 384.357 54.0857 380.838 54.0857 376.439C53.9391 367.642 53.0594 358.258 51.5932 345.062C50.2736 332.6 48.3676 318.084 46.4615 308.554C46.0217 306.355 45.5818 304.449 45.2885 302.836C44.8487 301.076 44.5555 299.61 44.2622 298.437C43.969 297.264 43.8224 296.384 43.6757 295.651C43.6757 295.065 43.5291 294.625 43.5291 294.625C43.5291 294.625 43.5291 294.918 43.8223 295.505C43.969 296.238 44.2622 297.118 44.7021 298.144C44.9953 299.317 45.4352 300.783 45.875 302.396C46.3149 304.009 46.7548 306.061 47.1946 308.114C49.1007 316.618 51.1533 328.641 52.6195 341.983C54.0857 355.326 54.6722 367.349 54.8188 376.146C54.8188 380.544 54.8189 384.063 54.6723 386.556C54.6723 387.729 54.6723 388.609 54.5256 389.342C54.5256 389.928 54.5256 390.368 54.5256 390.368L54.0857 390.661Z"
                fill="#01579B"/>
          <path id="Vector_16"
                d="M54.0858 367.203C54.0858 367.203 54.0858 366.177 54.0858 364.271C54.0858 362.365 54.5257 359.579 54.9656 356.353C55.5521 352.981 56.2852 349.022 57.6048 344.77C58.1912 342.864 59.3642 338.026 62.4432 330.988C66.5486 321.458 71.9735 313.54 76.6654 308.702C77.8384 307.382 79.0113 306.502 80.0376 305.623C80.6241 305.183 81.064 304.743 81.5038 304.45C81.9437 304.156 82.3836 303.863 82.8234 303.57C84.4362 302.544 85.316 301.957 85.316 301.957C85.316 302.104 81.7971 304.303 77.2519 309.141C72.7066 313.98 67.2817 321.751 63.3229 331.281C61.1236 336.413 59.5108 340.958 58.4845 344.917C57.1649 349.169 56.4318 353.127 55.6987 356.5C55.1122 359.872 54.6724 362.511 54.5257 364.417C54.3791 366.323 54.2325 367.35 54.2325 367.35L54.0858 367.203Z"
                fill="#01579B"/>
        </g>
        <path id="Vector_17" d="M76.6655 408.402L74.3196 440.512H33.1193L30.7734 408.402H76.6655Z" fill="#01579B"/>
        <path id="Vector_18" d="M25.9346 395.795H80.6239V408.404H25.9346V395.795Z" fill="#01579B"/>
        <path id="Vector_19" d="M80.6239 439.342V442.861H78.1314H26.8143V439.342H80.6239Z" fill="#C2C9DC"/>
        <path id="Vector_20" d="M75.4923 449.017L78.1315 442.859H28.7204L31.6528 449.017H75.4923Z" fill="#01579B"/>
        <path id="Vector_21"
              d="M31.5063 418.963C31.5063 418.963 31.5063 418.963 31.6529 419.256C31.7995 419.403 31.9461 419.696 32.2394 420.136C32.8259 420.869 33.559 421.895 34.5853 423.215C36.0515 421.162 38.1042 418.377 40.4501 415.004H40.1569C41.9163 417.497 43.8224 420.283 46.0217 423.215V423.508C46.1683 423.508 46.4616 423.215 46.4616 423.215C48.6609 420.722 50.8601 417.937 53.3527 415.004H52.9128C52.9128 415.004 53.2061 415.298 53.3527 415.444C55.552 418.083 57.6047 420.722 59.5108 423.215V423.508C59.6574 423.508 59.9506 423.215 59.9506 423.215C62.0033 420.283 64.056 417.497 65.8154 415.004H65.5222C68.4546 418.23 70.8005 421.016 72.7066 423.215C73.5863 421.602 74.466 420.429 74.9059 419.403C75.1991 418.963 75.3457 418.67 75.4923 418.377C75.4923 418.083 75.639 418.083 75.639 418.083C75.639 418.083 75.639 418.083 75.3457 418.377C75.1991 418.67 74.9059 418.963 74.7592 419.403C74.1728 420.283 73.4397 421.602 72.4133 423.068H72.7066C70.9471 420.869 68.4546 418.083 65.6688 414.858H65.5222C65.5222 414.711 65.3756 414.858 65.3756 414.858C63.6161 417.35 61.5634 420.136 59.5108 423.068H59.9506C58.0445 420.576 55.9919 418.083 53.7926 415.298C53.7926 415.151 53.4993 415.004 53.3527 414.858V414.564C53.2061 414.564 52.9128 414.858 52.9128 414.858C50.5669 417.79 48.221 420.576 46.0217 423.068H46.4616C44.4089 420.136 42.3562 417.35 40.5968 414.858V414.564C40.4501 414.564 40.3035 414.858 40.3035 414.858C37.9576 418.23 36.0515 421.016 34.5853 423.068H34.7319C33.7056 421.749 32.8259 420.869 32.2394 420.136C31.9461 419.843 31.7995 419.55 31.5063 419.403C31.3597 419.256 31.2131 419.11 31.2131 419.11L31.5063 418.963Z"
              fill="#E2ECFC"/>
        <path id="Vector_22"
              d="M30.1868 408.254C30.1868 408.254 40.4502 408.547 53.2062 408.547C65.9621 408.547 76.2255 408.547 76.2255 408.254C76.2255 407.961 65.9621 407.961 53.2062 407.961C40.4502 407.961 30.1868 407.961 30.1868 408.254Z"
              fill="#E2ECFC"/>
        <path id="Vector_23"
              d="M28.134 443.153C28.134 443.153 39.2771 443.446 53.2061 443.446C67.135 443.446 78.2781 443.446 78.2781 443.153C78.2781 442.859 67.135 442.859 53.2061 442.859C39.2771 442.859 28.134 442.859 28.134 443.153Z"
              fill="#E2ECFC"/>
      </g>
      <path id="Vector_24" fill-rule="evenodd" clip-rule="evenodd"
            d="M377.516 267.326C378.97 269.124 380.187 271.275 380.98 273.448L387.392 273.97L389.045 284.613L382.951 286.969C382.729 289.279 382.082 291.611 381.342 293.777L385.59 298.582L379.305 307.163L373.467 304.568C371.669 306.022 369.518 307.24 367.345 308.032L366.823 314.444L356.18 316.097L353.824 310.003C351.514 309.781 349.182 309.135 347.016 308.394L342.211 312.642L333.63 306.357L336.225 300.52C334.771 298.721 333.554 296.57 332.761 294.397L326.349 293.875L324.696 283.233L330.79 280.877C331.012 278.567 331.659 276.235 332.399 274.068L328.151 269.263L334.436 260.682L340.274 263.278C342.072 261.823 344.223 260.606 346.396 259.813L346.918 253.401L357.561 251.748L359.917 257.842C362.227 258.064 364.559 258.711 366.725 259.451L371.53 255.203L380.111 261.489L377.516 267.326ZM364.113 274.91C358.894 271.091 351.885 272.217 347.973 277.27C344.154 282.489 345.28 289.498 350.334 293.41C355.553 297.229 362.561 296.103 366.474 291.05C370.292 285.831 369.166 278.822 364.113 274.91Z"
            fill="#DFE5F8"/>
      <g id="Group_7">
        <g id="Group_8">
          <path id="Vector_25"
                d="M89.3495 199.775L44.4545 213.822C41.3702 214.849 38.0573 213.022 37.0292 209.939L17.6089 147.815C16.695 144.731 18.4086 141.42 21.493 140.392L49.9379 131.484L79.0682 147.358L93.1193 192.466C94.0332 195.55 92.3197 198.862 89.2353 199.889L89.3495 199.775Z"
                fill="#EFF2FF"/>
          <path id="Vector_26"
                d="M32.0791 193.031L88.2188 175.444L93.343 191.79C94.3679 195.059 92.6057 198.603 89.2264 199.662L44.8597 213.561C41.6984 214.551 38.2623 212.755 37.2716 209.595L32.1133 193.14L32.0791 193.031Z"
                fill="#DFE5F8"/>
          <g id="Group_9">
            <path id="Vector_27"
                  d="M55.8779 192.693L58.7338 201.829L56.6776 202.514L55.5352 198.746L51.5371 200.002L52.6794 203.771L50.6232 204.456L47.7674 195.32L49.8236 194.635L50.9659 198.175L54.9641 196.919L53.8217 193.379L55.8779 192.693Z"
                  fill="white"/>
            <path id="Vector_28"
                  d="M64.7883 199.547C64.4456 200.004 63.9887 200.346 63.3033 200.46C61.7041 200.917 60.5617 200.46 59.9906 198.748L59.0767 195.893L58.0486 196.235L57.5917 194.636L58.6198 194.294L58.0486 192.581L59.9906 192.01L60.5617 193.723L62.2752 193.152L62.7322 194.751L61.0187 195.322L61.9325 198.177C62.161 198.748 62.5037 198.976 63.0748 198.862C63.3033 198.862 63.646 198.633 63.7602 198.405L64.6741 199.661L64.7883 199.547Z"
                  fill="white"/>
            <path id="Vector_29"
                  d="M76.0977 192.01L77.3542 196.007L75.4123 196.578L74.2699 192.923C73.9272 191.781 73.2418 191.439 72.4422 191.667C71.5284 191.895 71.1857 192.695 71.5284 193.951L72.6707 197.491L70.7287 198.062L69.5864 194.408C69.2437 193.266 68.5583 192.923 67.7587 193.152C66.8448 193.38 66.5021 194.179 66.8448 195.436L67.9871 198.976L66.0452 199.547L63.8748 192.581L65.7025 192.01L65.9309 192.809C66.2736 192.01 66.8448 191.553 67.7587 191.21C68.6725 190.868 69.5864 191.096 70.2718 191.667C70.6145 190.753 71.2999 190.068 72.328 189.726C73.9272 189.269 75.4123 189.726 75.9834 192.01H76.0977Z"
                  fill="white"/>
            <path id="Vector_30" d="M76.098 185.842L78.04 185.271L81.01 194.864L79.0681 195.435L76.098 185.842Z"
                  fill="white"/>
          </g>
        </g>
        <g id="Group_10">
          <path id="Vector_31"
                d="M46.7389 161.861L40.2276 167.342L48.6808 168.142L49.7089 171.339L37.6002 169.969L36.5721 166.543L45.825 158.549L46.8531 161.746L46.7389 161.861Z"
                fill="white"/>
          <path id="Vector_32" d="M51.7656 149.756L54.8499 148.729L55.0784 175.451L51.9941 176.479L51.7656 149.756Z"
                fill="white"/>
          <path id="Vector_33"
                d="M69.4719 156.379L70.5 159.805L61.2471 167.799L60.219 164.602L66.7303 159.12L58.2771 158.321L57.249 155.123L69.3576 156.493L69.4719 156.379Z"
                fill="white"/>
        </g>
        <g id="Group_11">
          <g id="Group_12" opacity="0.3">
            <path id="Vector_34"
                  d="M49.9379 131.487L55.421 148.96C56.3349 151.815 59.4192 153.413 62.275 152.5L79.0672 147.247L49.9379 131.373V131.487Z"
                  fill="white"/>
          </g>
          <path id="Vector_35"
                d="M56.1064 150.443C56.1064 150.443 57.2488 154.782 62.5035 154.668C62.7319 154.668 62.8462 154.668 63.0746 154.668C65.3593 154.325 80.6665 152.384 80.5523 152.041C80.5523 151.699 79.0672 147.359 79.0672 147.359L62.275 152.612C62.275 152.612 58.0484 153.754 56.1064 150.443Z"
                fill="#DFE5F8"/>
        </g>
      </g>
      <g id="Group 228">
        <g id="Group_13">
          <path id="Vector_36"
                d="M112.139 342.93C112.139 342.93 104.64 335.872 101.728 334.019C98.8167 332.166 92.3762 329.519 89.9059 329.343C87.4356 329.078 76.1427 332.431 76.1427 332.431C76.1427 332.431 59.3799 330.931 56.5566 332.872C53.7334 334.813 53.9981 336.842 55.145 338.342C56.292 339.842 60.8797 339.401 65.9085 339.401C70.9374 339.401 72.2608 339.93 72.2608 339.93L64.9381 347.694L83.8183 352.899L95.2877 352.458L99.4343 357.663L112.139 342.842V342.93Z"
                fill="#FFBF9D"/>
          <path id="Vector_37"
                d="M54.7039 325.462L55.145 342.136L55.939 344.254L64.144 354.312L84.2595 352.988L68.2906 346.724L62.556 342.401L60.3503 335.255C60.3503 335.255 61.0561 324.227 54.6157 325.462H54.7039Z"
                fill="#FFBF9D"/>
          <path id="Vector_38"
                d="M56.1154 344.605H51.263C51.263 344.605 44.9108 334.106 38.9997 337.635L40.3231 339.753C40.3231 339.753 37.6763 338.518 36 340.811L52.1453 354.927H52.8511L70.0551 353.781L56.1154 344.605Z"
                fill="#FFBF9D"/>
          <path id="Vector_39"
                d="M59.0269 347.783C59.0269 347.783 58.4975 347.783 57.6153 347.783C56.733 347.783 55.4979 347.871 54.2627 348.489H54.0862H53.998C53.4687 347.783 52.8511 347.077 52.2335 346.283C50.9101 344.695 49.7632 343.195 48.7927 341.96C47.9105 340.813 47.3811 340.196 47.3811 340.107C47.3811 340.107 48.0869 340.637 48.9692 341.695C49.9396 342.754 51.1748 344.254 52.5864 345.93C53.204 346.724 53.8216 347.518 54.3509 348.224H54.0862C55.4979 347.518 56.8212 347.607 57.7035 347.607C58.5858 347.607 59.1151 347.783 59.1151 347.783H59.0269Z"
                fill="#FF9A6C"/>
          <path id="Vector_40"
                d="M93.7878 338.077C93.7878 338.253 91.0528 338.782 88.1413 340.459C85.1416 342.135 83.2889 344.252 83.2007 344.076C83.2007 344.076 83.5536 343.458 84.3476 342.664C85.1416 341.87 86.3768 340.9 87.8766 340.017C89.3765 339.135 90.8763 338.606 91.935 338.341C92.9937 338.077 93.6995 337.988 93.6995 337.988L93.7878 338.077Z"
                fill="#FF9A6C"/>
          <path id="Vector_41"
                d="M77.7307 333.755C77.8189 333.844 76.672 335.079 75.4368 336.579C74.1135 338.079 73.143 339.402 73.0548 339.314C72.9665 339.314 73.7606 337.814 75.0839 336.226C76.4073 334.638 77.6425 333.579 77.7307 333.667V333.755Z"
                fill="#FF9A6C"/>
          <path id="Vector_42"
                d="M60.9679 350.165C60.9679 350.165 60.7915 350.077 60.615 349.812C60.3503 349.548 59.9974 349.107 59.5563 348.665C59.1152 348.136 58.5858 347.519 57.9682 346.813C57.6153 346.46 57.3507 346.019 56.9978 345.666C56.6448 345.225 56.2037 344.872 55.939 344.342C55.2332 343.284 54.7921 341.96 54.7921 340.549C54.7921 339.137 54.7921 337.637 54.7921 336.049C54.7921 332.873 54.7039 329.344 54.6157 325.639V325.462H54.7921C54.9686 325.462 55.145 325.462 55.3215 325.462C56.4684 325.286 57.7918 325.727 58.5858 326.609C59.3798 327.491 59.821 328.55 60.1739 329.521C60.7915 331.638 60.8797 333.667 60.7915 335.52C61.5855 338.167 62.2913 340.549 62.9089 342.578C64.6734 343.813 65.9968 344.96 67.0555 345.754C67.4966 346.107 67.8495 346.372 68.1142 346.636C68.3789 346.813 68.4671 346.989 68.4671 346.989C68.4671 346.989 68.2906 346.989 68.0259 346.725C67.7613 346.548 67.3201 346.195 66.879 345.93C65.8203 345.136 64.4087 344.078 62.6442 342.843C62.0266 340.813 61.2326 338.431 60.4385 335.696C60.4385 333.844 60.4385 331.814 59.821 329.873C59.5563 328.903 59.1152 327.932 58.4094 327.138C57.7036 326.344 56.6448 325.992 55.4979 326.168C55.3215 326.168 55.145 326.168 54.9686 326.168L55.145 325.903C55.145 329.609 55.2332 333.138 55.3215 336.314C55.4097 339.49 54.9686 342.49 56.3802 344.519C56.7331 345.048 57.086 345.401 57.4389 345.842C57.7918 346.283 58.1447 346.636 58.4094 346.989C59.0269 347.695 59.5563 348.313 59.9974 348.93C60.3503 349.46 60.7032 349.812 60.9679 350.165C61.1444 350.43 61.3208 350.606 61.3208 350.606L60.9679 350.165Z"
                fill="#FF9A6C"/>
          <path id="Vector_43"
                d="M52.8511 354.929C52.8511 354.929 52.4982 354.929 51.9689 354.664C51.4395 354.399 50.8219 353.87 50.1161 353.164C48.7045 351.752 46.8518 349.547 45.0873 347.077C43.2345 344.606 41.7347 342.224 40.676 340.548C40.1466 339.666 39.7055 338.96 39.4408 338.519C39.1761 338.078 38.9997 337.725 38.9997 337.725C38.9997 337.725 39.1761 337.989 39.529 338.43C39.882 338.96 40.4113 339.666 40.9407 340.371C42.0876 342.048 43.6757 344.342 45.5284 346.812C47.3811 349.282 49.0574 351.488 50.469 352.988C51.1748 353.693 51.7924 354.223 52.2335 354.576C52.6747 354.929 53.0276 354.929 53.0276 355.017L52.8511 354.929Z"
                fill="#FF9A6C"/>
          <path id="Vector_44"
                d="M82.142 344.078L73.2312 343.46L70.5845 336.226L70.0551 331.374C69.7904 328.991 67.8495 327.139 65.3792 327.139L65.9085 339.137L67.7612 346.548L74.9957 350.783H83.8183L82.2302 344.078H82.142Z"
                fill="#FFBF9D"/>
          <g id="Group_14">
            <path id="Vector_45"
                  d="M82.142 344.078L73.2312 343.46L70.5845 336.226L70.0551 331.374C69.7904 328.991 67.8495 327.139 65.3792 327.139L65.9085 339.137L67.7612 346.548L74.9957 350.783"
                  fill="#FFBF9D"/>
            <path id="Vector_46"
                  d="M74.9957 350.782C74.9957 350.782 74.8193 350.782 74.4664 350.518C74.1135 350.341 73.5841 350.076 73.0548 349.723C71.7314 349.018 69.9669 347.959 67.7612 346.636V346.547C67.2319 344.43 66.6143 341.871 65.9085 339.136C65.7321 335.519 65.5556 331.461 65.3792 327.138V326.873H65.6438C65.6438 326.873 65.8203 326.873 65.9085 326.873C68.1141 326.873 70.0551 328.638 70.4962 330.579C70.5845 331.108 70.6727 331.549 70.6727 332.078C70.6727 332.519 70.7609 333.049 70.8491 333.49C70.9374 334.46 71.0256 335.343 71.1138 336.225C72.0843 338.872 72.9665 341.342 73.7606 343.459H73.5841C76.3191 343.548 78.4365 343.724 80.0246 343.901C80.7304 343.901 81.348 343.989 81.7891 344.077C82.2302 344.077 82.4067 344.077 82.4067 344.165C82.4067 344.165 82.2302 344.165 81.7891 344.165C81.348 344.165 80.7304 344.165 80.0246 344.165C78.4365 344.077 76.2309 343.989 73.4959 343.812H73.4077V343.724C72.6136 341.607 71.7314 339.136 70.7609 336.49C70.6727 335.607 70.5845 334.725 70.4962 333.755C70.4962 333.314 70.408 332.784 70.3198 332.343C70.3198 331.902 70.3198 331.373 70.1433 330.931C69.7022 329.079 68.0259 327.579 65.9967 327.579C65.9967 327.579 65.8203 327.579 65.7321 327.579L65.9967 327.314C66.1732 331.637 66.3496 335.696 66.4379 339.313C67.1437 342.048 67.673 344.606 68.2024 346.724C70.408 347.959 72.1725 349.018 73.4077 349.812C74.0253 350.165 74.4664 350.429 74.8193 350.694C75.1722 350.87 75.2604 351.047 75.2604 351.047L74.9957 350.782Z"
                  fill="#FF9A6C"/>
          </g>
        </g>
        <g id="Group_15">
          <path id="Vector_47"
                d="M272.092 202.827C264.504 173.889 257.446 140.187 215.098 143.187C215.098 143.187 188.983 148.216 176.632 167.449C169.309 178.742 163.045 227.619 161.81 266.173C161.81 267.761 162.427 278.701 162.339 280.201L274.474 289.553H294.677C294.677 289.553 293.442 269.085 287.355 249.234C281.444 229.913 274.827 212.973 272.18 202.739L272.092 202.827Z"
                fill="#263238"/>
          <path id="Vector_48"
                d="M209.452 154.215L212.098 151.656L240.772 163.214C244.918 163.478 248.183 166.831 248.359 170.978L248.094 264.232C248.094 270.584 246.859 276.054 243.065 281.083L239.007 286.377C229.832 298.464 210.951 297.493 203.717 284.171C203.187 283.201 202.835 282.407 202.746 281.789C202.57 280.995 202.393 280.377 202.305 279.672C201.423 272.172 201.423 265.644 201.423 265.644C200.894 257.439 200.717 253.998 200.717 254.086C200.717 254.086 183.16 252.057 178.484 229.559C176.102 218.355 176.543 203.004 177.249 187.829C178.131 166.831 192.689 154.215 209.54 154.215H209.452Z"
                fill="#FFBF9D"/>
          <path id="Vector_49"
                d="M216.862 202.827C216.862 204.327 218.186 205.65 219.774 205.65C221.362 205.65 222.685 204.415 222.685 202.915C222.685 201.415 221.362 200.092 219.774 200.092C218.186 200.092 216.862 201.327 216.862 202.827Z"
                fill="#263238"/>
          <path id="Vector_50"
                d="M186.954 203.62C186.954 205.12 188.277 206.443 189.865 206.443C191.453 206.443 192.777 205.208 192.777 203.708C192.777 202.208 191.453 200.885 189.865 200.885C188.277 200.885 186.954 202.12 186.954 203.62Z"
                fill="#263238"/>
          <path id="Vector_51"
                d="M180.161 193.828C180.513 194.181 182.631 192.416 185.807 192.328C188.895 192.152 191.277 193.651 191.63 193.21C191.806 193.034 191.365 192.328 190.306 191.71C189.248 191.005 187.571 190.387 185.631 190.475C183.69 190.563 182.101 191.357 181.131 192.152C180.249 192.946 179.896 193.651 180.072 193.828H180.161Z"
                fill="#263238"/>
          <path id="Vector_52"
                d="M211.216 192.768C211.657 193.121 213.598 191.18 216.686 190.651C219.774 190.121 222.332 191.356 222.597 190.915C222.774 190.739 222.244 190.121 221.185 189.504C220.127 188.974 218.362 188.533 216.421 188.798C214.48 189.063 212.981 190.033 212.186 190.915C211.392 191.798 211.128 192.503 211.304 192.68L211.216 192.768Z"
                fill="#263238"/>
          <path id="Vector_53"
                d="M200.982 216.944C200.982 216.768 199.041 216.503 195.865 216.238C195.071 216.238 194.277 216.062 194.1 215.532C193.924 215.003 194.1 214.121 194.541 213.15C195.159 211.209 195.865 209.092 196.571 206.975C199.394 198.152 201.423 190.918 201.07 190.741C200.717 190.653 198.07 197.711 195.247 206.533C194.541 208.739 193.924 210.768 193.306 212.797C193.042 213.68 192.6 214.738 193.042 215.974C193.306 216.591 193.924 216.944 194.453 217.12C194.982 217.209 195.424 217.209 195.777 217.209C198.953 217.209 200.894 217.209 200.894 216.944H200.982Z"
                fill="#263238"/>
          <path id="Vector_54"
                d="M200.717 254.175C200.717 254.175 216.068 254.352 230.714 244.559C230.714 244.559 223.832 260.616 201.07 259.645L200.717 254.175Z"
                fill="#FF9A6C"/>
          <path id="Vector_55"
                d="M210.775 223.385C209.893 222.326 208.481 221.709 207.158 221.621C205.217 221.532 203.805 221.797 202.746 223.297C202.217 224.179 202.305 225.503 202.57 225.855C202.835 226.208 202.57 226.208 203.011 226.473C204.246 227.355 205.746 227.973 207.246 228.326C208.746 228.679 210.51 228.326 211.304 227.091C212.01 226.032 211.745 224.444 210.863 223.385H210.775Z"
                fill="#FF9A6C"/>
          <path id="Vector_56"
                d="M210.422 178.389C210.863 179.183 213.51 178.389 216.862 178.389C220.127 178.213 222.95 178.918 223.303 178.124C223.479 177.771 222.862 176.977 221.715 176.36C220.568 175.742 218.715 175.213 216.774 175.213C214.833 175.213 213.069 175.919 211.922 176.624C210.775 177.33 210.334 178.124 210.51 178.477L210.422 178.389Z"
                fill="#263238"/>
          <path id="Vector_57"
                d="M180.602 188.183C181.219 188.889 183.337 188.006 185.895 187.83C188.454 187.565 190.748 188.095 191.189 187.301C191.365 186.948 191.012 186.242 190.042 185.624C189.071 185.007 187.483 184.566 185.631 184.654C183.866 184.83 182.366 185.536 181.484 186.33C180.602 187.124 180.337 187.83 180.602 188.183Z"
                fill="#263238"/>
          <path id="Vector_58"
                d="M247.741 210.767C247.741 210.767 235.654 213.678 218.627 176.888C212.804 164.36 201.511 151.744 201.511 151.744L212.098 150.244C212.098 150.244 243.683 159.155 244.301 159.596C244.83 160.037 252.241 175.918 252.241 175.918L247.741 210.855V210.767Z"
                fill="#263238"/>
          <path id="Vector_59"
                d="M243.771 209.356C243.771 207.68 245.448 203.621 247.124 203.268C251.535 202.386 259.564 202.298 260.269 213.591C261.152 229.03 245.448 226.736 245.359 226.295C245.359 225.942 244.036 215.179 243.771 209.356Z"
                fill="#FFBF9D"/>
          <path id="Vector_60"
                d="M249.771 220.12C249.771 220.12 250.035 220.296 250.476 220.473C250.917 220.649 251.712 220.737 252.506 220.473C254.094 219.767 255.329 217.12 255.241 214.297C255.241 212.885 254.799 211.562 254.27 210.503C253.741 209.356 252.947 208.651 252.153 208.562C251.359 208.386 250.741 208.915 250.565 209.356C250.388 209.797 250.565 210.062 250.388 210.15C250.388 210.15 250.035 209.886 250.123 209.268C250.123 208.915 250.3 208.562 250.653 208.298C251.006 207.945 251.535 207.768 252.153 207.856C253.388 207.856 254.447 208.915 255.064 210.062C255.77 211.209 256.211 212.709 256.211 214.297C256.211 217.385 254.888 220.384 252.682 221.179C251.623 221.531 250.653 221.179 250.212 220.914C249.682 220.561 249.594 220.208 249.682 220.208L249.771 220.12Z"
                fill="#FF9A6C"/>
          <path id="Vector_61"
                d="M212.804 224.002C212.804 224.355 210.157 224.355 206.981 224.973C203.805 225.59 201.423 226.561 201.246 226.208C201.07 225.943 203.364 224.267 206.805 223.649C210.157 223.032 212.98 223.649 212.892 224.09L212.804 224.002Z"
                fill="#263238"/>
        </g>
        <g id="Group_16">
          <path id="Vector_62"
                d="M333.673 343.814C333.673 343.814 346.642 332.698 350.348 332.433C354.141 332.169 363.934 333.933 363.934 333.933C363.934 333.933 370.198 333.933 373.286 333.58C377.962 332.963 381.138 333.492 382.991 334.021C383.962 334.286 385.109 336.668 382.374 338.256C381.227 338.962 369.846 339.668 369.846 339.668L398.166 347.785L394.46 350.784C393.931 351.225 393.402 351.402 392.696 351.402L351.936 352.813L350.083 357.401L333.585 343.726L333.673 343.814Z"
                fill="#FFBF9D"/>
          <path id="Vector_63"
                d="M364.552 343.811H377.786C377.786 343.811 382.462 337.636 384.138 335.077C385.638 332.871 387.402 332.166 388.902 332.695C389.343 332.871 389.608 333.136 389.873 333.489C390.226 334.018 390.226 334.724 389.873 335.254L384.05 346.105L387.138 345.047C387.138 345.047 393.225 339.047 394.46 337.724C395.607 336.312 400.019 330.489 403.812 334.724L398.519 340.635L403.812 336.842C403.812 336.842 408.047 333.224 410.341 337.547L394.46 350.958"
                fill="#FFBF9D"/>
          <path id="Vector_64"
                d="M350.789 338.343C350.789 338.343 350.965 338.343 351.318 338.167C351.671 338.078 352.2 337.902 352.906 337.814C354.318 337.549 356.435 337.637 358.817 338.431C360.053 338.872 361.288 339.402 362.611 340.196C363.229 340.549 363.934 340.99 364.552 341.431C364.905 341.696 365.258 341.872 365.522 342.137C365.875 342.401 366.228 342.666 366.493 342.843C369.846 343.107 373.639 343.372 377.698 343.637H377.521C378.756 342.225 379.992 340.637 381.138 338.961C381.58 338.343 382.021 337.637 382.462 337.02C382.903 336.402 383.256 335.696 383.785 335.079C384.226 334.461 384.756 333.844 385.373 333.314C385.638 333.05 385.991 332.873 386.344 332.608C386.697 332.432 387.05 332.256 387.579 332.344C388.285 332.344 389.079 332.344 389.696 332.873C390.314 333.402 390.49 334.197 390.402 334.814C387.844 339.314 385.726 343.284 383.962 346.283C383.609 347.519 382.55 348.313 381.668 348.754C380.697 349.195 379.903 349.283 379.197 349.283C378.492 349.283 377.962 349.283 377.609 349.283C377.257 349.283 377.08 349.283 377.08 349.283C377.08 349.283 377.257 349.283 377.609 349.283C377.962 349.283 378.492 349.283 379.197 349.283C379.903 349.283 380.697 349.107 381.58 348.666C382.462 348.224 383.432 347.519 383.697 346.372C385.373 343.284 387.491 339.314 389.961 334.814C389.961 334.285 389.873 333.667 389.432 333.314C388.991 332.961 388.285 332.873 387.667 332.961C387.402 332.961 387.05 332.961 386.785 333.226C386.52 333.402 386.167 333.579 385.903 333.844C385.373 334.285 384.844 334.902 384.403 335.52C383.521 336.755 382.726 338.167 381.756 339.402C380.521 341.078 379.374 342.666 378.051 344.166H377.962C373.904 343.901 370.198 343.637 366.669 343.372C366.14 343.107 365.875 342.843 365.522 342.666C365.17 342.401 364.817 342.225 364.552 341.96C363.934 341.519 363.229 341.078 362.611 340.725C361.288 339.931 360.053 339.402 358.906 338.961C356.523 338.167 354.494 338.078 353.083 338.255C352.377 338.255 351.848 338.431 351.495 338.52C351.142 338.52 350.965 338.608 350.965 338.608L350.789 338.343Z"
                fill="#FF9A6C"/>
          <path id="Vector_65"
                d="M403.812 334.814C403.812 334.814 403.636 335.079 403.283 335.52C402.93 335.961 402.401 336.579 401.783 337.373C400.46 338.961 398.607 341.078 396.578 343.461C394.461 345.754 392.784 348.048 391.196 349.46C390.402 350.166 389.785 350.695 389.255 350.96C388.726 351.224 388.461 351.401 388.461 351.313C388.461 351.313 388.726 351.136 389.167 350.783C389.608 350.43 390.226 349.901 390.931 349.195C392.343 347.784 394.019 345.49 396.137 343.196C398.166 340.814 400.107 338.696 401.43 337.197C402.136 336.403 402.666 335.873 403.107 335.432C403.46 334.991 403.724 334.814 403.724 334.814H403.812Z"
                fill="#FF9A6C"/>
          <path id="Vector_66"
                d="M396.49 335.432C396.49 335.432 395.96 336.226 394.902 337.285C393.843 338.432 392.431 339.931 390.755 341.608C389.432 343.019 388.196 344.255 387.226 345.225C385.285 345.843 383.962 346.195 383.962 346.107C383.962 346.107 384.226 345.931 384.844 345.754C385.55 345.49 386.255 345.225 387.138 344.872C388.108 343.902 389.343 342.578 390.667 341.255C392.255 339.579 393.755 338.079 394.902 337.02C395.96 335.961 396.666 335.344 396.754 335.344L396.49 335.432Z"
                fill="#FF9A6C"/>
        </g>
        <g id="Group_17">
          <path id="Vector_67"
                d="M289.737 277.998C289.737 277.998 308.793 282.939 310.646 308.789C311.705 323.522 303.853 370.811 303.853 370.811L331.908 341.962L356.965 359.342C356.965 359.342 322.909 400.985 315.057 407.249C307.205 413.513 294.677 423.57 290.619 422.776C286.561 421.982 286.561 403.19 286.561 403.19V299.525L289.737 277.998Z"
                fill="#5C7784"/>
          <path id="Vector_68"
                d="M152.987 281.174C152.987 281.174 136.048 286.732 136.754 319.817C137.459 352.901 136.93 364.018 136.93 364.018L111.609 337.197L90.5234 360.4C90.5234 360.4 114.08 395.426 130.578 412.453C146.105 428.51 159.957 414.571 164.456 403.278C168.074 394.103 170.985 359.43 170.985 359.43L152.987 281.174Z"
                fill="#5C7784"/>
          <g id="Group_18" opacity="0.3">
            <path id="Vector_69"
                  d="M291.237 337.548C292.736 327.843 293.178 317.344 288.766 308.434C277.915 335.254 278.444 366.045 282.326 394.454L290.884 418.98C296.265 402.482 291.148 385.013 291.237 367.809C291.237 358.016 289.649 347.253 291.237 337.548Z"
                  fill="black"/>
          </g>
          <path id="Vector_70"
                d="M149.458 302.171C149.458 302.171 160.751 378.221 162.957 384.927C165.162 391.632 165.162 411.218 165.162 411.218C165.162 411.218 153.252 433.362 152.546 448.714L295.56 448.978L286.296 385.809C285.943 383.427 285.943 376.192 286.119 373.81C286.737 362.694 287.619 338.873 290.795 324.139C294.501 307.112 289.472 277.909 289.472 277.909L246.771 267.41C236.625 281.967 211.481 282.144 201.511 267.41L153.34 280.997L149.635 302.083L149.458 302.171Z"
                fill="#5C7784"/>
          <path id="Vector_71"
                d="M289.031 382.897C289.031 382.897 289.119 382.632 289.472 382.191C289.737 381.75 290.178 381.221 290.795 380.427C291.942 379.015 293.53 376.986 295.736 375.133C297.853 373.28 300.147 372.045 301.824 371.251C302.706 370.898 303.323 370.634 303.853 370.457C304.382 370.281 304.647 370.192 304.647 370.281C304.735 370.457 300.324 371.869 296.089 375.574C293.972 377.427 292.295 379.28 291.148 380.691C289.913 382.103 289.207 382.897 289.119 382.897H289.031Z"
                fill="#263238"/>
          <path id="Vector_72"
                d="M156.693 381.222C156.693 381.222 156.251 379.634 155.193 377.34C154.134 375.046 152.193 371.958 149.193 369.488C146.194 366.929 142.929 365.517 140.459 364.9C137.989 364.194 136.401 364.106 136.401 364.018C136.401 364.018 136.842 364.018 137.548 364.018C138.253 364.018 139.312 364.194 140.547 364.547C143.018 365.165 146.458 366.576 149.546 369.135C152.546 371.693 154.487 374.869 155.546 377.251C156.075 378.487 156.34 379.457 156.516 380.163C156.693 380.869 156.781 381.222 156.693 381.31V381.222Z"
                fill="#263238"/>
          <path id="Vector_73"
                d="M157.575 340.021C157.575 340.021 157.31 339.933 156.957 339.668C156.516 339.403 155.987 339.05 155.281 338.521C153.958 337.551 152.105 335.963 150.34 334.11C148.576 332.257 147.076 330.404 146.105 329.081C145.135 327.758 144.517 326.875 144.606 326.787C144.606 326.787 145.311 327.581 146.37 328.816C147.429 330.14 148.929 331.904 150.693 333.757C152.458 335.61 154.222 337.198 155.457 338.256C156.781 339.315 157.575 339.933 157.575 340.021Z"
                fill="#263238"/>
          <path id="Vector_74"
                d="M257.358 381.221C257.358 381.221 257.358 381.221 257.27 381.398C257.181 381.486 257.005 381.663 256.917 381.927C256.564 382.368 256.123 382.986 255.417 383.78C254.094 385.368 251.976 387.485 249.241 389.867C246.506 392.25 242.889 394.896 238.831 397.455C234.684 400.013 230.008 402.572 224.891 404.954C219.862 407.336 214.921 409.542 210.51 411.483C206.099 413.424 202.129 415.276 198.864 416.953C195.6 418.629 192.953 420.041 191.189 421.011C190.306 421.54 189.601 421.893 189.16 422.158C188.983 422.246 188.807 422.335 188.63 422.423C188.542 422.423 188.454 422.511 188.454 422.511C188.454 422.511 188.454 422.511 188.63 422.423C188.807 422.335 188.895 422.246 189.16 422.07C189.601 421.805 190.306 421.364 191.189 420.835C192.953 419.776 195.512 418.276 198.776 416.6C202.04 414.924 206.011 413.071 210.422 411.042C214.833 409.012 219.686 406.895 224.803 404.425C229.832 402.043 234.596 399.484 238.654 396.926C242.801 394.367 246.33 391.808 249.065 389.426C251.888 387.044 253.917 384.927 255.329 383.427C256.035 382.721 256.564 382.015 256.917 381.663C257.093 381.486 257.181 381.31 257.358 381.221C257.446 381.133 257.534 381.045 257.534 381.045L257.358 381.221Z"
                fill="#263238"/>
          <path id="Vector_75"
                d="M152.899 447.568C152.899 447.568 152.899 447.568 152.899 447.391C152.899 447.215 152.899 447.038 152.899 446.862C152.899 446.332 152.899 445.627 153.075 444.744C153.34 442.892 153.693 440.157 154.663 436.804C156.516 430.099 160.133 420.835 165.692 410.601C165.162 402.396 164.28 393.221 163.309 383.428C161.457 365.077 159.428 348.49 158.016 336.492C157.31 330.492 156.693 325.64 156.251 322.287C156.075 320.611 155.899 319.288 155.81 318.405C155.81 317.964 155.81 317.611 155.722 317.435C155.722 317.17 155.722 317.082 155.722 317.082C155.722 317.082 155.722 317.17 155.722 317.435C155.722 317.7 155.81 318.053 155.899 318.405C155.987 319.288 156.251 320.611 156.428 322.287C156.869 325.64 157.487 330.492 158.281 336.492C159.78 348.49 161.81 365.077 163.751 383.428C164.721 393.132 165.603 402.396 166.133 410.689V410.778C160.574 421.012 156.869 430.187 155.016 436.892C154.046 440.245 153.605 442.98 153.252 444.833C153.252 445.715 153.075 446.421 153.075 446.95C153.075 447.215 153.075 447.391 153.075 447.479C153.075 447.568 153.075 447.656 153.075 447.656L152.899 447.568Z"
                fill="#263238"/>
          <path id="Vector_76"
                d="M292.472 304.023C292.472 304.023 292.472 304.112 292.472 304.376C292.472 304.641 292.472 304.994 292.472 305.523C292.472 306.494 292.472 307.905 292.472 309.758C292.383 313.464 292.031 318.757 291.325 325.374C290.707 331.991 289.737 339.755 288.766 348.489C287.796 357.135 286.825 366.752 286.561 376.81C286.208 386.867 287.178 396.484 288.502 405.13C289.737 413.776 291.237 421.452 292.472 427.98C293.619 434.509 294.501 439.803 295.03 443.42C295.295 445.273 295.471 446.684 295.56 447.655C295.56 448.096 295.56 448.449 295.648 448.713C295.648 448.978 295.648 449.066 295.648 449.066C295.648 449.066 295.648 448.978 295.648 448.713C295.648 448.449 295.56 448.096 295.471 447.655C295.295 446.684 295.118 445.273 294.854 443.42C294.324 439.803 293.354 434.509 292.207 427.98C290.972 421.452 289.472 413.776 288.149 405.13C286.825 396.484 285.855 386.867 286.119 376.81C286.384 366.752 287.443 357.135 288.413 348.489C289.384 339.843 290.354 331.991 291.06 325.462C291.766 318.934 292.207 313.552 292.383 309.846C292.472 307.994 292.472 306.582 292.56 305.612C292.56 305.17 292.56 304.817 292.56 304.465C292.56 304.2 292.56 304.112 292.56 304.112L292.472 304.023Z"
                fill="#263238"/>
          <g id="Group_19" opacity="0.3">
            <path id="Vector_77" d="M155.987 320.256C153.428 344.165 156.516 369.662 164.28 392.424L155.987 320.256Z"
                  fill="black"/>
          </g>
          <g id="Group_20" opacity="0.3">
            <path id="Vector_78"
                  d="M244.477 404.6C233.625 414.57 222.774 423.039 209.451 427.804C219.509 428.686 229.655 424.804 237.419 418.363C245.183 411.923 250.741 405.13 254.27 395.689L244.477 404.512V404.6Z"
                  fill="black"/>
          </g>
          <path id="Vector_79"
                d="M232.125 415.54C232.125 415.452 238.742 409.276 247.212 401.689C255.593 394.19 262.475 388.102 262.563 388.19C262.563 388.279 255.946 394.454 247.477 402.042C239.095 409.541 232.214 415.629 232.125 415.54Z"
                fill="#263238"/>
        </g>
        <path id="Vector_80"
              d="M256.123 228.855C256.123 231.943 253.652 234.413 250.565 234.413C247.477 234.413 245.006 231.943 245.006 228.855C245.006 225.767 247.477 223.297 250.565 223.297C253.652 223.297 256.123 225.767 256.123 228.855Z"
              fill="#E2ECFC"/>
        <g id="Group_21">
          <path id="Vector_81"
                d="M289.031 301.466C287.443 287.967 285.767 274.469 284.179 260.882L249.241 250.295C248.535 274.469 244.301 301.554 238.301 324.934C251.182 329.08 264.945 330.58 278.444 329.08C279.061 322.552 279.679 316.023 280.208 309.494C281.091 314.435 281.973 319.376 282.855 324.228C286.561 322.199 288.678 318.052 289.384 313.906C290.09 309.759 289.649 305.524 289.119 301.289L289.031 301.466Z"
                fill="#263238"/>
          <path id="Vector_82"
                d="M261.593 329.256C261.593 329.256 261.593 329.079 261.681 328.726C261.681 328.374 261.858 327.844 262.034 327.227C262.387 325.903 262.828 323.962 263.357 321.492C264.504 316.551 266.181 309.317 267.857 300.406C269.533 291.495 271.121 280.732 271.651 268.645C272.18 256.646 271.474 243.324 268.122 229.826C264.857 216.327 259.123 204.152 251.888 194.535C251.006 193.3 250.124 192.153 249.153 191.006C248.183 189.859 247.3 188.801 246.33 187.742C245.8 187.213 245.359 186.683 244.918 186.242C244.389 185.713 243.948 185.272 243.418 184.742C242.448 183.772 241.477 182.89 240.507 181.919C236.537 178.302 232.743 175.126 229.302 172.126C225.862 169.126 222.774 166.391 220.303 163.745C219.686 163.127 219.068 162.421 218.451 161.892C217.833 161.274 217.304 160.657 216.862 160.127C216.333 159.51 215.892 158.98 215.451 158.451C215.01 157.922 214.569 157.392 214.216 156.863C213.422 155.893 212.804 154.922 212.187 154.128C211.569 153.334 211.216 152.628 210.863 152.011C210.51 151.481 210.246 151.04 210.069 150.687C209.893 150.423 209.804 150.246 209.804 150.246C209.804 150.246 209.893 150.423 210.069 150.687C210.246 150.952 210.51 151.393 210.863 152.011C211.216 152.54 211.657 153.246 212.275 154.04C212.892 154.834 213.51 155.804 214.304 156.775C214.745 157.304 215.098 157.833 215.539 158.363C215.98 158.892 216.51 159.422 217.039 160.039C217.568 160.657 218.098 161.186 218.715 161.804C219.333 162.421 219.862 163.039 220.568 163.656C223.127 166.215 226.214 168.95 229.655 171.95C233.096 174.949 236.978 178.125 240.86 181.743C241.83 182.625 242.889 183.595 243.86 184.566C244.389 185.095 244.83 185.536 245.359 186.066C245.8 186.595 246.33 187.124 246.859 187.654C247.83 188.712 248.8 189.771 249.771 190.918C250.741 191.977 251.623 193.212 252.594 194.447C259.828 204.064 265.651 216.327 268.916 229.914C272.268 243.412 272.974 256.823 272.445 268.909C271.915 280.996 270.239 291.76 268.563 300.671C266.886 309.67 265.122 316.816 263.887 321.757C263.269 324.227 262.828 326.168 262.475 327.403C262.299 328.021 262.21 328.55 262.122 328.903C262.034 329.256 261.946 329.432 261.946 329.432L261.593 329.256Z"
                fill="#455A64"/>
        </g>
      </g>
      <g id="Group 227">
        <path id="Vector_83"
              d="M505.366 449.509C505.366 449.623 392.276 449.851 252.683 449.851C113.091 449.851 0 449.737 0 449.509C0 449.28 113.091 449.166 252.683 449.166C392.276 449.166 505.366 449.28 505.366 449.509Z"
              fill="#263238"/>
      </g>
      <g id="Group 229">
        <g id="Group 227_2">
          <path id="Vector_84" fill-rule="evenodd" clip-rule="evenodd"
                d="M125.932 99.9072C125.637 98.4942 124.121 97.6704 122.78 98.2041C114.825 101.37 90.0725 111.116 70.9709 117.603C69.5023 118.102 68.7356 119.713 69.2793 121.166C69.7997 122.556 71.3302 123.28 72.73 122.786C91.3641 116.207 114.867 106.612 123.234 103.197C123.678 103.016 124.079 102.852 124.435 102.707C125.523 102.263 126.172 101.057 125.932 99.9072Z"
                fill="#E2ECFC"/>
          <g id="Group_22">
            <path id="Vector_85"
                  d="M204.204 110.616L196.968 57.7461C196.633 55.546 194.651 54.0567 192.565 54.3983C190.365 54.7335 188.876 56.7158 189.218 58.8014L189.54 61.2303L168.194 65.1927C163.437 66.0725 159.696 69.3054 157.856 73.4491L144.979 75.8227C140.573 76.6074 137.575 80.9154 138.468 85.4428L139.354 90.0847L126.706 92.4711C123.228 93.0786 120.854 96.5034 121.576 99.988C122.183 103.466 125.608 105.84 129.093 105.119L141.74 102.732L142.456 106.331C143.24 110.738 147.548 113.736 152.076 112.843L165.187 110.368C168.351 113.301 172.858 114.818 177.499 113.932L196.41 110.406L196.574 111.564C196.91 113.764 198.892 115.253 200.978 114.911C203.178 114.576 204.667 112.594 204.325 110.508L204.204 110.616Z"
                  fill="#E2ECFC"/>
            <path id="Vector_86"
                  d="M204.204 110.617C204.204 110.617 204.185 110.961 204.153 111.533C204.121 112.105 203.954 113.014 203.102 113.884C202.364 114.761 200.831 115.478 199.134 115.038C198.346 114.764 197.456 114.255 196.922 113.536C196.599 113.173 196.395 112.703 196.313 112.124C196.225 111.66 196.142 111.081 196.06 110.503L196.175 110.509C192.34 111.326 187.584 112.206 182.243 113.282C180.85 113.548 179.458 113.814 178.065 114.08C176.673 114.346 175.166 114.605 173.57 114.4C170.48 114.226 167.226 112.895 164.723 110.458L165.079 110.248L165.067 110.477L164.952 110.471C160.546 111.255 155.897 112.256 150.919 113.008C148.382 113.21 145.687 112.139 143.851 110.084C142.987 109.117 142.372 107.82 141.992 106.421C141.719 105.143 141.453 103.75 141.181 102.472L141.511 102.72C138.033 103.328 134.549 104.05 130.835 104.759C129.907 104.936 129.093 105.12 128.056 105.176C127.135 105.239 126.111 105.066 125.209 104.786C123.41 104.11 121.892 102.532 121.308 100.663C120.611 98.7867 120.968 96.5109 122.095 94.8525C123.228 93.0796 125.238 92.045 127.203 91.8114C131.145 91.1153 135.094 90.3048 139.036 89.6087L138.788 89.9391C138.611 89.0107 138.44 87.9679 138.269 86.9251C138.098 85.8823 137.813 84.833 137.757 83.7967C137.765 81.616 138.574 79.4805 140.044 77.8414C140.776 77.0791 141.616 76.4376 142.678 75.9235C143.626 75.403 144.668 75.2322 145.711 75.0614C149.774 74.2573 153.717 73.5612 157.659 72.8651L157.417 73.0811C158.729 70.1703 161.052 67.661 163.774 66.2073C165.193 65.4837 166.598 64.989 168.105 64.7295C169.612 64.4701 171.005 64.2042 172.512 63.9448C178.311 62.8942 183.881 61.8307 189.216 60.8687L188.968 61.1991C188.885 60.6205 188.81 59.9275 188.728 59.3488C188.645 58.7702 188.57 58.0772 188.723 57.397C189.023 56.1512 189.895 54.9376 191.071 54.4299C192.248 53.9223 193.621 53.9997 194.733 54.6364C195.845 55.2731 196.588 56.3481 196.867 57.5118C197.524 62.1408 198.08 66.5344 198.655 70.5847C199.799 78.7998 200.773 85.9721 201.473 91.8662C202.289 97.7668 202.832 102.389 203.338 105.632C203.591 107.254 203.64 108.404 203.824 109.218C203.805 109.562 203.9 109.911 203.887 110.14C203.874 110.369 203.868 110.484 203.868 110.484C203.868 110.484 203.868 110.484 203.887 110.14C203.9 109.911 203.919 109.568 203.71 109.212C203.64 108.404 203.368 107.126 203.223 105.626C202.717 102.383 202.06 97.7539 201.244 91.8533C200.429 85.9527 199.456 78.7805 198.312 70.5654C197.737 66.515 197.181 62.1214 196.524 57.4925C196.353 56.4497 195.61 55.3746 194.606 54.8588C193.602 54.343 192.343 54.272 191.287 54.6717C190.225 55.1858 189.48 56.177 189.187 57.3084C189.155 57.8806 189.122 58.4527 189.205 59.0314C189.287 59.61 189.363 60.303 189.445 60.8816L189.432 61.1105L189.203 61.0976C183.868 62.0596 178.298 63.1231 172.492 64.2881C169.586 64.9278 166.477 65.0969 163.869 66.5571C161.262 68.0172 159.066 70.3041 157.754 73.2149C157.748 73.3293 157.627 73.4373 157.627 73.4373C153.684 74.1334 149.736 74.9439 145.679 75.6336C144.636 75.8044 143.708 75.9816 142.76 76.5022C141.819 76.9083 140.979 77.5497 140.362 78.3185C139.019 79.7352 138.216 81.7562 138.215 83.8225C138.157 84.8524 138.442 85.9016 138.619 86.83C138.79 87.8728 138.967 88.8012 139.138 89.844L139.125 90.0728L138.896 90.0599C134.839 90.7496 130.891 91.5601 127.063 92.2627C125.098 92.4963 123.323 93.4294 122.311 95.0943C121.305 96.6447 120.96 98.6916 121.55 100.447C122.14 102.202 123.436 103.653 125.12 104.322C125.908 104.596 126.817 104.762 127.739 104.699C128.661 104.636 129.596 104.344 130.403 104.275C134.002 103.56 137.595 102.959 141.073 102.351L141.302 102.364L141.289 102.593C141.561 103.871 141.713 105.257 142.099 106.542C142.372 107.82 142.994 109.003 143.858 109.97C145.471 111.898 148.051 112.962 150.474 112.754C155.338 111.995 160.101 111.001 164.507 110.216L164.494 110.445C164.38 110.438 164.266 110.432 164.266 110.432L164.304 109.745C164.19 109.739 164.622 110.222 164.622 110.222C167.017 112.538 170.156 113.863 173.132 114.031C174.619 114.115 176.12 113.97 177.512 113.704C178.905 113.438 180.297 113.172 181.69 112.907C187.025 111.945 191.781 111.065 195.609 110.362L195.723 110.369C195.691 110.941 195.894 111.412 195.983 111.876C196.072 112.34 196.275 112.811 196.599 113.173C197.132 113.892 197.907 114.395 198.695 114.669C200.278 115.103 201.696 114.379 202.543 113.623C203.281 112.746 203.561 111.844 203.587 111.386C203.619 110.814 203.639 110.471 203.639 110.471L204.204 110.617Z"
                  fill="#263238"/>
          </g>
          <path id="Vector_87"
                d="M196.747 110.54C196.632 110.533 194.728 99.5203 192.622 85.9703C190.516 72.4203 188.961 61.3122 189.075 61.3186C189.19 61.3251 191.094 72.3382 193.2 85.8881C195.306 99.4381 196.861 110.546 196.747 110.54Z"
                fill="#263238"/>
          <path id="Vector_88"
                d="M165.066 110.476C164.952 110.47 163.236 102.222 161.172 92.004C159.222 81.7919 157.741 73.443 157.856 73.4495C157.97 73.4559 159.686 81.7033 161.75 91.9218C163.7 102.134 165.181 110.483 165.066 110.476Z"
                fill="#263238"/>
          <path id="Vector_89"
                d="M141.734 102.849C141.619 102.843 140.859 100.045 140.251 96.5668C139.644 93.0886 139.233 90.1955 139.347 90.202C139.462 90.2084 140.222 93.0065 140.83 96.4846C141.437 99.9628 141.848 102.856 141.734 102.849Z"
                fill="#263238"/>
          <path id="Vector_90"
                d="M154.477 76.3593C154.477 76.3593 153.206 76.5172 151.234 76.8652C150.192 77.036 149.034 77.2004 147.756 77.4727C146.478 77.745 145.079 78.1253 143.661 78.8489C142.357 79.579 141.161 80.4299 140.747 81.6694C140.332 82.9088 140.382 84.0595 140.553 85.1023C140.672 87.0606 140.945 88.3387 140.83 88.3323C140.83 88.3323 140.322 87.1557 140.095 85.0765C140.039 84.0402 139.881 82.7685 140.302 81.4147C140.569 80.741 140.951 80.0737 141.549 79.6483C142.154 79.1084 142.752 78.6829 143.458 78.3783C144.876 77.6547 146.39 77.2808 147.668 77.0085C148.946 76.7362 150.217 76.5783 151.139 76.5155C153.218 76.2883 154.363 76.3528 154.477 76.3593Z"
                fill="white"/>
          <path id="Vector_91"
                d="M185.36 64.0963C185.36 64.0963 185.011 64.1914 184.311 64.3816C183.612 64.5717 182.569 64.7425 181.297 64.9004C178.633 65.3242 175.161 65.8172 171.225 66.3989C169.254 66.7469 167.505 67.2223 165.973 67.9395C164.44 68.6566 163.237 69.622 162.378 70.6068C160.66 72.5762 160.563 74.2927 160.449 74.2863C160.449 74.2863 160.475 73.8285 160.513 73.1419C160.667 72.4618 161.182 71.4577 161.933 70.3521C162.793 69.3673 164.001 68.2875 165.534 67.5704C167.073 66.7388 168.937 66.2699 170.908 65.9218C174.844 65.3401 178.43 64.8536 180.973 64.5378C182.245 64.3799 183.288 64.2091 183.974 64.2478C184.661 64.2865 185.125 64.1979 185.119 64.3123L185.36 64.0963Z"
                fill="white"/>
          <path id="Vector_92"
                d="M137.012 92.9369C137.012 92.9369 136.178 93.4639 134.786 93.7298C133.393 93.9957 131.321 94.1084 129.121 94.4436C128.078 94.6144 127.029 94.8996 126.202 95.3122C125.375 95.7247 124.656 96.2582 124.172 96.6901C123.199 97.6684 122.918 98.571 122.804 98.5645C122.804 98.5645 122.862 97.5346 123.842 96.4419C124.332 95.8955 125.051 95.3621 125.999 94.8415C126.94 94.4354 127.989 94.1502 129.038 93.8649C131.238 93.5298 133.305 93.5315 134.691 93.3801C136.077 93.2286 137.012 92.937 137.005 93.0514L137.012 92.9369Z"
                fill="white"/>
        </g>
        <g id="Group 228_2">
          <g id="Group_23">
            <path id="Vector_93" fill-rule="evenodd" clip-rule="evenodd"
                  d="M419.98 145.733C420.226 144.161 419.148 142.689 417.581 142.416C389.485 137.531 364.712 125.921 356.938 122.025C355.531 121.32 353.806 121.842 353.047 123.22C352.284 124.604 352.789 126.339 354.196 127.058C359.495 129.761 372.623 136.066 389.638 141.425C399.479 144.556 408.494 146.709 416.701 148.112C418.266 148.379 419.735 147.302 419.98 145.733Z"
                  fill="#01579B"/>
          </g>
          <g id="Group_24">
            <g id="Group_25">
              <g id="Group_26">
                <path id="Vector_94"
                      d="M356.817 124.105C355.612 127.465 351.786 129.31 348.427 128.104L335.587 123.528L339.979 111.138L352.818 115.714C356.178 116.92 358.023 120.745 356.817 124.105Z"
                      fill="#01579B"/>
                <path id="Vector_95"
                      d="M356.818 124.107C356.818 124.107 357.064 123.507 357.09 122.379C357.116 121.25 356.876 119.487 355.553 117.804C354.838 116.984 353.956 116.359 352.757 115.866C351.602 115.479 350.296 115.03 348.947 114.475C346.187 113.516 343.127 112.433 339.917 111.289L340.234 111.157C339.539 113.061 338.826 115.222 337.964 117.321C337.251 119.481 336.494 121.536 335.737 123.591L335.604 123.273C338.814 124.418 341.769 125.544 344.529 126.504C345.878 127.058 347.183 127.507 348.338 127.894C349.494 128.281 350.666 128.413 351.706 128.227C353.787 127.856 355.109 126.559 355.734 125.677C356.465 124.751 356.562 124.089 356.712 124.151C356.712 124.151 356.615 124.812 355.928 125.844C355.347 126.832 353.919 128.173 351.733 128.589C350.693 128.774 349.459 128.793 348.153 128.344C346.998 127.957 345.693 127.508 344.344 126.953C341.584 125.994 338.524 124.912 335.314 123.767L335.014 123.644L335.137 123.344C335.788 121.334 336.545 119.279 337.364 117.074C338.077 114.914 338.834 112.859 339.635 110.91L339.758 110.61L340.058 110.734C343.268 111.878 346.328 112.96 348.982 113.964C350.331 114.518 351.637 114.967 352.792 115.354C353.991 115.847 355.023 116.534 355.632 117.398C357 119.187 357.133 120.994 357.107 122.123C356.976 123.296 356.623 123.939 356.623 123.939L356.818 124.107Z"
                      fill="#263238"/>
              </g>
              <g id="Group_27">
                <g id="Group_28">
                  <path id="Vector_96"
                        d="M288.77 92.8934L267.28 86.3384C265.569 85.8104 264.607 84.1007 265.135 82.3899C265.663 80.6792 267.373 79.7171 269.084 80.245L290.574 86.8001L288.664 92.9376L288.77 92.8934Z"
                        fill="#01579B"/>
                  <path id="Vector_97"
                        d="M281.724 118.561L260.234 112.006C258.523 111.478 257.561 109.769 258.089 108.058C258.617 106.347 260.327 105.385 262.037 105.913L283.527 112.468L281.618 118.606L281.724 118.561Z"
                        fill="#01579B"/>
                  <g id="Group_29" opacity="0.6">
                    <path id="Vector_98"
                          d="M288.77 92.8915L267.28 86.3364C265.569 85.8085 264.607 84.0987 265.135 82.388C265.663 80.6772 267.373 79.7152 269.084 80.2431L290.574 86.7981L288.664 92.9356L288.77 92.8915Z"
                          fill="white"/>
                  </g>
                  <g id="Group_30" opacity="0.6">
                    <path id="Vector_99"
                          d="M281.724 118.561L260.234 112.006C258.523 111.478 257.561 109.769 258.089 108.058C258.617 106.347 260.327 105.385 262.037 105.913L283.527 112.468L281.618 118.606L281.724 118.561Z"
                          fill="white"/>
                  </g>
                  <path id="Vector_100"
                        d="M288.77 92.8919C288.77 92.8919 288.726 92.7861 288.849 92.4863C288.972 92.1864 289.051 91.7808 289.192 91.2253C289.474 90.1142 289.94 88.5534 290.424 86.7369L290.512 86.9484C287.84 86.2007 284.419 85.1448 280.442 83.9482C278.431 83.297 276.315 82.69 274.048 82.0214C272.937 81.7399 271.782 81.3527 270.627 80.9655C270.071 80.8248 269.472 80.5783 268.916 80.4376C268.361 80.2968 267.849 80.2619 267.276 80.3768C266.386 80.6243 265.567 81.3389 265.347 82.3C265.083 83.1554 265.269 84.1956 265.833 84.9535C266.01 85.3766 266.46 85.5615 266.804 85.7905C267.148 86.0195 267.659 86.0545 268.109 86.2393C268.964 86.5033 269.969 86.8289 270.825 87.0929C274.246 88.1487 277.412 89.1871 280.128 90.0407C282.694 90.8326 284.855 91.5453 286.415 92.0117C287.121 92.214 287.72 92.4605 288.126 92.5396C288.532 92.6187 288.726 92.7861 288.726 92.7861C288.726 92.7861 288.62 92.8303 288.17 92.6454C287.72 92.4605 287.165 92.3198 286.504 92.2232C284.943 91.7569 282.827 91.1499 280.155 90.4021C277.439 89.5486 274.211 88.6601 270.684 87.6484C269.829 87.3844 268.867 87.1646 267.968 86.7949C267.518 86.61 267.007 86.575 266.513 86.2844C266.063 86.0995 265.631 85.659 265.349 85.28C264.74 84.4164 264.466 83.1646 264.791 82.1593C265.073 81.0483 266.059 80.1396 267.205 79.9096C267.84 79.6447 268.501 79.7413 269.207 79.9436C269.762 80.0844 270.362 80.3309 270.918 80.4716C272.073 80.8588 273.184 81.1402 274.339 81.5274C276.605 82.1961 278.616 82.8473 280.626 83.4985C284.498 84.7392 287.919 85.7951 290.635 86.6486L290.741 86.6045L290.829 86.816C290.24 88.6767 289.773 90.2375 289.386 91.3927C289.201 91.8424 289.122 92.248 288.999 92.5479C288.876 92.8477 288.92 92.9535 288.876 92.8477L288.77 92.8919Z"
                        fill="#263238"/>
                  <path id="Vector_101"
                        d="M281.724 118.564C281.724 118.564 281.68 118.458 281.803 118.158C281.926 117.858 282.005 117.453 282.146 116.897C282.427 115.786 282.894 114.225 283.377 112.409L283.466 112.62C280.794 111.873 277.372 110.817 273.395 109.62C271.385 108.969 269.268 108.362 267.002 107.693C265.891 107.412 264.736 107.025 263.581 106.637C263.025 106.497 262.426 106.25 261.87 106.109C261.315 105.969 260.803 105.934 260.23 106.049C259.34 106.296 258.52 107.011 258.3 107.972C258.037 108.827 258.222 109.868 258.787 110.625C258.964 111.048 259.413 111.233 259.757 111.462C260.101 111.691 260.613 111.726 261.062 111.911C261.918 112.175 262.923 112.501 263.778 112.765C267.2 113.821 270.366 114.859 273.082 115.713C275.648 116.504 277.808 117.217 279.369 117.684C280.075 117.886 280.674 118.132 281.08 118.211C281.486 118.291 281.68 118.458 281.68 118.458C281.68 118.458 281.574 118.502 281.124 118.317C280.674 118.132 280.119 117.992 279.457 117.895C277.897 117.429 275.78 116.822 273.108 116.074C270.392 115.22 267.165 114.332 263.638 113.32C262.782 113.056 261.821 112.836 260.922 112.467C260.472 112.282 259.961 112.247 259.467 111.956C259.017 111.771 258.585 111.331 258.302 110.952C257.693 110.088 257.419 108.836 257.745 107.831C258.026 106.72 259.013 105.811 260.159 105.581C260.794 105.317 261.455 105.413 262.161 105.616C262.716 105.756 263.316 106.003 263.871 106.143C265.027 106.531 266.138 106.812 267.293 107.199C269.559 107.868 271.57 108.519 273.58 109.17C277.451 110.411 280.873 111.467 283.589 112.32L283.695 112.276L283.783 112.488C283.193 114.349 282.727 115.909 282.34 117.065C282.155 117.514 282.076 117.92 281.953 118.22C281.829 118.52 281.874 118.625 281.83 118.52L281.724 118.564Z"
                        fill="#263238"/>
                </g>
                <g id="Group_31">
                  <path id="Vector_102"
                        d="M332.131 94.4148L332.333 93.7093C333.327 90.4378 331.553 87.0798 328.281 86.0855C325.46 85.2762 322.498 86.5123 321.195 89.0434L289.546 79.2766L276.057 122.539L308.014 131.556C307.504 134.501 309.296 137.603 312.268 138.474C315.433 139.513 318.791 137.739 319.83 134.573C329.018 136.948 338.581 131.59 341.167 122.314L342.988 115.964C345.557 106.944 340.649 97.5658 332.025 94.4589L332.131 94.4148Z"
                        fill="#01579B"/>
                  <path id="Vector_103"
                        d="M332.131 94.4147C332.131 94.4147 332.131 94.4147 332.43 94.5379C332.58 94.5996 332.88 94.7228 333.18 94.8461C333.48 94.9693 333.93 95.1542 334.424 95.4448C334.723 95.568 334.917 95.7354 335.217 95.8587C335.517 95.9819 335.755 96.2551 336.055 96.3783C337.237 97.127 338.701 98.2546 340.025 99.9378C341.304 101.515 342.593 103.71 343.291 106.275C343.989 108.84 344.291 111.943 343.464 115.021C343.147 116.643 342.531 118.142 342.109 119.809C341.687 121.476 341.159 123.186 340.375 124.88C338.914 128.222 336.13 131.371 332.349 133.322C328.673 135.229 324.107 135.893 319.662 134.767L319.98 134.634C319.469 136.089 318.403 137.404 317.011 138.233C315.618 139.063 313.705 139.24 312.144 138.774C310.734 138.369 309.463 137.409 308.634 136.017C307.848 134.73 307.398 133.055 307.714 131.433L307.846 131.75C300.087 129.524 291.771 127.158 283.2 124.774C280.784 124.044 278.412 123.419 275.996 122.689L275.696 122.565L275.819 122.266C280.694 106.569 285.348 91.8339 289.308 79.0034L289.22 78.7919C289.325 78.7477 289.581 78.7652 289.581 78.7652C302.156 82.7072 312.87 86.0597 321.124 88.5761L320.912 88.6644C321.617 87.3768 322.815 86.3798 324.085 85.85C325.354 85.3202 326.694 85.2577 327.805 85.5391C330.133 86.0578 331.606 87.8026 332.119 89.3276C332.737 90.8084 332.544 92.131 332.385 92.9422C332.306 93.3478 332.183 93.6476 332.121 93.7975C332.06 93.9475 331.998 94.0974 331.998 94.0974C331.998 94.0974 332.077 93.6918 332.235 92.8806C332.394 92.0693 332.481 90.7909 331.863 89.3101C331.289 87.9351 329.86 86.2961 327.638 85.7332C326.527 85.4517 325.292 85.4701 324.023 85.9999C322.86 86.4855 321.723 87.3326 321.018 88.6203C312.764 86.1038 302.05 82.7514 289.414 78.9592L289.731 78.8268C285.772 91.6573 281.222 106.348 276.348 122.045L276.215 121.728C278.587 122.352 281.004 123.082 283.42 123.813C291.991 126.197 300.306 128.563 308.11 130.895L308.322 130.806C308.366 130.912 308.349 131.168 308.349 131.168C308.094 132.64 308.35 134.148 309.198 135.285C309.939 136.466 311.165 137.32 312.47 137.769C314.031 138.235 315.688 138.04 316.975 137.255C318.306 136.575 319.266 135.305 319.821 133.956L319.732 133.744C319.838 133.7 320.094 133.717 320.094 133.717C324.388 134.782 328.849 134.162 332.418 132.299C335.988 130.437 338.71 127.437 340.172 124.095C340.956 122.402 341.378 120.735 341.8 119.069C342.222 117.402 342.794 115.797 343.155 114.28C343.876 111.247 343.618 108.25 343.026 105.64C342.328 103.075 341.083 100.986 339.804 99.4089C338.525 97.8315 337.166 96.6598 335.984 95.9111C335.64 95.6821 335.446 95.5147 335.146 95.3915C334.847 95.2682 334.653 95.1008 334.353 94.9776C333.859 94.6869 333.409 94.5021 333.109 94.3788C332.809 94.2556 332.51 94.1323 332.36 94.0707C332.21 94.0091 332.06 93.9475 332.06 93.9475L332.131 94.4147Z"
                        fill="#263238"/>
                </g>
                <path id="Vector_104"
                      d="M305.501 106.33L283.244 99.5488L281.908 103.934L304.165 110.715L305.501 106.33Z"
                      fill="#C2C9DC"/>
              </g>
            </g>
            <path id="Vector_105"
                  d="M332.13 94.4194C332.13 94.4194 331.99 94.9749 331.814 96.0418C331.488 97.0471 331.128 98.5638 330.644 100.38C329.571 104.057 328.093 109.145 326.28 114.622C324.617 120.159 322.945 125.08 321.81 128.907C321.282 130.618 320.772 132.073 320.49 133.184C320.165 134.189 319.918 134.789 319.918 134.789C319.918 134.789 320.059 134.233 320.234 133.167C320.56 132.161 320.921 130.645 321.404 128.828C322.478 125.151 323.956 120.063 325.769 114.587C327.431 109.049 329.104 104.128 330.283 100.407C330.811 98.6962 331.321 97.2411 331.603 96.1301C331.928 95.1248 332.175 94.5251 332.175 94.5251L332.13 94.4194Z"
                  fill="#263238"/>
            <path id="Vector_106"
                  d="M321.045 88.9851C321.045 88.9851 320.948 89.6464 320.623 90.6517C320.341 91.7628 319.875 93.3236 319.329 95.29C318.194 99.1171 316.487 104.549 314.595 110.431C312.704 116.313 311.014 121.489 309.712 125.51C309.122 127.371 308.656 128.932 308.269 130.087C307.837 131.136 307.696 131.692 307.591 131.736C307.485 131.78 307.687 131.075 308.013 130.069C308.294 128.958 308.761 127.398 309.306 125.431C310.441 121.604 312.148 116.172 314.04 110.29C315.932 104.408 317.621 99.2321 318.924 95.2109C319.513 93.3503 319.98 91.7894 320.367 90.6342C320.798 89.5848 320.939 89.0293 321.045 88.9851Z"
                  fill="#263238"/>
          </g>
        </g>
        <g id="f">
          <g id="Group_32">
            <path id="Vector_107"
                  d="M298.912 13.9293C298.912 13.9293 298.912 13.9293 298.772 14.1116C298.587 14.2014 298.584 14.4312 298.352 14.6584C298.025 15.1604 297.465 15.8895 296.857 16.756C295.458 18.5789 293.498 21.1309 291.164 24.3223C286.265 30.7023 279.499 39.5895 271.986 49.5254L271.801 49.6153L271.709 49.6602C270.475 49.0027 269.242 48.3452 267.963 47.5953C266.09 46.5629 264.354 45.5779 262.664 44.6854L262.941 44.5506C256.162 54.5868 250.271 63.392 245.969 69.8247C243.82 72.9262 242.09 75.4809 240.92 77.3063C240.313 78.1728 239.845 78.8571 239.518 79.359C239.378 79.5413 239.238 79.7236 239.19 79.861C239.098 79.9059 239.005 79.9508 239.005 79.9508C239.005 79.9508 239.005 79.9508 239.145 79.7685C239.238 79.7236 239.333 79.4489 239.473 79.2666C239.8 78.7646 240.268 78.0804 240.783 77.2588C241.952 75.4333 243.682 72.8787 245.787 69.6848C250.089 63.252 255.98 54.4469 262.714 44.3182L262.899 44.2284C262.854 44.136 262.991 44.1835 262.991 44.1835C264.682 45.076 266.462 46.1534 268.29 47.0934C269.569 47.8433 270.803 48.5008 272.036 49.1583L271.759 49.293C279.365 39.3122 286.175 30.5174 291.074 24.1374C293.546 20.9936 295.505 18.4415 296.905 16.6187C297.512 15.7521 298.117 15.1154 298.445 14.6135C298.584 14.4312 298.724 14.2489 298.864 14.0666C298.957 14.0217 299.049 13.9768 299.049 13.9768L298.912 13.9293Z"
                  fill="#263238"/>
            <path id="Vector_108"
                  d="M308.381 50.5778C308.381 50.5778 308.196 50.6677 308.008 50.9873C307.638 51.167 307.266 51.5765 306.664 51.9834C305.505 52.8897 303.835 54.1579 301.749 55.7431C297.576 58.9137 291.781 63.2151 285.337 68.0608L285.152 68.1506L285.062 67.9657C284.611 67.2711 284.066 66.6214 283.615 65.9268C283.39 65.4646 282.935 64.9998 282.618 64.5825L282.986 64.6326C276.219 69.5206 270.467 74.1442 266.474 77.6845C264.477 79.4547 262.853 80.8154 261.738 81.8141C261.181 82.3134 260.764 82.6304 260.439 82.9026C260.069 83.0823 259.929 83.2646 259.929 83.2646C259.929 83.2646 260.114 83.1747 260.302 82.855C260.626 82.5829 260.999 82.1734 261.556 81.6741C262.671 80.6754 264.205 79.1299 266.202 77.3597C270.195 73.8194 275.995 69.0584 282.761 64.1704L282.946 64.0805L283.036 64.2654C283.26 64.7276 283.715 65.1924 284.032 65.6097C284.484 66.3043 285.073 67.0465 285.48 67.6487L285.113 67.5986C291.602 62.8453 297.396 58.5439 301.569 55.3734C303.608 53.9255 305.277 52.6572 306.574 51.7985C307.176 51.3916 307.594 51.0746 307.918 50.8024C308.288 50.6228 308.473 50.5329 308.473 50.5329L308.381 50.5778Z"
                  fill="#263238"/>
            <path id="Vector_109"
                  d="M230.856 48.6002C230.948 48.5553 231.153 54.8551 231.112 62.5312C231.071 70.2073 231.001 76.4121 230.909 76.4571C230.816 76.502 230.612 70.2021 230.653 62.526C230.693 54.8499 230.763 48.6451 230.856 48.6002Z"
                  fill="#263238"/>
            <path id="Vector_110"
                  d="M270.533 60.1717C270.578 60.2641 265.652 64.9431 259.475 70.5732C253.298 76.2034 248.145 80.6499 248.008 80.6024C247.963 80.51 252.888 75.831 259.066 70.2009C265.243 64.5707 270.396 60.1242 270.533 60.1717Z"
                  fill="#263238"/>
            <path id="Vector_111"
                  d="M205.473 41.2793C205.473 41.2793 205.837 41.5592 206.292 42.024C206.883 42.5363 207.61 43.326 208.519 44.2556C210.519 46.2548 213.108 48.9962 216.289 52.2498L216.424 52.5272L216.239 52.617C214.02 53.6952 211.572 54.7707 208.938 55.9361L208.989 55.5689C209.623 56.4035 210.257 57.2381 210.936 58.1651C215.282 64.0521 219.174 69.4743 222.117 73.4148C223.52 75.3613 224.606 76.8905 225.42 78.0948C225.69 78.6495 226.099 79.0219 226.279 79.3916C226.414 79.669 226.503 79.8539 226.503 79.8539C226.503 79.8539 226.414 79.669 226.186 79.4366C226.007 79.0668 225.597 78.6944 225.235 78.1847C224.329 77.0253 223.243 75.4961 221.748 73.5945C218.804 69.654 214.82 64.2767 210.474 58.3897C209.795 57.4627 209.16 56.6281 208.526 55.7935L208.392 55.5162L208.576 55.4263C211.165 54.1685 213.613 53.093 215.877 52.1073L215.827 52.4745C212.738 49.1759 210.012 46.387 208.104 44.3429C207.195 43.4132 206.469 42.6236 205.925 41.9739C205.425 41.4166 205.153 41.0918 205.153 41.0918L205.473 41.2793Z"
                  fill="#263238"/>
            <path id="Vector_112"
                  d="M207.451 126.479C207.407 126.386 210.906 121.829 215.382 116.226C219.858 110.622 223.632 106.16 223.722 106.345C223.767 106.437 220.268 110.995 215.791 116.598C211.315 122.201 207.541 126.664 207.451 126.479Z"
                  fill="#263238"/>
            <path id="Vector_113"
                  d="M232.41 122.578C232.317 122.623 232.906 119.366 233.869 115.47C234.833 111.574 235.741 108.504 235.833 108.459C235.926 108.414 235.337 111.671 234.374 115.568C233.41 119.464 232.502 122.534 232.41 122.578Z"
                  fill="#263238"/>
            <path id="Vector_114"
                  d="M259.559 148.582C259.466 148.627 255.803 139.208 251.522 127.576C247.24 115.944 243.9 106.483 243.992 106.438C244.085 106.393 247.748 115.811 252.029 127.444C256.31 139.076 259.651 148.537 259.559 148.582Z"
                  fill="#263238"/>
            <path id="Vector_115"
                  d="M204.888 76.7599C204.98 76.715 206.806 77.8848 208.856 79.5168C210.998 81.1039 212.591 82.501 212.544 82.6383C212.451 82.6833 210.626 81.5134 208.576 79.8814C206.433 78.2943 204.84 76.8973 204.888 76.7599Z"
                  fill="#263238"/>
          </g>
        </g>
      </g>
      <g id="Group_33">
        <g id="Group_34">
          <g id="Group_35">
            <path id="Vector_116"
                  d="M335.831 224.485C332.809 223.34 331.229 219.943 332.399 216.812L350.696 168.599C351.605 166.111 354.543 165.014 357.144 165.948L361.676 167.666C363.521 168.313 365.591 167.958 366.918 166.734L368.681 165.139C370.033 163.804 372.103 163.449 373.923 164.208L395.494 172.435C397.227 173.058 398.427 174.497 398.746 176.207L399.213 178.301C399.532 180.011 400.757 181.339 402.465 182.073L429.967 192.566C432.567 193.5 433.913 196.376 433.004 198.864L414.234 248.141C413.089 251.161 409.692 252.741 406.559 251.57L335.781 224.708L335.831 224.485Z"
                  fill="#455A64"/>
            <g id="Group_36" opacity="0.3">
              <path id="Vector_117"
                    d="M335.83 224.485C332.809 223.34 331.229 219.943 332.399 216.812L350.696 168.599C351.605 166.111 354.543 165.014 357.144 165.948L361.676 167.666C363.521 168.313 365.59 167.958 366.918 166.734L368.681 165.139C370.033 163.804 372.103 163.449 373.923 164.208L395.493 172.435C397.227 173.058 398.426 174.497 398.746 176.207L399.213 178.301C399.532 180.011 400.757 181.339 402.465 182.073L429.967 192.566C432.567 193.5 433.913 196.376 433.004 198.864L414.234 248.141C413.089 251.161 409.691 252.741 406.559 251.57L335.781 224.708L335.83 224.485Z"
                    fill="black"/>
            </g>
          </g>
          <path id="Vector_118"
                d="M399.692 180.866L382.233 174.145L381.731 170.638C381.425 168.346 379.88 166.362 377.614 165.503L360.575 158.993C357.554 157.847 354.206 159.204 353.111 162.001L352.327 163.932L332.388 216.341C331.193 219.584 332.946 223.254 336.388 224.61L405.767 250.925C409.209 252.281 412.966 250.666 414.273 247.447L433.092 197.948C433.926 195.794 432.84 193.327 430.574 192.468L399.605 180.73L399.692 180.866Z"
                fill="#455A64"/>
        </g>
        <path id="Vector_119" d="M409.116 206.454L367.796 190.734L361.175 208.132L402.495 223.851L409.116 206.454Z"
              fill="white"/>
        <path id="Vector_120"
              d="M399.947 211.588C399.922 211.7 393.521 209.446 385.633 206.508C377.746 203.57 371.53 201.007 371.555 200.895C371.58 200.784 377.982 203.038 385.87 205.976C393.757 208.914 399.972 211.477 399.947 211.588Z"
              fill="#263238"/>
        <path id="Vector_121"
              d="M398.516 215.362C398.491 215.473 392.09 213.219 384.202 210.281C376.315 207.343 370.099 204.78 370.124 204.669C370.149 204.557 376.551 206.811 384.438 209.749C392.326 212.687 398.541 215.25 398.516 215.362Z"
              fill="#263238"/>
      </g>
    </g>
  </g>
  <defs>
    <clipPath id="clip0_52544_66629">
      <rect width="450" height="450" fill="white"/>
    </clipPath>
  </defs>
</svg>
