<svg width="310" height="119" viewBox="0 0 310 119" fill="none" xmlns="http://www.w3.org/2000/svg">
  <g id="error" clip-path="url(#clip0_52544_66690)">
    <g id="Group 226">
      <path id="Vector" fill-rule="evenodd" clip-rule="evenodd"
            d="M50.7142 69.0501C50.456 67.8131 49.1288 67.092 47.9548 67.5592C40.9908 70.3305 19.3225 78.8623 2.60079 84.5412C1.31523 84.9778 0.644021 86.3885 1.11998 87.66C1.57557 88.8771 2.91535 89.5106 4.14079 89.0779C20.4531 83.3191 41.0279 74.9199 48.3524 71.9298C48.7409 71.7712 49.0921 71.6278 49.4034 71.5009C50.3556 71.1126 50.9244 70.0567 50.7142 69.0501Z"
            fill="#E2ECFC"/>
      <g id="Group">
        <path id="Vector_2"
              d="M119.234 78.4249L112.9 32.1421C112.606 30.2162 110.871 28.9124 109.045 29.2114C107.119 29.5048 105.815 31.2402 106.114 33.066L106.396 35.1922L87.71 38.6609C83.5464 39.4311 80.2715 42.2612 78.6601 45.8886L67.3881 47.9664C63.5306 48.6534 60.9061 52.4247 61.6876 56.388L62.4634 60.4515L51.3918 62.5406C48.347 63.0723 46.2686 66.0705 46.9005 69.1209C47.4323 72.1657 50.4304 74.2441 53.4809 73.6122L64.5525 71.5231L65.1788 74.6737C65.8658 78.5312 69.637 81.1557 73.6004 80.3742L85.0783 78.2075C87.8479 80.7755 91.7927 82.1034 95.8562 81.3276L112.411 78.2412L112.555 79.2543C112.848 81.1802 114.583 82.4839 116.409 82.1849C118.335 81.8915 119.639 80.1561 119.34 78.3304L119.234 78.4249Z"
              fill="#E2ECFC"/>
        <path id="Vector_3"
              d="M119.234 78.4255C119.234 78.4255 119.217 78.726 119.189 79.2269C119.161 79.7277 119.015 80.5235 118.269 81.2854C117.623 82.0529 116.281 82.6807 114.795 82.2954C114.105 82.0555 113.326 81.6097 112.859 80.9804C112.576 80.6629 112.398 80.2509 112.326 79.7444C112.248 79.338 112.177 78.8315 112.105 78.325L112.205 78.3306C108.848 79.0458 104.684 79.816 100.009 80.7583C98.7896 80.991 97.5705 81.2238 96.3515 81.4565C95.1325 81.6893 93.8132 81.9164 92.4164 81.7371C89.7117 81.5846 86.8631 80.4191 84.672 78.2857L84.9838 78.1023L84.9725 78.3026L84.8724 78.297C81.0149 78.9839 76.9457 79.8599 72.5873 80.5186C70.3665 80.6949 68.0075 79.7579 66.4006 77.9589C65.6443 77.1124 65.1054 75.9765 64.7725 74.7518C64.5341 73.633 64.3013 72.4139 64.0629 71.295L64.3522 71.5123C61.3074 72.0441 58.2569 72.6761 55.0061 73.2967C54.1934 73.4519 53.4809 73.6127 52.5737 73.6621C51.7666 73.7171 50.8707 73.566 50.0806 73.3205C48.506 72.7293 47.177 71.3479 46.6663 69.7112C46.0555 68.0689 46.3688 66.0767 47.3551 64.6249C48.347 63.0729 50.1065 62.1672 51.8264 61.9626C55.2776 61.3533 58.7344 60.6437 62.1855 60.0344L61.9682 60.3236C61.813 59.5109 61.6635 58.598 61.514 57.6852C61.3645 56.7723 61.1148 55.8538 61.0655 54.9465C61.0726 53.0376 61.781 51.1681 63.0678 49.7333C63.7084 49.0659 64.4435 48.5044 65.3733 48.0544C66.203 47.5987 67.1158 47.4492 68.0287 47.2996C71.5857 46.5957 75.0368 45.9864 78.488 45.377L78.2763 45.5661C79.4249 43.018 81.4582 40.8213 83.8413 39.5487C85.0829 38.9153 86.3133 38.4822 87.6325 38.2551C88.9517 38.028 90.1708 37.7952 91.49 37.5681C96.5665 36.6484 101.443 35.7174 106.113 34.8753L105.896 35.1645C105.824 34.658 105.757 34.0513 105.685 33.5448C105.614 33.0383 105.547 32.4316 105.681 31.8362C105.944 30.7455 106.707 29.6831 107.737 29.2387C108.767 28.7944 109.969 28.8621 110.943 29.4195C111.916 29.9768 112.567 30.918 112.811 31.9367C113.386 35.9888 113.873 39.8351 114.376 43.3807C115.378 50.5723 116.23 56.8509 116.843 62.0107C117.557 67.1761 118.032 71.2227 118.475 74.0615C118.697 75.4809 118.74 76.4882 118.901 77.2008C118.884 77.5013 118.967 77.8075 118.956 78.0078C118.945 78.2082 118.939 78.3084 118.939 78.3084C118.939 78.3084 118.939 78.3083 118.956 78.0078C118.967 77.8075 118.984 77.5069 118.801 77.1951C118.74 76.4882 118.502 75.3694 118.375 74.0558C117.932 71.217 117.357 67.1648 116.643 61.9994C115.929 56.8339 115.077 50.5553 114.076 43.3638C113.572 39.8181 113.086 35.9719 112.51 31.9197C112.361 31.0068 111.71 30.0657 110.831 29.6142C109.952 29.1627 108.85 29.1005 107.926 29.4504C106.996 29.9004 106.344 30.7681 106.088 31.7586C106.059 32.2595 106.031 32.7603 106.103 33.2669C106.175 33.7734 106.241 34.3801 106.313 34.8866L106.302 35.087L106.102 35.0757C101.431 35.9178 96.5552 36.8488 91.473 37.8686C88.9291 38.4287 86.2074 38.5767 83.9245 39.8549C81.6416 41.1331 79.7198 43.1351 78.5712 45.6832C78.5655 45.7834 78.4597 45.8779 78.4597 45.8779C75.0086 46.4872 71.5518 47.1968 68.0005 47.8005C67.0876 47.95 66.2749 48.1052 65.4453 48.5609C64.6213 48.9164 63.8861 49.4779 63.3457 50.1509C62.1704 51.3911 61.4676 53.1603 61.4662 54.9691C61.4153 55.8707 61.665 56.7892 61.8202 57.6019C61.9697 58.5148 62.1249 59.3275 62.2744 60.2404L62.2631 60.4407L62.0627 60.4294C58.5114 61.0331 55.0546 61.7427 51.7037 62.3577C49.9837 62.5622 48.4303 63.3791 47.5441 64.8365C46.6637 66.1938 46.3616 67.9856 46.878 69.5222C47.3943 71.0587 48.5286 72.3286 50.003 72.9142C50.693 73.154 51.4887 73.2994 52.2958 73.2444C53.1028 73.1894 53.9212 72.9341 54.628 72.8734C57.7787 72.2471 60.9236 71.721 63.9684 71.1892L64.1688 71.2005L64.1575 71.4009C64.3959 72.5197 64.5284 73.7331 64.867 74.8577C65.1054 75.9765 65.65 77.0122 66.4062 77.8588C67.8185 79.5463 70.0773 80.4776 72.1979 80.2957C76.4561 79.6313 80.6255 78.761 84.483 78.074L84.4717 78.2744C84.3715 78.2687 84.2713 78.2631 84.2713 78.2631L84.3052 77.662C84.205 77.6564 84.5831 78.0797 84.5831 78.0797C86.6797 80.1073 89.4281 81.2672 92.0327 81.414C93.3349 81.4874 94.6485 81.3605 95.8676 81.1278C97.0866 80.895 98.3057 80.6623 99.5247 80.4295C104.195 79.5874 108.359 78.8172 111.71 78.2022L111.81 78.2079C111.781 78.7087 111.959 79.1207 112.037 79.5271C112.114 79.9334 112.292 80.3454 112.576 80.6629C113.043 81.2922 113.721 81.7324 114.411 81.9723C115.797 82.3519 117.038 81.7185 117.779 81.0568C118.425 80.2893 118.671 79.4992 118.694 79.0985C118.722 78.5976 118.739 78.2971 118.739 78.2971L119.234 78.4255Z"
              fill="#263238"/>
      </g>
      <path id="Vector_4"
            d="M112.706 78.3582C112.605 78.3526 110.938 68.7117 109.095 56.85C107.251 44.9882 105.89 35.2641 105.99 35.2697C106.09 35.2754 107.758 44.9163 109.601 56.778C111.445 68.6398 112.806 78.3639 112.706 78.3582Z"
            fill="#263238"/>
      <path id="Vector_5"
            d="M84.9725 78.3023C84.8724 78.2967 83.37 71.0769 81.5631 62.1316C79.8562 53.1919 78.5599 45.8833 78.6601 45.8889C78.7603 45.8946 80.2626 53.1143 82.0696 62.0597C83.7764 70.9993 85.0727 78.308 84.9725 78.3023Z"
            fill="#263238"/>
      <path id="Vector_6"
            d="M64.5469 71.6251C64.4467 71.6194 63.7808 69.17 63.2491 66.1252C62.7173 63.0804 62.3576 60.5478 62.4578 60.5535C62.5579 60.5591 63.2238 63.0085 63.7556 66.0533C64.2874 69.0981 64.647 71.6307 64.5469 71.6251Z"
            fill="#263238"/>
      <path id="Vector_7"
            d="M75.7027 48.4365C75.7027 48.4365 74.5894 48.5747 72.8639 48.8794C71.951 49.0289 70.9379 49.1728 69.8191 49.4112C68.7002 49.6496 67.4755 49.9825 66.2339 50.616C65.0924 51.2551 64.0455 52 63.6828 53.085C63.3201 54.17 63.3638 55.1774 63.5134 56.0902C63.6177 57.8045 63.8561 58.9234 63.7559 58.9177C63.7559 58.9177 63.3115 57.8877 63.1127 56.0676C63.0633 55.1604 62.9251 54.0472 63.2934 52.862C63.5276 52.2723 63.8621 51.6882 64.3855 51.3157C64.9146 50.8431 65.4381 50.4706 66.0561 50.204C67.2977 49.5705 68.6226 49.2433 69.7415 49.0049C70.8604 48.7665 71.9736 48.6282 72.7806 48.5732C74.6007 48.3744 75.6025 48.4309 75.7027 48.4365Z"
            fill="white"/>
      <path id="Vector_8"
            d="M102.738 37.7013C102.738 37.7013 102.432 37.7845 101.819 37.951C101.207 38.1175 100.294 38.267 99.1809 38.4052C96.8486 38.7762 93.8095 39.2078 90.364 39.717C88.6384 40.0217 87.1075 40.4378 85.7657 41.0656C84.4239 41.6934 83.3713 42.5385 82.6192 43.4006C81.1151 45.1246 81.0304 46.6273 80.9302 46.6216C80.9302 46.6216 80.9528 46.2209 80.9867 45.6199C81.1208 45.0245 81.5723 44.1455 82.2298 43.1776C82.9819 42.3156 84.0401 41.3703 85.3819 40.7425C86.7294 40.0145 88.3604 39.604 90.086 39.2993C93.5315 38.7901 96.6708 38.3642 98.8973 38.0877C100.011 37.9495 100.923 37.8 101.524 37.8339C102.125 37.8678 102.532 37.7902 102.526 37.8904L102.738 37.7013Z"
            fill="white"/>
      <path id="Vector_9"
            d="M60.4132 62.949C60.4132 62.949 59.6837 63.4104 58.4647 63.6431C57.2456 63.8759 55.4312 63.9746 53.5053 64.268C52.5924 64.4175 51.6739 64.6672 50.9501 65.0283C50.2262 65.3895 49.5969 65.8565 49.1737 66.2346C48.3214 67.091 48.0759 67.8811 47.9757 67.8755C47.9757 67.8755 48.0265 66.9739 48.8844 66.0173C49.3134 65.539 49.9427 65.072 50.7723 64.6163C51.5963 64.2608 52.5148 64.0111 53.4333 63.7614C55.3593 63.468 57.1681 63.4695 58.3815 63.337C59.5949 63.2044 60.4132 62.9491 60.4076 63.0492L60.4132 62.949Z"
            fill="white"/>
    </g>
    <g id="Group 225">
      <g id="Group_2">
        <path id="Vector_10" fill-rule="evenodd" clip-rule="evenodd"
              d="M308.125 109.168C308.34 107.791 307.397 106.503 306.025 106.265C281.429 101.988 259.743 91.8246 252.938 88.4138C251.706 87.7967 250.196 88.2537 249.532 89.4599C248.864 90.6714 249.306 92.1906 250.538 92.8194C255.176 95.1862 266.668 100.705 281.564 105.396C290.178 108.137 298.07 110.022 305.254 111.25C306.625 111.485 307.91 110.541 308.125 109.168Z"
              fill="#01579B"/>
      </g>
      <g id="Group_3">
        <g id="Group_4">
          <g id="Group_5">
            <path id="Vector_11"
                  d="M252.832 90.2354C251.777 93.1766 248.428 94.7917 245.487 93.7362L234.247 89.7297L238.092 78.8835L249.331 82.89C252.273 83.9455 253.888 87.2942 252.832 90.2354Z"
                  fill="#01579B"/>
            <path id="Vector_12"
                  d="M252.832 90.2356C252.832 90.2356 253.048 89.7106 253.071 88.7227C253.093 87.7348 252.884 86.1913 251.725 84.7179C251.1 84.0005 250.327 83.453 249.278 83.0214C248.266 82.6824 247.124 82.2895 245.943 81.804C243.526 80.9643 240.848 80.0166 238.038 79.015L238.315 78.899C237.707 80.5665 237.083 82.4578 236.327 84.2952C235.703 86.1865 235.041 87.9852 234.378 89.7839L234.262 89.5061C237.072 90.5077 239.658 91.494 242.075 92.3338C243.256 92.8193 244.398 93.2122 245.41 93.5512C246.421 93.8902 247.447 94.0053 248.358 93.8427C250.179 93.5174 251.336 92.3821 251.884 91.61C252.524 90.7992 252.608 90.2203 252.74 90.2742C252.74 90.2742 252.655 90.8531 252.054 91.7565C251.545 92.6213 250.295 93.7952 248.381 94.1591C247.471 94.3217 246.39 94.3378 245.248 93.9449C244.236 93.6059 243.094 93.213 241.913 92.7275C239.497 91.8878 236.818 90.9401 234.008 89.9385L233.745 89.8306L233.853 89.5681C234.423 87.8081 235.086 86.0093 235.802 84.0794C236.426 82.1881 237.089 80.3894 237.79 78.6833L237.898 78.4208L238.161 78.5287C240.971 79.5303 243.65 80.4779 245.973 81.3563C247.154 81.8419 248.297 82.2348 249.308 82.5738C250.358 83.0053 251.261 83.6068 251.794 84.3628C252.992 85.9288 253.108 87.5109 253.086 88.4989C252.971 89.5254 252.662 90.089 252.662 90.089L252.832 90.2356Z"
                  fill="#263238"/>
          </g>
          <g id="Group_6">
            <g id="Group_7">
              <path id="Vector_13"
                    d="M193.263 62.9106L174.451 57.1723C172.953 56.7101 172.111 55.2134 172.573 53.7158C173.035 52.2182 174.532 51.376 176.03 51.8381L194.842 57.5765L193.17 62.9492L193.263 62.9106Z"
                    fill="#01579B"/>
              <path id="Vector_14"
                    d="M187.095 85.3813L168.282 79.643C166.785 79.1808 165.943 77.6841 166.405 76.1865C166.867 74.6889 168.364 73.8467 169.861 74.3089L188.674 80.0472L187.002 85.42L187.095 85.3813Z"
                    fill="#01579B"/>
              <g id="Group_8" opacity="0.6">
                <path id="Vector_15"
                      d="M193.263 62.9106L174.451 57.1723C172.953 56.7101 172.111 55.2134 172.573 53.7158C173.035 52.2182 174.532 51.376 176.03 51.8381L194.842 57.5765L193.17 62.9492L193.263 62.9106Z"
                      fill="white"/>
              </g>
              <g id="Group_9" opacity="0.6">
                <path id="Vector_16"
                      d="M187.095 85.3813L168.282 79.643C166.785 79.1808 165.943 77.6841 166.405 76.1865C166.867 74.6889 168.364 73.8467 169.861 74.3089L188.674 80.0472L187.002 85.42L187.095 85.3813Z"
                      fill="white"/>
              </g>
              <path id="Vector_17"
                    d="M193.263 62.9103C193.263 62.9103 193.224 62.8177 193.332 62.5552C193.44 62.2927 193.509 61.9377 193.633 61.4514C193.879 60.4787 194.287 59.1124 194.711 57.5222L194.788 57.7074C192.449 57.0528 189.454 56.1285 185.972 55.081C184.212 54.5109 182.36 53.9795 180.376 53.3942C179.403 53.1478 178.392 52.8089 177.381 52.4699C176.894 52.3467 176.369 52.1309 175.883 52.0077C175.397 51.8845 174.949 51.8539 174.447 51.9546C173.668 52.1712 172.951 52.7968 172.758 53.6382C172.527 54.387 172.69 55.2976 173.184 55.961C173.339 56.3314 173.732 56.4932 174.034 56.6937C174.335 56.8942 174.782 56.9248 175.176 57.0866C175.925 57.3177 176.805 57.6027 177.554 57.8338C180.549 58.7581 183.32 59.6672 185.698 60.4143C187.944 61.1076 189.836 61.7316 191.202 62.1398C191.819 62.3169 192.344 62.5327 192.699 62.6019C193.054 62.6712 193.224 62.8177 193.224 62.8177C193.224 62.8177 193.132 62.8564 192.738 62.6945C192.344 62.5327 191.858 62.4095 191.279 62.3249C189.913 61.9167 188.06 61.3853 185.721 60.7308C183.344 59.9836 180.518 59.2058 177.431 58.3201C176.682 58.089 175.84 57.8966 175.053 57.573C174.659 57.4111 174.212 57.3805 173.779 57.1261C173.385 56.9642 173.007 56.5786 172.76 56.2469C172.227 55.4908 171.987 54.395 172.272 53.515C172.518 52.5424 173.382 51.7469 174.385 51.5456C174.941 51.3137 175.52 51.3982 176.137 51.5754C176.624 51.6986 177.149 51.9143 177.635 52.0375C178.646 52.3765 179.619 52.6229 180.63 52.9618C182.614 53.5472 184.374 54.1172 186.134 54.6873C189.523 55.7734 192.518 56.6977 194.896 57.4449L194.988 57.4063L195.066 57.5915C194.55 59.2203 194.141 60.5866 193.802 61.5979C193.641 61.9916 193.571 62.3467 193.464 62.6092C193.356 62.8717 193.394 62.9642 193.356 62.8717L193.263 62.9103Z"
                    fill="#263238"/>
              <path id="Vector_18"
                    d="M187.095 85.383C187.095 85.383 187.056 85.2904 187.164 85.0279C187.272 84.7654 187.341 84.4103 187.464 83.924C187.711 82.9514 188.119 81.585 188.542 79.9949L188.62 80.1801C186.281 79.5255 183.286 78.6012 179.804 77.5537C178.044 76.9836 176.191 76.4522 174.207 75.8669C173.235 75.6205 172.224 75.2815 171.212 74.9426C170.726 74.8194 170.201 74.6036 169.715 74.4804C169.228 74.3572 168.781 74.3266 168.279 74.4273C167.5 74.6438 166.782 75.2694 166.59 76.1108C166.359 76.8596 166.521 77.7702 167.016 78.4337C167.17 78.8041 167.564 78.9659 167.865 79.1664C168.166 79.3669 168.614 79.3975 169.008 79.5593C169.757 79.7904 170.637 80.0754 171.385 80.3065C174.381 81.2308 177.152 82.1398 179.53 82.887C181.776 83.5802 183.667 84.2042 185.034 84.6124C185.651 84.7896 186.176 85.0053 186.531 85.0746C186.886 85.1438 187.056 85.2904 187.056 85.2904C187.056 85.2904 186.964 85.329 186.57 85.1672C186.176 85.0053 185.69 84.8822 185.111 84.7976C183.745 84.3894 181.892 83.858 179.553 83.2034C177.175 82.4562 174.35 81.6784 171.262 80.7928C170.513 80.5617 169.672 80.3693 168.885 80.0456C168.491 79.8838 168.043 79.8532 167.611 79.5988C167.217 79.4369 166.839 79.0512 166.592 78.7195C166.059 77.9635 165.819 76.8677 166.104 75.9876C166.35 75.015 167.214 74.2195 168.217 74.0182C168.773 73.7864 169.352 73.8709 169.969 74.048C170.455 74.1712 170.98 74.387 171.467 74.5102C172.478 74.8492 173.451 75.0955 174.462 75.4345C176.446 76.0198 178.206 76.5899 179.966 77.1599C183.355 78.2461 186.35 79.1704 188.728 79.9176L188.82 79.8789L188.898 80.0641C188.381 81.6929 187.973 83.0593 187.634 84.0706C187.472 84.4643 187.403 84.8194 187.295 85.0818C187.187 85.3443 187.226 85.4369 187.187 85.3443L187.095 85.383Z"
                    fill="#263238"/>
            </g>
            <g id="Group_10">
              <path id="Vector_19"
                    d="M231.221 64.2461L231.398 63.6286C232.269 60.7646 230.716 57.825 227.852 56.9547C225.381 56.2461 222.789 57.3282 221.648 59.544L193.943 50.9941L182.134 88.8661L210.109 96.7598C209.663 99.3379 211.232 102.054 213.833 102.816C216.604 103.725 219.544 102.172 220.453 99.4007C228.497 101.48 236.868 96.7896 239.132 88.6688L240.726 83.1108C242.975 75.2139 238.678 67.0046 231.129 64.2848L231.221 64.2461Z"
                    fill="#01579B"/>
              <path id="Vector_20"
                    d="M231.221 64.2455C231.221 64.2455 231.221 64.2455 231.484 64.3534C231.615 64.4073 231.877 64.5152 232.14 64.6231C232.402 64.731 232.796 64.8928 233.228 65.1472C233.491 65.2551 233.661 65.4017 233.923 65.5096C234.186 65.6174 234.394 65.8566 234.657 65.9645C235.691 66.6199 236.973 67.607 238.132 69.0804C239.252 70.4612 240.38 72.3823 240.991 74.6279C241.602 76.8735 241.866 79.5901 241.142 82.2841C240.865 83.7044 240.326 85.0168 239.956 86.4757C239.587 87.9347 239.125 89.4323 238.439 90.9145C237.159 93.8405 234.722 96.5973 231.412 98.3051C228.195 99.9741 224.197 100.555 220.307 99.5699L220.584 99.454C220.137 100.728 219.204 101.878 217.985 102.605C216.766 103.331 215.092 103.486 213.725 103.078C212.49 102.724 211.378 101.883 210.652 100.664C209.964 99.5377 209.57 98.0716 209.847 96.6513L209.963 96.929C203.17 94.9806 195.89 92.9089 188.387 90.822C186.272 90.1827 184.195 89.636 182.08 88.9967L181.818 88.8888L181.926 88.6263C186.193 74.8856 190.268 61.9862 193.734 50.7543L193.657 50.5692C193.749 50.5305 193.973 50.5458 193.973 50.5458C204.981 53.9967 214.36 56.9315 221.586 59.1344L221.401 59.2116C222.017 58.0844 223.067 57.2117 224.178 56.7479C225.289 56.2841 226.462 56.2294 227.435 56.4757C229.472 56.9298 230.762 58.4572 231.211 59.7922C231.752 61.0885 231.583 62.2463 231.444 62.9564C231.375 63.3115 231.267 63.574 231.213 63.7052C231.159 63.8365 231.105 63.9677 231.105 63.9677C231.105 63.9677 231.174 63.6126 231.313 62.9025C231.451 62.1923 231.528 61.0732 230.987 59.7769C230.484 58.5732 229.233 57.1384 227.288 56.6456C226.315 56.3993 225.235 56.4154 224.124 56.8791C223.105 57.3043 222.11 58.0458 221.493 59.173C214.268 56.9701 204.889 54.0353 193.827 50.7157L194.104 50.5998C190.638 61.8316 186.656 74.6923 182.389 88.4331L182.273 88.1553C184.349 88.702 186.464 89.3413 188.58 89.9806C196.083 92.0675 203.362 94.1392 210.194 96.1803L210.379 96.103C210.418 96.1956 210.402 96.4194 210.402 96.4194C210.179 97.7084 210.404 99.0281 211.146 100.023C211.794 101.057 212.868 101.805 214.01 102.198C215.377 102.606 216.827 102.435 217.954 101.748C219.119 101.153 219.96 100.041 220.445 98.8598L220.368 98.6746C220.46 98.636 220.684 98.6513 220.684 98.6513C224.443 99.5828 228.348 99.0401 231.473 97.4097C234.598 95.7793 236.981 93.1537 238.261 90.2277C238.947 88.7455 239.316 87.2865 239.686 85.8276C240.055 84.3686 240.556 82.9637 240.872 81.636C241.503 78.9806 241.278 76.3566 240.759 74.0724C240.148 71.8268 239.059 69.9983 237.939 68.6174C236.819 67.2366 235.629 66.2109 234.595 65.5555C234.294 65.355 234.124 65.2084 233.861 65.1006C233.599 64.9927 233.429 64.8461 233.166 64.7382C232.734 64.4838 232.34 64.322 232.078 64.2141C231.815 64.1062 231.553 63.9983 231.422 63.9443C231.29 63.8904 231.159 63.8364 231.159 63.8364L231.221 64.2455Z"
                    fill="#263238"/>
            </g>
            <path id="Vector_21" d="M207.909 74.6745L188.426 68.7383L187.256 72.5774L206.74 78.5136L207.909 74.6745Z"
                  fill="#C2C9DC"/>
          </g>
        </g>
        <path id="Vector_22"
              d="M231.221 64.2456C231.221 64.2456 231.098 64.7319 230.944 65.6659C230.659 66.5459 230.344 67.8736 229.92 69.4638C228.98 72.6828 227.687 77.1369 226.1 81.9308C224.644 86.7786 223.18 91.0862 222.187 94.4364C221.724 95.934 221.278 97.2077 221.031 98.1804C220.746 99.0604 220.53 99.5853 220.53 99.5853C220.53 99.5853 220.654 99.099 220.807 98.165C221.092 97.285 221.408 95.9573 221.831 94.3671C222.771 91.1481 224.065 86.694 225.652 81.9002C227.108 77.0523 228.571 72.7448 229.604 69.4871C230.066 67.9895 230.513 66.7158 230.759 65.7432C231.044 64.8631 231.26 64.3382 231.26 64.3382L231.221 64.2456Z"
              fill="#263238"/>
        <path id="Vector_23"
              d="M221.517 59.4893C221.517 59.4893 221.432 60.0682 221.147 60.9482C220.901 61.9209 220.492 63.2872 220.015 65.0086C219.021 68.3589 217.527 73.1141 215.871 78.2631C214.215 83.412 212.736 87.9434 211.596 91.4636C211.079 93.0924 210.671 94.4587 210.332 95.47C209.955 96.3887 209.831 96.875 209.739 96.9136C209.646 96.9523 209.823 96.3347 210.108 95.4547C210.355 94.4821 210.763 93.1157 211.24 91.3943C212.234 88.0441 213.728 83.2888 215.385 78.1399C217.041 72.9909 218.52 68.4595 219.66 64.9394C220.176 63.3106 220.584 61.9442 220.923 60.933C221.301 60.0143 221.424 59.528 221.517 59.4893Z"
              fill="#263238"/>
      </g>
    </g>
    <g id="f">
      <g id="Group_11">
        <path id="Vector_24"
              d="M202.141 -6.21546C202.141 -6.21546 202.141 -6.21544 202.019 -6.05587C201.857 -5.97722 201.855 -5.77605 201.651 -5.57715C201.365 -5.13775 200.875 -4.49945 200.343 -3.7409C199.118 -2.14514 197.402 0.0889158 195.359 2.88262C191.07 8.46776 185.148 16.2476 178.571 24.9456L178.409 25.0243L178.328 25.0636C177.248 24.488 176.168 23.9125 175.049 23.256C173.409 22.3522 171.89 21.4899 170.409 20.7086L170.652 20.5907C164.718 29.3764 159.561 37.0844 155.795 42.7157C153.913 45.4308 152.399 47.6671 151.375 49.2651C150.843 50.0237 150.434 50.6227 150.148 51.0621C150.025 51.2216 149.902 51.3812 149.861 51.5015C149.78 51.5408 149.699 51.5801 149.699 51.5801C149.699 51.5801 149.699 51.5801 149.822 51.4205C149.902 51.3812 149.986 51.1407 150.108 50.9811C150.395 50.5417 150.804 49.9428 151.255 49.2235C152.279 47.6255 153.793 45.3892 155.635 42.5932C159.401 36.9619 164.559 29.2539 170.453 20.3872L170.615 20.3086C170.576 20.2276 170.696 20.2692 170.696 20.2692C172.176 21.0505 173.735 21.9937 175.335 22.8166C176.455 23.4731 177.534 24.0486 178.614 24.6242L178.372 24.7422C185.03 16.0049 190.992 8.30591 195.28 2.72078C197.444 -0.0313317 199.159 -2.26539 200.384 -3.86114C200.916 -4.61969 201.446 -5.17708 201.732 -5.61648C201.855 -5.77605 201.977 -5.93562 202.1 -6.0952C202.181 -6.13452 202.262 -6.17384 202.262 -6.17384L202.141 -6.21546Z"
              fill="#263238"/>
        <path id="Vector_25"
              d="M210.43 25.8677C210.43 25.8677 210.268 25.9463 210.104 26.2262C209.781 26.3835 209.455 26.7419 208.928 27.0981C207.913 27.8915 206.451 29.0017 204.625 30.3894C200.972 33.1649 195.899 36.9304 190.258 41.1723L190.096 41.251L190.017 41.0891C189.622 40.481 189.146 39.9123 188.75 39.3042C188.553 38.8996 188.156 38.4927 187.878 38.1274L188.199 38.1713C182.276 42.4502 177.24 46.4978 173.745 49.597C171.997 51.1466 170.575 52.3378 169.599 53.212C169.112 53.6491 168.746 53.9267 168.462 54.1649C168.138 54.3222 168.016 54.4818 168.016 54.4818C168.016 54.4818 168.178 54.4031 168.342 54.1233C168.626 53.8851 168.952 53.5266 169.44 53.0895C170.416 52.2152 171.759 50.8623 173.507 49.3127C177.002 46.2134 182.079 42.0456 188.003 37.7667L188.165 37.688L188.243 37.8499C188.44 38.2545 188.838 38.6614 189.115 39.0267C189.511 39.6347 190.027 40.2844 190.383 40.8116L190.061 40.7677C195.742 36.6067 200.815 32.8412 204.468 30.0657C206.252 28.7982 207.714 27.688 208.849 26.9363C209.376 26.5801 209.741 26.3025 210.026 26.0643C210.349 25.907 210.511 25.8283 210.511 25.8283L210.43 25.8677Z"
              fill="#263238"/>
        <path id="Vector_26"
              d="M142.565 24.1358C142.646 24.0965 142.825 29.6114 142.789 36.3311C142.753 43.0508 142.692 48.4825 142.611 48.5219C142.53 48.5612 142.351 43.0463 142.387 36.3266C142.422 29.6069 142.484 24.1751 142.565 24.1358Z"
              fill="#263238"/>
        <path id="Vector_27"
              d="M177.298 34.2666C177.338 34.3476 173.026 38.4436 167.618 43.3722C162.211 48.3009 157.7 52.1934 157.58 52.1518C157.54 52.0709 161.852 47.9749 167.26 43.0462C172.667 38.1176 177.178 34.225 177.298 34.2666Z"
              fill="#263238"/>
        <path id="Vector_28"
              d="M120.344 17.7277C120.344 17.7277 120.663 17.9728 121.061 18.3797C121.579 18.8282 122.215 19.5194 123.011 20.3332C124.762 22.0833 127.028 24.4831 129.813 27.3314L129.931 27.5742L129.769 27.6529C127.827 28.5967 125.683 29.5382 123.378 30.5584L123.422 30.237C123.977 30.9676 124.532 31.6981 125.127 32.5097C128.931 37.6632 132.339 42.4098 134.915 45.8593C136.143 47.5633 137.094 48.902 137.806 49.9563C138.042 50.4418 138.401 50.7678 138.558 51.0915C138.676 51.3343 138.755 51.4961 138.755 51.4961C138.755 51.4961 138.676 51.3342 138.477 51.1308C138.32 50.8071 137.961 50.4811 137.644 50.0349C136.851 49.0199 135.9 47.6813 134.591 46.0166C132.015 42.5671 128.527 37.8598 124.722 32.7063C124.128 31.8948 123.573 31.1642 123.017 30.4336L122.899 30.1908L123.061 30.1121C125.327 29.011 127.471 28.0695 129.452 27.2066L129.408 27.528C126.705 24.6404 124.318 22.1991 122.648 20.4096C121.852 19.5958 121.216 18.9045 120.74 18.3358C120.303 17.848 120.064 17.5636 120.064 17.5636L120.344 17.7277Z"
              fill="#263238"/>
        <path id="Vector_29"
              d="M122.076 92.3113C122.037 92.2304 125.1 88.241 129.019 83.3358C132.937 78.4306 136.241 74.5244 136.32 74.6862C136.359 74.7671 133.296 78.7565 129.377 83.6618C125.459 88.567 122.155 92.4732 122.076 92.3113Z"
              fill="#263238"/>
        <path id="Vector_30"
              d="M143.925 88.8975C143.844 88.9368 144.359 86.0855 145.203 82.6747C146.046 79.2638 146.841 76.5767 146.922 76.5374C147.003 76.498 146.488 79.3493 145.644 82.7601C144.801 86.171 144.006 88.8581 143.925 88.8975Z"
              fill="#263238"/>
        <path id="Vector_31"
              d="M167.691 111.662C167.61 111.701 164.404 103.456 160.656 93.2731C156.908 83.0902 153.984 74.8079 154.065 74.7686C154.145 74.7293 157.352 82.9745 161.1 93.1574C164.848 103.34 167.772 111.623 167.691 111.662Z"
              fill="#263238"/>
        <path id="Vector_32"
              d="M119.832 48.7877C119.913 48.7484 121.511 49.7725 123.306 51.2011C125.181 52.5905 126.576 53.8135 126.534 53.9337C126.453 53.9731 124.855 52.949 123.061 51.5203C121.185 50.1309 119.791 48.908 119.832 48.7877Z"
              fill="#263238"/>
      </g>
    </g>
  </g>
  <defs>
    <clipPath id="clip0_52544_66690">
      <rect width="310" height="119" fill="white"/>
    </clipPath>
  </defs>
</svg>
