<svg width="24" height="24" viewBox="0 0 24 24" fill="none" xmlns="http://www.w3.org/2000/svg">
  <g clip-path="url(#clip0_53602_101815)">
    <path
      d="M9.57664 7.59315H11.7833C12.1713 6.78798 11.5841 5.83862 10.6797 5.83862C9.77706 5.83862 9.1871 6.78647 9.57664 7.59315Z"
      fill="currentColor"/>
    <path
      d="M10.679 4.61442C12.2383 4.61442 13.4077 6.06084 13.0694 7.59303H16.1874V6.24653C16.1874 6.02118 16.0048 5.8385 15.7794 5.8385H14.9559C14.862 5.50996 14.7311 5.19708 14.5684 4.90436L15.1511 4.32166C15.3104 4.16232 15.3104 3.90396 15.1511 3.74462L13.997 2.59055C13.8377 2.43122 13.5793 2.43122 13.42 2.59055L12.8373 3.17326C12.5446 3.01045 12.2317 2.8796 11.9031 2.78571V1.96223C11.9031 1.73687 11.7205 1.5542 11.4951 1.5542H9.86299C9.63763 1.5542 9.45496 1.73687 9.45496 1.96223V2.78575C9.12641 2.8796 8.81354 3.0105 8.52082 3.1733L7.93811 2.59055C7.77878 2.43122 7.52041 2.43122 7.36108 2.59055L6.20701 3.74462C6.04767 3.90396 6.04767 4.16232 6.20701 4.32166L6.78975 4.90436C6.62699 5.19708 6.4961 5.50996 6.40225 5.8385H5.57868C5.35333 5.8385 5.17065 6.02118 5.17065 6.24653V7.59303H8.29012C7.94982 6.05684 9.12311 4.61442 10.679 4.61442Z"
      fill="currentColor"/>
    <path
      d="M20.896 14.5154L18.4939 10.9235C18.453 10.1968 18.307 9.49177 18.0586 8.81689H3.44849C2.07017 12.5588 3.95486 16.8741 7.89736 18.273V21.833C7.89736 22.1709 8.17114 22.4451 8.5094 22.4451H15.4867C15.8245 22.4451 16.0987 22.1709 16.0987 21.833V18.6912H17.8941C18.2319 18.6912 18.5061 18.417 18.5061 18.0792V15.4678H20.3871C20.8752 15.4678 21.1677 14.9218 20.896 14.5154Z"
      fill="currentColor"/>
  </g>
  <defs>
    <clipPath id="clip0_53602_101815">
      <rect width="24" height="24" fill="white"/>
    </clipPath>
  </defs>
</svg>
