<svg width="24" height="24" viewBox="0 0 24 24" fill="none" xmlns="http://www.w3.org/2000/svg">
  <g clip-path="url(#clip0_53602_101715)">
    <path
      d="M15.1199 19.2721C15.0116 20.0296 14.6368 20.7222 14.0641 21.2232C13.4915 21.7242 12.7593 22 12.0018 22C11.2443 22 10.5121 21.7242 9.93947 21.2232C9.36681 20.7222 8.99197 20.0296 8.88364 19.2721H15.1199ZM12.0018 2C13.9904 2.00004 15.9007 2.78267 17.3278 4.18192C18.7549 5.58117 19.5864 7.48701 19.646 9.49529V9.72707H19.6496V13.4647L20.9217 16.777C20.9559 16.867 20.9793 16.9597 20.991 17.0551L21 17.1978C21.0001 17.486 20.8944 17.764 20.7033 17.978C20.5121 18.1919 20.2492 18.3266 19.9654 18.3558L19.8485 18.3613H4.15242C3.97503 18.3614 3.80001 18.3202 3.641 18.2407C3.482 18.1612 3.34331 18.0457 3.23576 17.9032C3.12822 17.7607 3.05472 17.5949 3.021 17.419C2.98728 17.243 2.99425 17.0616 3.04137 16.8888L3.07915 16.7761L4.35304 13.4638V9.72798C4.35293 8.7131 4.55069 7.70813 4.93503 6.77047C5.31937 5.83281 5.88277 4.98084 6.59305 4.26321C7.30332 3.54557 8.14656 2.97634 9.0746 2.58801C10.0026 2.19969 10.9973 1.99988 12.0018 2Z"
      fill="currentColor"/>
  </g>
  <defs>
    <clipPath id="clip0_53602_101715">
      <rect width="24" height="24" fill="white"/>
    </clipPath>
  </defs>
</svg>
