<svg width="24" height="24" viewBox="0 0 24 24" fill="none" xmlns="http://www.w3.org/2000/svg">
  <g clip-path="url(#clip0_54569_100518)">
    <g clip-path="url(#clip1_54569_100518)">
      <g clip-path="url(#clip2_54569_100518)">
        <path
          d="M19.0864 17C19.0864 13.1402 15.9074 10 12 10C8.09254 10 4.91357 13.1402 4.91357 17C4.91357 20.8598 8.09249 24 11.9999 24C15.9074 24 19.0864 20.8598 19.0864 17ZM9.25089 18.6762H10.6571C10.6571 19.1574 11.0534 19.549 11.5406 19.549H12.4436C12.9465 19.549 13.3557 19.1447 13.3557 18.6479C13.3557 18.1511 12.9466 17.7469 12.4436 17.7469H11.5564C10.2781 17.7469 9.23809 16.7196 9.23809 15.4569C9.23809 14.2808 10.1403 13.3094 11.2969 13.1816V12.0257H12.7031V13.1842C13.8504 13.3212 14.7425 14.2882 14.7425 15.4579H13.3364C13.3364 14.9605 12.9267 14.5559 12.4233 14.5559H11.5564C11.0535 14.5559 10.6443 14.9601 10.6443 15.4569C10.6443 15.9537 11.0535 16.3579 11.5564 16.3579H12.4436C13.7219 16.3579 14.7619 17.3852 14.7619 18.6479C14.7619 19.8239 13.8597 20.7953 12.7031 20.9232V22.0791H11.297V20.925C10.1485 20.8045 9.25089 19.842 9.25089 18.6762Z"
          fill="currentColor"/>
        <path
          d="M7.3263 9.82641C8.66783 8.9388 10.2745 8.421 12 8.421C13.7255 8.421 15.3322 8.93875 16.6736 9.82642L16.6736 6.74865L19.0654 6.74865L19.0654 5.73199L12 -5.30698e-05L4.93455 5.73199L4.93455 6.74865L7.32634 6.74865L7.3263 9.82641Z"
          fill="currentColor"/>
      </g>
    </g>
  </g>
  <defs>
    <clipPath id="clip0_54569_100518">
      <rect width="24" height="24" fill="white"/>
    </clipPath>
    <clipPath id="clip1_54569_100518">
      <rect width="24" height="24" fill="white"/>
    </clipPath>
    <clipPath id="clip2_54569_100518">
      <rect width="24" height="24" fill="white"/>
    </clipPath>
  </defs>
</svg>
