<svg width="24" height="24" viewBox="0 0 24 24" fill="none" xmlns="http://www.w3.org/2000/svg">
  <g clip-path="url(#clip0_52077_54788)">
    <path d="M12.5859 12.3384V16.4399L16.138 14.3892V10.2876L12.5859 12.3384Z" fill="currentColor"/>
    <path d="M11.9998 11.3235L15.5519 9.27267L11.9998 7.22192L8.44775 9.27271L11.9998 11.3235Z" fill="currentColor"/>
    <path d="M11.4139 12.3384L7.86182 10.2876V14.3892L11.4139 16.4399V12.3384Z" fill="currentColor"/>
    <path
      d="M20.193 14.3963C20.6484 12.8395 20.6479 11.1693 20.1916 9.60496C20.9483 8.97918 21.1672 7.8782 20.6602 7C20.1535 6.12238 19.0917 5.76137 18.1717 6.10273C17.0513 4.93 15.6045 4.09527 14.0216 3.70832C13.858 2.74004 13.014 2 11.9999 2C10.9865 2 10.1429 2.73906 9.97862 3.70641C8.40284 4.09039 6.95667 4.9259 5.83011 6.10313C5.43362 5.9548 5.00202 5.9327 4.58491 6.04445C4.05577 6.18625 3.61355 6.52559 3.33968 7C2.83296 7.87766 3.05124 8.97773 3.80683 9.60371C3.35148 11.1604 3.35198 12.8307 3.80831 14.395C3.05151 15.0208 2.83261 16.1218 3.33964 17C3.61355 17.4744 4.05577 17.8138 4.58487 17.9555C4.76155 18.0029 4.94085 18.0263 5.11898 18.0263C5.36065 18.0263 5.59995 17.9821 5.82788 17.8971C6.94839 19.07 8.39526 19.9047 9.97823 20.2917C10.1418 21.26 10.9858 22 11.9999 22C13.0133 22 13.8569 21.2609 14.0212 20.2936C15.5969 19.9096 17.043 19.0742 18.1695 17.897C18.4012 17.9833 18.6419 18.025 18.8807 18.025C19.5899 18.0249 20.2807 17.6571 20.6601 17C21.1669 16.1224 20.9486 15.0223 20.193 14.3963ZM13.8757 19.1216C13.5569 18.402 12.8363 17.8984 11.9999 17.8984C11.1642 17.8984 10.4441 18.4012 10.1249 19.12C8.85448 18.7846 7.69179 18.1141 6.77101 17.1861C6.91882 16.9839 7.02983 16.7545 7.09659 16.5054C7.23835 15.9763 7.16562 15.4236 6.89171 14.9492C6.47382 14.2255 5.67839 13.8533 4.89636 13.9362C4.55151 12.668 4.55085 11.3256 4.8944 10.0639C4.96698 10.0717 5.03972 10.0758 5.11222 10.0758C5.82148 10.0758 6.5123 9.70793 6.89171 9.05078C7.16562 8.57637 7.23839 8.02375 7.09659 7.49461C7.02999 7.24613 6.91937 7.01719 6.7721 6.81547C7.69792 5.88309 8.85999 5.21152 10.1241 4.87836C10.4429 5.59801 11.1635 6.10156 11.9999 6.10156C12.8357 6.10156 13.5557 5.59879 13.8749 4.88004C15.1457 5.21555 16.3087 5.88629 17.2296 6.81473C16.7658 7.45059 16.69 8.32641 17.1081 9.05078C17.4875 9.70797 18.1783 10.0757 18.8876 10.0757C18.9595 10.0757 19.0316 10.0717 19.1036 10.0641C19.4484 11.3323 19.449 12.6748 19.1053 13.9364C18.3227 13.8527 17.5263 14.2248 17.1081 14.9492C16.6903 15.673 16.7657 16.548 17.2285 17.1838C16.3026 18.1166 15.1402 18.7884 13.8757 19.1216Z"
      fill="currentColor"/>
  </g>
  <defs>
    <clipPath id="clip0_52077_54788">
      <rect width="24" height="24" fill="white"/>
    </clipPath>
  </defs>
</svg>
