<svg width="24" height="24" viewBox="0 0 24 24" fill="none" xmlns="http://www.w3.org/2000/svg">
  <g clip-path="url(#clip0_51857_41456)">
    <path
      d="M12 24C18.6274 24 24 18.6274 24 12C24 5.37258 18.6274 0 12 0C5.37258 0 0 5.37258 0 12C0 18.6274 5.37258 24 12 24Z"
      fill="#0052FF"/>
    <path
      d="M12.1008 8.48039C13.5136 8.48039 14.6344 9.3518 15.06 10.6477H17.9062C17.3906 7.87711 15.1048 6 12.1235 6C8.73797 6 6.09375 8.56992 6.09375 12.0115C6.09375 15.453 8.67188 18 12.1235 18C15.038 18 17.3693 16.1229 17.8854 13.3294H15.0598C14.6562 14.6255 13.5363 15.5196 12.1226 15.5196C10.1719 15.5196 8.80477 14.0222 8.80477 12.0115C8.8057 9.97781 10.1508 8.48039 12.1008 8.48039Z"
      fill="white"/>
  </g>
  <defs>
    <clipPath id="clip0_51857_41456">
      <rect width="24" height="24" fill="white"/>
    </clipPath>
  </defs>
</svg>
