<svg width="24" height="24" viewBox="0 0 24 24" fill="none" xmlns="http://www.w3.org/2000/svg">
  <g clip-path="url(#clip0_53469_95673)">
    <path
      d="M4.78947 22C4.29737 22 3.87625 21.8221 3.52611 21.4664C3.17537 21.11 3 20.6818 3 20.1818V7.45455H4.78947V20.1818H14.6316V22H4.78947ZM8.36842 18.3636C7.87632 18.3636 7.45519 18.1858 7.10505 17.83C6.75432 17.4736 6.57895 17.0455 6.57895 16.5455V3.81818C6.57895 3.31818 6.75432 2.89 7.10505 2.53364C7.45519 2.17788 7.87632 2 8.36842 2H14.6316L20 7.45455V16.5455C20 17.0455 19.8249 17.4736 19.4748 17.83C19.1241 18.1858 18.7026 18.3636 18.2105 18.3636H8.36842ZM13.7368 8.36364H18.2105L13.7368 3.81818V8.36364Z"
      fill="currentColor"/>
  </g>
  <defs>
    <clipPath id="clip0_53469_95673">
      <rect width="24" height="24" fill="white"/>
    </clipPath>
  </defs>
</svg>
