<svg width="24" height="24" viewBox="0 0 24 24" fill="none" xmlns="http://www.w3.org/2000/svg">
  <g clip-path="url(#clip0_53171_93934)">
    <path
      d="M14 2C15.8299 1.99913 17.6049 2.62567 19.0288 3.77513C20.4527 4.92458 21.4395 6.52748 21.8246 8.31647C22.2097 10.1055 21.9699 11.9724 21.145 13.6059C20.3202 15.2395 18.9602 16.5408 17.292 17.293C16.7587 18.4719 15.9475 19.5039 14.9278 20.3004C13.9082 21.097 12.7105 21.6343 11.4376 21.8663C10.1647 22.0984 8.85446 22.0182 7.61933 21.6327C6.3842 21.2472 5.261 20.5678 4.34608 19.6529C3.43115 18.738 2.7518 17.6148 2.36628 16.3796C1.98076 15.1445 1.90058 13.8343 2.13262 12.5614C2.36466 11.2884 2.90199 10.0908 3.69854 9.07114C4.49508 8.05148 5.52705 7.24024 6.70596 6.707C7.34011 5.30389 8.36555 4.1135 9.65931 3.27861C10.9531 2.44371 12.4602 1.99976 14 2ZM11 9H8.99996V10C8.35008 9.99842 7.72512 10.25 7.25755 10.7013C6.78998 11.1527 6.51655 11.7684 6.49523 12.418C6.4739 13.0675 6.70635 13.6998 7.14331 14.1809C7.58026 14.6619 8.18737 14.9539 8.83596 14.995L8.99996 15H11L11.09 15.008C11.2052 15.0289 11.3095 15.0896 11.3846 15.1795C11.4597 15.2694 11.5009 15.3828 11.5009 15.5C11.5009 15.6172 11.4597 15.7306 11.3846 15.8205C11.3095 15.9104 11.2052 15.9711 11.09 15.992L11 16H6.99996V18H8.99996V19H11V18C11.6498 18.0016 12.2748 17.75 12.7424 17.2987C13.2099 16.8473 13.4834 16.2316 13.5047 15.582C13.526 14.9325 13.2936 14.3002 12.8566 13.8191C12.4197 13.3381 11.8126 13.0461 11.164 13.005L11 13H8.99996L8.90996 12.992C8.79468 12.9711 8.69039 12.9104 8.61529 12.8205C8.54019 12.7306 8.49905 12.6172 8.49905 12.5C8.49905 12.3828 8.54019 12.2694 8.61529 12.1795C8.69039 12.0896 8.79468 12.0289 8.90996 12.008L8.99996 12H13V10H11V9ZM14 4C13.1526 3.99901 12.3148 4.17794 11.5418 4.52496C10.7688 4.87198 10.0783 5.37918 9.51596 6.013C10.6462 5.94439 11.7782 6.1165 12.837 6.51795C13.8958 6.9194 14.8573 7.54105 15.6579 8.34178C16.4586 9.14252 17.0801 10.1041 17.4814 11.1629C17.8827 12.2218 18.0547 13.3537 17.986 14.484C18.8952 13.6756 19.5372 12.6099 19.8268 11.4283C20.1164 10.2467 20.04 9.00492 19.6076 7.86772C19.1752 6.73053 18.4074 5.75164 17.4059 5.06088C16.4044 4.37013 15.2166 4.00014 14 4Z"
      fill="currentColor"/>
  </g>
  <defs>
    <clipPath id="clip0_53171_93934">
      <rect width="24" height="24" fill="white"/>
    </clipPath>
  </defs>
</svg>
