<svg width="24" height="24" viewBox="0 0 24 24" fill="none" xmlns="http://www.w3.org/2000/svg">
  <g id="type=warning" clip-path="url(#clip0_55634_97781)">
    <path id="Vector"
          d="M21.701 18.3835L13.5026 4.14569C13.2977 3.79687 13.0052 3.50764 12.6541 3.30668C12.303 3.10572 11.9055 3 11.501 3C11.0965 3 10.699 3.10572 10.3479 3.30668C9.99679 3.50764 9.70431 3.79687 9.49944 4.14569L1.30101 18.3835C1.10388 18.7209 1 19.1046 1 19.4954C1 19.8861 1.10388 20.2699 1.30101 20.6072C1.50325 20.9582 1.79523 21.249 2.14697 21.4498C2.49871 21.6506 2.89755 21.7543 3.30257 21.7501H19.6994C20.1041 21.7539 20.5026 21.6501 20.854 21.4493C21.2054 21.2485 21.497 20.9579 21.6991 20.6072C21.8965 20.27 22.0007 19.8864 22.0011 19.4956C22.0014 19.1049 21.8978 18.7211 21.701 18.3835ZM10.751 10.5001C10.751 10.3011 10.83 10.1104 10.9707 9.96973C11.1113 9.82908 11.3021 9.75006 11.501 9.75006C11.6999 9.75006 11.8907 9.82908 12.0313 9.96973C12.172 10.1104 12.251 10.3011 12.251 10.5001V14.2501C12.251 14.449 12.172 14.6397 12.0313 14.7804C11.8907 14.921 11.6999 15.0001 11.501 15.0001C11.3021 15.0001 11.1113 14.921 10.9707 14.7804C10.83 14.6397 10.751 14.449 10.751 14.2501V10.5001ZM11.501 18.7501C11.2785 18.7501 11.061 18.6841 10.876 18.5605C10.691 18.4368 10.5468 18.2611 10.4616 18.0556C10.3765 17.85 10.3542 17.6238 10.3976 17.4056C10.441 17.1874 10.5482 16.9869 10.7055 16.8296C10.8628 16.6722 11.0633 16.5651 11.2815 16.5217C11.4998 16.4783 11.726 16.5005 11.9315 16.5857C12.1371 16.6708 12.3128 16.815 12.4364 17C12.56 17.1851 12.626 17.4026 12.626 17.6251C12.626 17.9234 12.5075 18.2096 12.2965 18.4206C12.0855 18.6315 11.7994 18.7501 11.501 18.7501Z"
          fill="currentColor"/>
  </g>
  <defs>
    <clipPath id="clip0_55634_97781">
      <rect width="24" height="24" fill="white"/>
    </clipPath>
  </defs>
</svg>
