<svg width="24" height="24" viewBox="0 0 24 24" fill="none" xmlns="http://www.w3.org/2000/svg">
  <g clip-path="url(#clip0_54569_100384)">
    <g clip-path="url(#clip1_54569_100384)">
      <g clip-path="url(#clip2_54569_100384)">
        <path
          d="M12.753 13.4562C16.4629 13.4562 19.4811 10.438 19.4811 6.72811C19.4811 3.01823 16.4629 0 12.753 0C9.04309 0 6.0249 3.01823 6.0249 6.72811C6.0249 10.438 9.04314 13.4562 12.753 13.4562ZM12.0499 3.79533V3.71564C12.0499 3.32733 12.3647 3.01252 12.753 3.01252C13.1413 3.01252 13.4561 3.32733 13.4561 3.71564V3.76561H13.5062C13.8945 3.76561 14.2093 4.08042 14.2093 4.46873C14.2093 4.85705 13.8945 5.17186 13.5062 5.17186H12.3764C12.1412 5.17186 11.9499 5.3632 11.9499 5.59847C11.9499 5.83369 12.1412 6.02503 12.3764 6.02503H13.1296C14.1403 6.02503 14.9625 6.84722 14.9625 7.85789C14.9625 8.757 14.3115 9.50644 13.4562 9.66098V9.74067C13.4562 10.129 13.1414 10.4438 12.7531 10.4438C12.3647 10.4438 12.0499 10.129 12.0499 9.74067V9.6907H11.9999C11.6116 9.6907 11.2968 9.37589 11.2968 8.98758C11.2968 8.59927 11.6116 8.28445 11.9999 8.28445H13.1296C13.3649 8.28445 13.5562 8.09311 13.5562 7.85789C13.5562 7.62262 13.3649 7.43128 13.1296 7.43128H12.3765C11.3659 7.43128 10.5437 6.60909 10.5437 5.59847C10.5437 4.69931 11.1947 3.94988 12.0499 3.79533Z"
          fill="currentColor"/>
        <path
          d="M22.1049 4.34458L23.6111 3.59144C23.9585 3.41781 24.0993 2.99547 23.9256 2.64812C23.7519 2.30078 23.3297 2.16002 22.9823 2.33364L21.476 3.08678C21.1286 3.26041 20.9879 3.68275 21.1616 4.03009C21.3359 4.37875 21.7589 4.51745 22.1049 4.34458Z"
          fill="currentColor"/>
        <path
          d="M23.6111 9.8648L22.1049 9.11165C21.7577 8.93817 21.3352 9.0788 21.1616 9.42614C20.9879 9.77348 21.1286 10.1958 21.476 10.3695L22.9823 11.1226C23.3291 11.2959 23.7517 11.1559 23.9256 10.8081C24.0993 10.4608 23.9585 10.0384 23.6111 9.8648Z"
          fill="currentColor"/>
        <path
          d="M4.03033 3.08683L2.52405 2.33364C2.17666 2.16002 1.75441 2.30078 1.58074 2.64812C1.40707 2.99547 1.54783 3.41781 1.89518 3.59144L3.40146 4.34458C3.74744 4.5175 4.17044 4.3788 4.34477 4.03009C4.51844 3.68275 4.37768 3.26045 4.03033 3.08683Z"
          fill="currentColor"/>
        <path
          d="M3.40146 9.11165L1.89518 9.8648C1.54783 10.0384 1.40707 10.4608 1.58074 10.8081C1.75465 11.1559 2.17718 11.2959 2.52405 11.1226L4.03033 10.3695C4.37768 10.1958 4.51844 9.77348 4.34477 9.42614C4.1711 9.0788 3.74862 8.93817 3.40146 9.11165Z"
          fill="currentColor"/>
        <path
          d="M19.0239 15.4333L15.6232 18.8341C15.2054 19.2515 14.6508 19.4811 14.0613 19.4811H11.5095C11.1309 19.4811 10.8051 19.1902 10.7873 18.812C10.7683 18.4082 11.09 18.0749 11.4896 18.0749H13.7666C14.5985 18.0749 15.2729 17.4005 15.2729 16.5686C15.2729 15.7368 14.5985 15.0624 13.7666 15.0624H9.18077C7.04772 15.0624 6.37188 16.8592 6.25984 17.3218H5.17188V22.4936H14.8677C15.742 22.4936 16.5642 22.1531 17.183 21.5345L22.2878 16.4295C22.555 16.1624 22.5712 15.7178 22.2844 15.4317C21.3496 14.4993 19.8986 14.5586 19.0239 15.4333Z"
          fill="currentColor"/>
        <path
          d="M3.06253 15.8157H0.703125C0.314812 15.8157 0 16.1305 0 16.5188V23.2969C0 23.6852 0.314812 24 0.703125 24H3.06248C3.4508 24 3.76561 23.6852 3.76561 23.2969V16.5188C3.76566 16.1305 3.45084 15.8157 3.06253 15.8157Z"
          fill="currentColor"/>
      </g>
    </g>
  </g>
  <defs>
    <clipPath id="clip0_54569_100384">
      <rect width="24" height="24" fill="white"/>
    </clipPath>
    <clipPath id="clip1_54569_100384">
      <rect width="24" height="24" fill="white"/>
    </clipPath>
    <clipPath id="clip2_54569_100384">
      <rect width="24" height="24" fill="white"/>
    </clipPath>
  </defs>
</svg>
