<svg width="24" height="24" viewBox="0 0 24 24" fill="none" xmlns="http://www.w3.org/2000/svg">
  <g clip-path="url(#clip0_53602_101139)">
    <path
      d="M4 21C3.71667 21 3.479 20.904 3.287 20.712C3.095 20.52 2.99934 20.2827 3 20C3 19.7167 3.096 19.479 3.288 19.287C3.48 19.095 3.71734 18.9993 4 19H14C14.2833 19 14.521 19.096 14.713 19.288C14.905 19.48 15.0007 19.7173 15 20C15 20.2833 14.904 20.521 14.712 20.713C14.52 20.905 14.2827 21.0007 14 21H4ZM16 14C14.6167 14 13.4373 13.5123 12.462 12.537C11.4867 11.5617 10.9993 10.3827 11 9C11 7.61667 11.4877 6.43733 12.463 5.462C13.4383 4.48667 14.6173 3.99933 16 4C17.3833 4 18.5627 4.48767 19.538 5.463C20.5133 6.43833 21.0007 7.61733 21 9C21 10.3833 20.5123 11.5627 19.537 12.538C18.5617 13.5133 17.3827 14.0007 16 14ZM4 13C3.71667 13 3.479 12.904 3.287 12.712C3.095 12.52 2.99934 12.2827 3 12C3 11.7167 3.096 11.479 3.288 11.287C3.48 11.095 3.71734 10.9993 4 11H9.3C9.41667 11.3667 9.55 11.7167 9.7 12.05C9.85 12.3833 10.0333 12.7 10.25 13H4ZM4 17C3.71667 17 3.479 16.904 3.287 16.712C3.095 16.52 2.99934 16.2827 3 16C3 15.7167 3.096 15.479 3.288 15.287C3.48 15.095 3.71734 14.9993 4 15H12.4C12.7833 15.2333 13.1917 15.4293 13.625 15.588C14.0583 15.7467 14.5167 15.859 15 15.925V16C15 16.2833 14.904 16.521 14.712 16.713C14.52 16.905 14.2827 17.0007 14 17H4ZM16 12C16.1333 12 16.25 11.95 16.35 11.85C16.45 11.75 16.5 11.6333 16.5 11.5V8.5C16.5 8.36667 16.45 8.25 16.35 8.15C16.25 8.05 16.1333 8 16 8C15.8667 8 15.75 8.05 15.65 8.15C15.55 8.25 15.5 8.36667 15.5 8.5V11.5C15.5 11.6333 15.55 11.75 15.65 11.85C15.75 11.95 15.8667 12 16 12ZM16 7C16.1333 7 16.25 6.95 16.35 6.85C16.45 6.75 16.5 6.63333 16.5 6.5C16.5 6.36667 16.45 6.25 16.35 6.15C16.25 6.05 16.1333 6 16 6C15.8667 6 15.75 6.05 15.65 6.15C15.55 6.25 15.5 6.36667 15.5 6.5C15.5 6.63333 15.55 6.75 15.65 6.85C15.75 6.95 15.8667 7 16 7Z"
      fill="currentColor"/>
  </g>
  <defs>
    <clipPath id="clip0_53602_101139">
      <rect width="24" height="24" fill="white"/>
    </clipPath>
  </defs>
</svg>
