<svg width="24" height="24" viewBox="0 0 24 24" fill="none" xmlns="http://www.w3.org/2000/svg">
  <g clip-path="url(#clip0_53602_101123)">
    <path
      d="M17.2383 9.55546L20.3818 12.6989C20.8919 13.2022 21.2974 13.8015 21.5749 14.4621C21.8525 15.1228 21.9966 15.8318 21.999 16.5484C22.0014 17.265 21.862 17.975 21.5889 18.6375C21.3158 19.3 20.9143 19.9019 20.4076 20.4086C19.9009 20.9153 19.299 21.3168 18.6365 21.5899C17.974 21.863 17.264 22.0024 16.5474 22C15.8308 21.9976 15.1218 21.8534 14.4611 21.5759C13.8005 21.2983 13.2012 20.8929 12.6979 20.3828L11.6508 19.3356C11.5092 19.199 11.3962 19.0355 11.3185 18.8548C11.2407 18.674 11.1998 18.4796 11.198 18.2828C11.1962 18.0861 11.2336 17.8909 11.308 17.7088C11.3824 17.5266 11.4924 17.3611 11.6314 17.2219C11.7705 17.0827 11.9359 16.9726 12.118 16.898C12.3 16.8234 12.4951 16.7858 12.6919 16.7875C12.8887 16.7891 13.0831 16.8299 13.264 16.9074C13.4448 16.985 13.6083 17.0978 13.7451 17.2393L14.7943 18.2874C15.2582 18.7472 15.8853 19.0045 16.5385 19.0029C17.1916 19.0014 17.8175 18.7412 18.2793 18.2793C18.7411 17.8174 19.0011 17.1914 19.0024 16.5383C19.0038 15.8851 18.7463 15.258 18.2865 14.7943L15.143 11.6508C14.8032 11.3109 14.3717 11.0775 13.9012 10.9792C13.4308 10.8809 12.9419 10.9221 12.4944 11.0976C12.3344 11.1608 12.1862 11.226 12.0459 11.2912L11.5876 11.5056C10.9751 11.7822 10.5038 11.9007 9.90419 11.3021C9.04274 10.4406 9.26601 9.64536 10.3161 8.92123C11.3624 8.20179 12.6274 7.87132 13.8919 7.98717C15.1563 8.10302 16.3402 8.65788 17.2383 9.55546ZM11.3011 3.61822L12.3482 4.66539C12.6183 4.94474 12.7678 5.31899 12.7646 5.70752C12.7615 6.09606 12.6058 6.4678 12.3312 6.74268C12.0566 7.01755 11.685 7.17357 11.2964 7.17713C10.9079 7.18069 10.5335 7.0315 10.2539 6.7617L9.20575 5.71453C8.97799 5.47859 8.70552 5.29036 8.40424 5.16084C8.10296 5.03132 7.7789 4.9631 7.45097 4.96015C7.12304 4.95721 6.79781 5.01961 6.49426 5.1437C6.1907 5.2678 5.9149 5.4511 5.68295 5.68293C5.45099 5.91475 5.26753 6.19045 5.14326 6.49394C5.019 6.79742 4.95641 7.12262 4.95917 7.45055C4.96193 7.77847 5.02997 8.10257 5.15932 8.40393C5.28867 8.70528 5.47674 8.97785 5.71256 9.20575L8.85603 12.3492C9.19579 12.6891 9.62735 12.9225 10.0978 13.0208C10.5683 13.1191 11.0572 13.0779 11.5046 12.9024C11.6646 12.8392 11.8128 12.774 11.9531 12.7088L12.4115 12.4944C13.024 12.2178 13.4962 12.0993 14.0948 12.6979C14.9563 13.5594 14.733 14.3546 13.6829 15.0788C12.6367 15.7982 11.3716 16.1287 10.1072 16.0128C8.84274 15.897 7.65877 15.3421 6.76071 14.4445L3.61724 11.3011C3.10715 10.7978 2.70166 10.1985 2.42411 9.53788C2.14656 8.87723 2.00243 8.1682 2.00003 7.45161C1.99763 6.73503 2.137 6.02504 2.41012 5.36254C2.68324 4.70004 3.0847 4.09811 3.59141 3.59141C4.09811 3.0847 4.70005 2.68324 5.36255 2.41012C6.02505 2.137 6.73503 1.99763 7.45161 2.00003C8.1682 2.00243 8.87723 2.14656 9.53788 2.42411C10.1985 2.70166 10.7978 3.10814 11.3011 3.61822Z"
      fill="currentColor"/>
  </g>
  <defs>
    <clipPath id="clip0_53602_101123">
      <rect width="24" height="24" fill="white"/>
    </clipPath>
  </defs>
</svg>
