<svg width="24" height="24" viewBox="0 0 24 24" fill="none" xmlns="http://www.w3.org/2000/svg">
  <g clip-path="url(#clip0_53746_101202)">
    <g clip-path="url(#clip1_53746_101202)">
      <path
        d="M19.2726 4H13.4545C13.0528 4 12.7272 4.32563 12.7272 4.72728C12.7272 5.12894 13.0528 5.45456 13.4545 5.45456H17.5169L10.0311 12.9403C9.74711 13.2243 9.74711 13.6848 10.0311 13.9688C10.1731 14.1108 10.3592 14.1818 10.5454 14.1818C10.7315 14.1818 10.9176 14.1108 11.0596 13.9688L18.5454 6.48306V10.5455C18.5454 10.9471 18.871 11.2727 19.2727 11.2727C19.6743 11.2727 20 10.9471 20 10.5455V4.72728C19.9999 4.32563 19.6743 4 19.2726 4Z"
        fill="currentColor"/>
      <path
        d="M16.3636 11.2728C15.962 11.2728 15.6363 11.5984 15.6363 12.0001V18.5456H5.45453V8.36371H12C12.4017 8.36371 12.7273 8.03809 12.7273 7.63643C12.7273 7.23477 12.4017 6.90918 12 6.90918H4.72728C4.32563 6.90918 4 7.2348 4 7.63646V19.2728C4 19.6745 4.32563 20.0001 4.72728 20.0001H16.3637C16.7653 20.0001 17.0909 19.6745 17.0909 19.2728V12.0001C17.0909 11.5984 16.7653 11.2728 16.3636 11.2728Z"
        fill="currentColor"/>
    </g>
  </g>
  <defs>
    <clipPath id="clip0_53746_101202">
      <rect width="24" height="24" fill="white"/>
    </clipPath>
    <clipPath id="clip1_53746_101202">
      <rect width="16" height="16" fill="white" transform="translate(4 4)"/>
    </clipPath>
  </defs>
</svg>
