<svg width="24" height="24" viewBox="0 0 24 24" fill="none" xmlns="http://www.w3.org/2000/svg">
  <path d="M21.3365 16.0696L20.0642 20.3716L17.5664 19.6885L21.3365 16.0696Z" fill="#E4761B" stroke="#E4761B"
        stroke-width="0.0521454"/>
  <path d="M17.5664 19.6885L19.9755 16.3877L21.3365 16.0696L17.5664 19.6885Z" fill="#E4761B" stroke="#E4761B"
        stroke-width="0.0521454"/>
  <path
    d="M19.4644 12.8261L21.3364 16.0696L19.9754 16.3877L19.4644 12.8261ZM19.4644 12.8261L20.6689 11.9918L21.3364 16.0696L19.4644 12.8261Z"
    fill="#F6851B" stroke="#F6851B" stroke-width="0.0521454"/>
  <path
    d="M17.9314 10.3751L21.3938 8.95679L21.2218 9.73375L17.9314 10.3751ZM21.1123 10.6672L17.9314 10.3751L21.2218 9.73375L21.1123 10.6672Z"
    fill="#763D16" stroke="#763D16" stroke-width="0.0521454"/>
  <path
    d="M21.1123 10.6672L20.669 11.9916L17.9314 10.3751L21.1123 10.6672ZM21.8058 9.2853L21.2218 9.73375L21.3938 8.95679L21.8058 9.2853ZM21.1123 10.6672L21.2218 9.73375L21.6859 10.1196L21.1123 10.6672Z"
    fill="#763D16" stroke="#763D16" stroke-width="0.0521454"/>
  <path d="M14.8806 18.6404L15.7462 18.9168L17.5661 19.6885L14.8806 18.6404Z" fill="#E2761B" stroke="#E2761B"
        stroke-width="0.0521454"/>
  <path
    d="M20.6687 11.9919L21.112 10.6674L21.4926 10.9594L20.6687 11.9919ZM20.6687 11.9919L17.0759 10.8082L17.9311 10.3754L20.6687 11.9919Z"
    fill="#763D16" stroke="#763D16" stroke-width="0.0521454"/>
  <path d="M18.7863 6.31323L17.9311 10.3754L17.0759 10.8082L18.7863 6.31323Z" fill="#763D16" stroke="#763D16"
        stroke-width="0.0521454"/>
  <path d="M21.3938 8.957L17.9314 10.3754L18.7866 6.31323L21.3938 8.957Z" fill="#763D16" stroke="#763D16"
        stroke-width="0.0521454"/>
  <path d="M18.7864 6.31316L22.4 5.896L21.3936 8.95693L18.7864 6.31316Z" fill="#763D16" stroke="#763D16"
        stroke-width="0.0521454"/>
  <path d="M20.6687 11.9918L19.4642 12.8261L17.0759 10.8081L20.6687 11.9918Z" fill="#F6851B" stroke="#F6851B"
        stroke-width="0.0521454"/>
  <path d="M22.2436 2.9707L22.4 5.89606L18.7864 6.31322L22.2436 2.9707Z" fill="#763D16" stroke="#763D16"
        stroke-width="0.0521454"/>
  <path d="M22.2435 2.9707L15.0214 8.22174L14.9275 4.66021L22.2435 2.9707Z" fill="#E2761B" stroke="#E2761B"
        stroke-width="0.0521454"/>
  <path d="M9.5564 4.23267L14.9274 4.66026L15.0212 8.22178L9.5564 4.23267Z" fill="#F6851B" stroke="#F6851B"
        stroke-width="0.0521454"/>
  <path d="M17.0758 10.8082L15.0212 8.22175L18.7861 6.31323L17.0758 10.8082Z" fill="#763D16" stroke="#763D16"
        stroke-width="0.0521454"/>
  <path d="M17.0763 10.8081L19.4645 12.8261L16.1116 13.1964L17.0763 10.8081Z" fill="#E4761B" stroke="#E4761B"
        stroke-width="0.0521454"/>
  <path d="M16.1111 13.1963L15.0212 8.22168L17.0758 10.8081L16.1111 13.1963Z" fill="#E4761B" stroke="#E4761B"
        stroke-width="0.0521454"/>
  <path d="M18.7861 6.31322L15.0212 8.22174L22.2434 2.9707L18.7861 6.31322Z" fill="#763D16" stroke="#763D16"
        stroke-width="0.0521454"/>
  <path d="M9.6036 19.605L11.3087 21.3831L8.98828 19.2712L9.6036 19.605Z" fill="#C0AD9E" stroke="#C0AD9E"
        stroke-width="0.0521454"/>
  <path d="M17.5664 19.6884L18.3747 16.617L19.9755 16.3876L17.5664 19.6884Z" fill="#CD6116" stroke="#CD6116"
        stroke-width="0.0521454"/>
  <path d="M2.6897 11.048L5.64112 7.94531L3.07036 10.6777L2.6897 11.048Z" fill="#E2761B" stroke="#E2761B"
        stroke-width="0.0521454"/>
  <path
    d="M19.975 16.3877L18.3742 16.6172L19.464 12.8262L19.975 16.3877ZM15.0212 8.22179L12.148 8.12792L9.5564 4.23267L15.0212 8.22179Z"
    fill="#F6851B" stroke="#F6851B" stroke-width="0.0521454"/>
  <path d="M19.4641 12.8262L18.3743 16.6171L18.2856 14.766L19.4641 12.8262Z" fill="#E4751F" stroke="#E4751F"
        stroke-width="0.0521454"/>
  <path d="M16.1116 13.1964L19.4645 12.8262L18.286 14.766L16.1116 13.1964Z" fill="#CD6116" stroke="#CD6116"
        stroke-width="0.0521454"/>
  <path d="M12.1479 8.12793L15.0212 8.22179L16.111 13.1965L12.1479 8.12793Z" fill="#F6851B" stroke="#F6851B"
        stroke-width="0.0521454"/>
  <path
    d="M12.1481 8.12796L4.3941 0.952759L9.55649 4.2327L12.1481 8.12796ZM9.55128 20.695L2.8141 22.7808L1.46875 17.6445L9.55128 20.695Z"
    fill="#E4761B" stroke="#E4761B" stroke-width="0.0521454"/>
  <path d="M3.69092 12.3308L6.23561 10.3336L8.36836 10.829L3.69092 12.3308Z" fill="#763D16" stroke="#763D16"
        stroke-width="0.0521454"/>
  <path d="M8.36761 10.8288L6.23486 10.3334L7.37685 5.61951L8.36761 10.8288Z" fill="#763D16" stroke="#763D16"
        stroke-width="0.0521454"/>
  <path d="M3.07031 10.6778L6.23554 10.3336L3.69084 12.3308L3.07031 10.6778Z" fill="#763D16" stroke="#763D16"
        stroke-width="0.0521454"/>
  <path d="M18.286 14.7659L16.972 14.1036L16.1116 13.1963L18.286 14.7659Z" fill="#CD6116" stroke="#CD6116"
        stroke-width="0.0521454"/>
  <path d="M3.06968 10.6778L2.84546 9.49414L6.23491 10.3337L3.06968 10.6778Z" fill="#763D16" stroke="#763D16"
        stroke-width="0.0521454"/>
  <path d="M16.7009 15.595L16.9721 14.1036L18.2861 14.7659L16.7009 15.595Z" fill="#233447" stroke="#233447"
        stroke-width="0.0521454"/>
  <path d="M18.3748 16.6172L16.7009 15.5951L18.2861 14.766L18.3748 16.6172Z" fill="#F6851B" stroke="#F6851B"
        stroke-width="0.0521454"/>
  <path
    d="M6.23491 10.3334L2.84546 9.49391L2.56909 8.49793L6.23491 10.3334ZM7.37689 5.61951L6.23491 10.3334L2.56909 8.49793L7.37689 5.61951ZM7.37689 5.61951L12.1482 8.1277L8.36765 10.8288L7.37689 5.61951Z"
    fill="#763D16" stroke="#763D16" stroke-width="0.0521454"/>
  <path
    d="M8.36768 10.8291L12.1482 8.12793L13.8325 13.2747L8.36768 10.8291ZM13.8325 13.2747L8.60754 13.1652L8.36768 10.8291L13.8325 13.2747Z"
    fill="#E4761B" stroke="#E4761B" stroke-width="0.0521454"/>
  <path
    d="M3.69092 12.3308L8.36836 10.8291L8.60823 13.1652L3.69092 12.3308ZM16.1119 13.1965L13.8332 13.2747L12.1489 8.12793L16.1119 13.1965Z"
    fill="#F6851B" stroke="#F6851B" stroke-width="0.0521454"/>
  <path d="M16.972 14.1036L16.7008 15.595L16.1116 13.1963L16.972 14.1036Z" fill="#CD6116" stroke="#CD6116"
        stroke-width="0.0521454"/>
  <path d="M4.39453 0.952637L12.1485 8.12784L7.37725 5.61965L4.39453 0.952637Z" fill="#763D16" stroke="#763D16"
        stroke-width="0.0521454"/>
  <path d="M1.46875 17.6443L8.00778 17.3732L9.55128 20.6948L1.46875 17.6443Z" fill="#E4761B" stroke="#E4761B"
        stroke-width="0.0521454"/>
  <path d="M9.55131 20.6949L8.00781 17.3732L11.22 17.2168L9.55131 20.6949Z" fill="#CD6116" stroke="#CD6116"
        stroke-width="0.0521454"/>
  <path
    d="M16.7004 15.595L18.3743 16.617L19.2972 18.7915L16.7004 15.595ZM8.60745 13.165L1.46875 17.6443L3.69014 12.3307L8.60745 13.165ZM8.00778 17.3731L1.46875 17.6443L8.60745 13.165L8.00778 17.3731ZM16.1112 13.1963L16.5388 14.7502L14.4738 14.8702L16.1112 13.1963ZM14.4738 14.8702L13.8324 13.2745L16.1112 13.1963L14.4738 14.8702Z"
    fill="#F6851B" stroke="#F6851B" stroke-width="0.0521454"/>
  <path d="M11.3086 21.3831L9.55127 20.6948L15.6627 21.7221L11.3086 21.3831Z" fill="#C0AD9E" stroke="#C0AD9E"
        stroke-width="0.0521454"/>
  <path d="M3.69089 12.3309L2.6897 11.0481L3.07036 10.6779L3.69089 12.3309Z" fill="#763D16" stroke="#763D16"
        stroke-width="0.0521454"/>
  <path d="M16.3562 20.9608L15.6627 21.7221L9.55127 20.6948L16.3562 20.9608Z" fill="#D7C1B3" stroke="#D7C1B3"
        stroke-width="0.0521454"/>
  <path d="M16.6848 19.094L9.55127 20.6949L11.2199 17.2168L16.6848 19.094Z" fill="#E4761B" stroke="#E4761B"
        stroke-width="0.0521454"/>
  <path d="M9.55127 20.6949L16.6848 19.094L16.3562 20.9608L9.55127 20.6949Z" fill="#D7C1B3" stroke="#D7C1B3"
        stroke-width="0.0521454"/>
  <path
    d="M2.56888 8.49801L2.33423 4.48804L7.37668 5.61959L2.56888 8.49801ZM3.06948 10.6777L2.37594 9.97373L2.84525 9.49399L3.06948 10.6777Z"
    fill="#763D16" stroke="#763D16" stroke-width="0.0521454"/>
  <path d="M12.6646 14.307L13.8326 13.2745L13.6657 15.7984L12.6646 14.307Z" fill="#CD6116" stroke="#CD6116"
        stroke-width="0.0521454"/>
  <path d="M13.8328 13.2745L12.6648 14.307L10.9648 15.1883L13.8328 13.2745Z" fill="#CD6116" stroke="#CD6116"
        stroke-width="0.0521454"/>
  <path d="M19.2978 18.7915L18.9797 18.5568L16.7009 15.595L19.2978 18.7915Z" fill="#F6851B" stroke="#F6851B"
        stroke-width="0.0521454"/>
  <path d="M10.9646 15.1883L8.60767 13.165L13.8326 13.2745L10.9646 15.1883Z" fill="#CD6116" stroke="#CD6116"
        stroke-width="0.0521454"/>
  <path d="M13.6658 15.7984L13.8326 13.2745L14.474 14.8702L13.6658 15.7984Z" fill="#E4751F" stroke="#E4751F"
        stroke-width="0.0521454"/>
  <path d="M2.14673 8.89435L2.56911 8.49805L2.84548 9.49402L2.14673 8.89435Z" fill="#763D16" stroke="#763D16"
        stroke-width="0.0521454"/>
  <path d="M13.666 15.7985L10.9648 15.1884L12.6648 14.3071L13.666 15.7985Z" fill="#233447" stroke="#233447"
        stroke-width="0.0521454"/>
  <path d="M7.37668 5.61965L2.33423 4.48809L4.39397 0.952637L7.37668 5.61965Z" fill="#763D16" stroke="#763D16"
        stroke-width="0.0521454"/>
  <path d="M15.6632 21.7221L15.95 22.5043L11.3091 21.3832L15.6632 21.7221Z" fill="#C0AD9E" stroke="#C0AD9E"
        stroke-width="0.0521454"/>
  <path d="M11.2204 17.2168L10.9648 15.1884L13.666 15.7985L11.2204 17.2168Z" fill="#F6851B" stroke="#F6851B"
        stroke-width="0.0521454"/>
  <path d="M8.60767 13.165L10.9646 15.1883L11.2201 17.2167L8.60767 13.165Z" fill="#E4751F" stroke="#E4751F"
        stroke-width="0.0521454"/>
  <path
    d="M14.4738 14.8702L16.5388 14.7503L18.9792 18.5569L14.4738 14.8702ZM8.60748 13.165L11.22 17.2167L8.00781 17.3732L8.60748 13.165Z"
    fill="#F6851B" stroke="#F6851B" stroke-width="0.0521454"/>
  <path d="M14.474 14.8701L17.0396 18.7758L13.6658 15.7983L14.474 14.8701Z" fill="#E4751F" stroke="#E4751F"
        stroke-width="0.0521454"/>
  <path d="M13.6658 15.7985L17.0396 18.776L16.685 19.094L13.6658 15.7985Z" fill="#F6851B" stroke="#F6851B"
        stroke-width="0.0521454"/>
  <path
    d="M16.6853 19.0939L11.2205 17.2167L13.6661 15.7983L16.6853 19.0939ZM18.9797 18.5568L17.0399 18.7758L14.4743 14.8701L18.9797 18.5568Z"
    fill="#F6851B" stroke="#F6851B" stroke-width="0.0521454"/>
  <path
    d="M19.4903 20.3923L18.656 22.0662L15.9496 22.5042L19.4903 20.3923ZM15.9496 22.5042L15.6628 21.722L16.3564 20.9607L15.9496 22.5042Z"
    fill="#C0AD9E" stroke="#C0AD9E" stroke-width="0.0521454"/>
  <path
    d="M16.3564 20.9607L16.8675 20.7574L15.9497 22.5042L16.3564 20.9607ZM15.9497 22.5042L16.8675 20.7574L19.4904 20.3923L15.9497 22.5042Z"
    fill="#C0AD9E" stroke="#C0AD9E" stroke-width="0.0521454"/>
  <path d="M18.979 18.5569L19.6204 18.948L17.6702 19.1826L18.979 18.5569Z" fill="#161616" stroke="#161616"
        stroke-width="0.0521454"/>
  <path
    d="M17.6705 19.1826L17.0396 18.7759L18.9794 18.5569L17.6705 19.1826ZM17.4463 19.4903L19.8189 19.2035L19.4904 20.3924L17.4463 19.4903Z"
    fill="#161616" stroke="#161616" stroke-width="0.0521454"/>
  <path
    d="M19.4899 20.3925L16.867 20.7575L17.4458 19.4904L19.4899 20.3925ZM16.867 20.7575L16.356 20.9609L16.6845 19.0941L16.867 20.7575ZM16.6845 19.0941L17.0391 18.776L17.67 19.1827L16.6845 19.0941ZM19.6203 18.9481L19.8184 19.2036L17.4458 19.4904L19.6203 18.9481Z"
    fill="#161616" stroke="#161616" stroke-width="0.0521454"/>
  <path
    d="M17.4466 19.4903L17.6708 19.1827L19.6211 18.948L17.4466 19.4903ZM16.6853 19.094L17.4466 19.4903L16.8678 20.7574L16.6853 19.094Z"
    fill="#161616" stroke="#161616" stroke-width="0.0521454"/>
  <path d="M17.6708 19.1826L17.4466 19.4903L16.6853 19.094L17.6708 19.1826Z" fill="#161616" stroke="#161616"
        stroke-width="0.0521454"/>
</svg>
