<svg width="24" height="24" viewBox="0 0 24 24" fill="none" xmlns="http://www.w3.org/2000/svg">
  <g clip-path="url(#clip0_54569_100448)">
    <g clip-path="url(#clip1_54569_100448)">
      <path
        d="M14.8065 7.31008C14.744 7.33308 14.6815 7.35858 14.619 7.37908C14.702 7.67408 15.2695 9.55008 16.6855 10.9641C16.882 11.1596 16.882 11.4756 16.6865 11.6711C16.589 11.7691 16.4605 11.8181 16.3325 11.8181C16.2045 11.8181 16.076 11.7691 15.9795 11.6721C15.132 10.8266 14.5595 9.85358 14.1935 9.06808C14.0015 9.56108 13.732 10.1021 13.3575 10.5786C13.187 10.7961 12.8725 10.8346 12.6565 10.6631C12.439 10.4926 12.401 10.1781 12.5715 9.96158C13.1995 9.16208 13.48 8.10558 13.582 7.63358C13.094 7.71708 12.612 7.75408 12.148 7.75408C10.915 7.75408 9.82098 7.51208 9.12248 7.31058C6.43748 9.48758 3.18248 14.7321 3.20298 19.1151C3.21398 21.4686 4.49148 24.0011 7.27048 24.0011H16.661H16.6755C18.8945 23.9341 20.82 21.6476 20.7965 19.1081C20.757 14.7191 17.4815 9.48158 14.8065 7.31008ZM12 16.4156C13.259 16.4156 14.283 17.2871 14.283 18.3591C14.283 19.2846 13.5185 20.0571 12.5 20.2516V20.8411C12.5 21.1176 12.2765 21.3411 12 21.3411C11.7235 21.3411 11.5 21.1176 11.5 20.8411V20.2516C10.481 20.0566 9.71598 19.2831 9.71598 18.3591C9.71598 18.0826 9.93998 17.8591 10.216 17.8591C10.492 17.8591 10.716 18.0826 10.716 18.3591C10.716 18.8701 11.304 19.3021 12 19.3021C12.6955 19.3021 13.283 18.8711 13.283 18.3591C13.283 17.8481 12.696 17.4156 12 17.4156C10.7405 17.4156 9.71598 16.5441 9.71598 15.4716C9.71598 14.5466 10.481 13.7736 11.5 13.5796V13.0626C11.5 12.7861 11.724 12.5626 12 12.5626C12.276 12.5626 12.5 12.7861 12.5 13.0626V13.5796C13.5185 13.7746 14.283 14.5476 14.283 15.4716C14.283 15.7486 14.0595 15.9716 13.783 15.9716C13.5065 15.9716 13.283 15.7486 13.283 15.4716C13.283 14.9826 12.742 14.5241 11.997 14.5241C11.252 14.5241 10.7155 14.9831 10.7155 15.4716C10.716 15.9836 11.304 16.4156 12 16.4156ZM8.91098 6.19308C7.66798 4.88708 6.47448 3.01608 6.49398 1.98458C6.51598 1.52008 6.59348 1.03458 7.00448 0.84608C7.43998 0.64658 7.84048 0.958579 8.19248 1.23258C8.42348 1.41258 8.77298 1.68058 8.94898 1.64608C9.05148 1.62258 9.18648 1.46308 9.58548 0.88458C9.98498 0.30558 10.471 -0.0359205 10.9705 0.00157949C11.5775 0.0460795 11.8915 0.62258 12.1955 1.18058C12.4335 1.59008 12.6435 1.96008 12.9415 2.25358C13.021 2.18608 13.1495 2.03008 13.2395 1.92008C13.7305 1.32208 14.645 0.207579 16.5705 0.978079C16.761 1.05358 16.885 1.23808 16.885 1.44258C16.885 2.81458 15.8955 4.85658 14.8305 6.22108C12.454 7.27358 9.66648 6.45358 8.91098 6.19308Z"
        fill="currentColor"/>
    </g>
  </g>
  <defs>
    <clipPath id="clip0_54569_100448">
      <rect width="24" height="24" fill="white"/>
    </clipPath>
    <clipPath id="clip1_54569_100448">
      <rect width="24" height="24" fill="white"/>
    </clipPath>
  </defs>
</svg>
