<svg width="24" height="24" viewBox="0 0 24 24" fill="none" xmlns="http://www.w3.org/2000/svg">
  <g clip-path="url(#clip0_52077_54817)">
    <g clip-path="url(#clip1_52077_54817)">
      <path
        d="M12 12.625C11.2583 12.625 10.5333 12.4051 9.91661 11.993C9.29993 11.581 8.81928 10.9953 8.53545 10.3101C8.25162 9.62484 8.17736 8.87084 8.32206 8.14341C8.46675 7.41598 8.8239 6.7478 9.34835 6.22335C9.8728 5.6989 10.541 5.34175 11.2684 5.19706C11.9958 5.05236 12.7498 5.12662 13.4351 5.41045C14.1203 5.69428 14.706 6.17493 15.118 6.79161C15.5301 7.4083 15.75 8.13332 15.75 8.875C15.75 9.86956 15.3549 10.8234 14.6517 11.5267C13.9484 12.2299 12.9946 12.625 12 12.625ZM12 6.375C11.5055 6.375 11.0222 6.52162 10.6111 6.79633C10.2 7.07103 9.87952 7.46148 9.6903 7.91829C9.50108 8.37511 9.45158 8.87777 9.54804 9.36273C9.6445 9.84768 9.8826 10.2931 10.2322 10.6428C10.5819 10.9924 11.0273 11.2305 11.5123 11.327C11.9972 11.4234 12.4999 11.3739 12.9567 11.1847C13.4135 10.9955 13.804 10.675 14.0787 10.2639C14.3534 9.8528 14.5 9.36945 14.5 8.875C14.5 8.21196 14.2366 7.57608 13.7678 7.10723C13.2989 6.63839 12.663 6.375 12 6.375Z"
        fill="currentColor"/>
      <path
        d="M11.9999 21.375C10.6139 21.374 9.2454 21.0658 7.99284 20.4725C6.74028 19.8792 5.63486 19.0155 4.75615 17.9437L4.43115 17.5437L4.75615 17.15C5.6356 16.0795 6.74135 15.2173 7.99387 14.6253C9.24639 14.0334 10.6145 13.7263 11.9999 13.7263C13.3853 13.7263 14.7534 14.0334 16.0059 14.6253C17.2585 15.2173 18.3642 16.0795 19.2437 17.15L19.5687 17.5437L19.2437 17.9437C18.3649 19.0155 17.2595 19.8792 16.007 20.4725C14.7544 21.0658 13.3859 21.374 11.9999 21.375ZM6.06865 17.55C6.8288 18.3637 7.74811 19.0125 8.76951 19.4561C9.7909 19.8997 10.8926 20.1286 12.0062 20.1286C13.1197 20.1286 14.2214 19.8997 15.2428 19.4561C16.2642 19.0125 17.1835 18.3637 17.9437 17.55C17.1835 16.7362 16.2642 16.0874 15.2428 15.6438C14.2214 15.2002 13.1197 14.9713 12.0062 14.9713C10.8926 14.9713 9.7909 15.2002 8.76951 15.6438C7.74811 16.0874 6.8288 16.7362 6.06865 17.55Z"
        fill="currentColor"/>
      <path
        d="M11.9999 21.375C9.87038 21.3764 7.80381 20.6528 6.14034 19.3232C4.47687 17.9936 3.31563 16.1373 2.84774 14.0598C2.37986 11.9823 2.63321 9.80743 3.56609 7.8931C4.49898 5.97877 6.05581 4.43909 7.98035 3.52747C9.90489 2.61584 12.0825 2.3866 14.1546 2.87747C16.2268 3.36834 18.0702 4.55007 19.3812 6.22816C20.6923 7.90625 21.393 9.98071 21.368 12.1101C21.343 14.2395 20.5938 16.2969 19.2437 17.9438C18.365 19.0156 17.2595 19.8792 16.007 20.4725C14.7544 21.0659 13.3859 21.3741 11.9999 21.375ZM11.9999 3.87501C10.3929 3.87501 8.82205 4.35153 7.4859 5.24432C6.14975 6.1371 5.10835 7.40605 4.49339 8.8907C3.87843 10.3754 3.71753 12.009 4.03103 13.5851C4.34454 15.1612 5.11837 16.6089 6.25467 17.7452C7.39097 18.8815 8.83871 19.6554 10.4148 19.9689C11.9909 20.2824 13.6246 20.1215 15.1092 19.5065C16.5939 18.8916 17.8628 17.8502 18.7556 16.514C19.6484 15.1779 20.1249 13.607 20.1249 12C20.1249 9.84512 19.2689 7.7785 17.7452 6.25476C16.2214 4.73103 14.1548 3.87501 11.9999 3.87501Z"
        fill="currentColor"/>
      <path
        d="M5.2373 17.5501C5.2373 17.5501 11.5311 24.5813 17.9373 18.2501L18.7623 17.5501C18.7623 17.5501 13.4123 12.0001 7.98105 15.3313L5.2373 17.5501Z"
        fill="currentColor"/>
      <path
        d="M12 12C13.7259 12 15.125 10.6009 15.125 8.875C15.125 7.14911 13.7259 5.75 12 5.75C10.2741 5.75 8.875 7.14911 8.875 8.875C8.875 10.6009 10.2741 12 12 12Z"
        fill="currentColor"/>
    </g>
  </g>
  <defs>
    <clipPath id="clip0_52077_54817">
      <rect width="24" height="24" fill="white"/>
    </clipPath>
    <clipPath id="clip1_52077_54817">
      <rect width="20" height="20" fill="white" transform="translate(2 2)"/>
    </clipPath>
  </defs>
</svg>
