<svg width="24" height="24" viewBox="0 0 24 24" fill="none" xmlns="http://www.w3.org/2000/svg">
  <g clip-path="url(#clip0_53893_107252)">
    <circle cx="12" cy="12" r="12" fill="#8247E5"/>
    <g clip-path="url(#clip1_53893_107252)">
      <path
        d="M15.9812 9.4191C15.6968 9.26149 15.3312 9.26149 15.0062 9.4191L12.7312 10.7194L11.1875 11.5469L8.95308 12.8472C8.6687 13.0048 8.30308 13.0048 7.97808 12.8472L6.2312 11.8227C5.94683 11.6651 5.7437 11.3499 5.7437 10.9952V9.02507C5.7437 8.70985 5.9062 8.39463 6.2312 8.19761L7.97808 7.21254C8.26245 7.05492 8.62808 7.05492 8.95308 7.21254L10.7 8.23701C10.9843 8.39463 11.1875 8.70985 11.1875 9.06448V10.3648L12.7312 9.49791V8.15821C12.7312 7.84298 12.5687 7.52776 12.2437 7.33075L8.9937 5.4788C8.70933 5.32119 8.3437 5.32119 8.0187 5.4788L4.68745 7.37015C4.36245 7.52776 4.19995 7.84298 4.19995 8.15821V11.8621C4.19995 12.1773 4.36245 12.4925 4.68745 12.6896L7.97808 14.5415C8.26245 14.6991 8.62808 14.6991 8.95308 14.5415L11.1875 13.2806L12.7312 12.4137L14.9656 11.1528C15.25 10.9952 15.6156 10.9952 15.9406 11.1528L17.6875 12.1379C17.9718 12.2955 18.175 12.6107 18.175 12.9654V14.9355C18.175 15.2507 18.0125 15.566 17.6875 15.763L15.9812 16.7481C15.6968 16.9057 15.3312 16.9057 15.0062 16.7481L13.2593 15.763C12.9749 15.6054 12.7718 15.2901 12.7718 14.9355V13.6746L11.2281 14.5415V15.8418C11.2281 16.157 11.3906 16.4722 11.7156 16.6693L15.0062 18.5212C15.2906 18.6788 15.6562 18.6788 15.9812 18.5212L19.2718 16.6693C19.5562 16.5116 19.7593 16.1964 19.7593 15.8418V12.0985C19.7593 11.7833 19.5968 11.4681 19.2718 11.271L15.9812 9.4191Z"
        fill="white"/>
    </g>
  </g>
  <defs>
    <clipPath id="clip0_53893_107252">
      <rect width="24" height="24" fill="white"/>
    </clipPath>
    <clipPath id="clip1_53893_107252">
      <rect width="15.6" height="13.2" fill="white" transform="translate(4.19995 5.3999)"/>
    </clipPath>
  </defs>
</svg>
