<svg width="24" height="24" viewBox="0 0 24 24" fill="none" xmlns="http://www.w3.org/2000/svg">
  <g clip-path="url(#clip0_52077_54766)">
    <g clip-path="url(#clip1_52077_54766)">
      <path
        d="M20.5156 11H4.51572C3.97296 10.9982 3.44592 10.818 3.01562 10.4873V20.0001C3.017 21.1041 3.91162 21.9988 5.01559 22.0001H20.5156C20.7918 22.0001 21.0157 21.7762 21.0157 21.5V18.0001H17.5156C17.2394 18.0001 17.0156 17.7761 17.0156 17.5001V14.5001C17.0154 14.224 17.2391 14.0002 17.515 14H17.5156H21.0157V11.5C21.0158 11.224 20.7923 11.0002 20.5162 11C20.5161 11 20.5158 11 20.5156 11Z"
        fill="currentColor"/>
      <path d="M18.0156 14.9998H21.0157V16.9997H18.0156V14.9998Z" fill="currentColor"/>
      <path
        d="M4.51572 10H19.0157V7.50003C19.0157 7.22385 18.7918 7 18.5157 7H15.0426L12.9526 8.6716C12.4053 9.10907 11.628 9.10968 11.08 8.67297L8.98914 7H4.51556C3.68716 7 3.01562 7.67169 3.01562 8.50009C3.01562 9.32849 3.68716 10 4.51572 10Z"
        fill="currentColor"/>
      <path
        d="M11.703 7.89081C11.8859 8.03622 12.1452 8.03622 12.328 7.89081L14.8281 5.89084C15.0439 5.71826 15.0788 5.40347 14.9063 5.18771C14.7335 4.97195 14.4189 4.93686 14.2031 5.10959L12.5157 6.45999V2.50003C12.5157 2.22385 12.2917 2 12.0156 2C11.7395 2 11.5156 2.22385 11.5156 2.50003V6.45999L9.82815 5.10944C9.61239 4.93686 9.2976 4.9718 9.12502 5.18756C8.95244 5.40332 8.98739 5.71811 9.20315 5.89069L11.703 7.89081Z"
        fill="currentColor"/>
    </g>
  </g>
  <defs>
    <clipPath id="clip0_52077_54766">
      <rect width="24" height="24" fill="white"/>
    </clipPath>
    <clipPath id="clip1_52077_54766">
      <rect width="20" height="20" fill="white" transform="translate(2 2)"/>
    </clipPath>
  </defs>
</svg>
