<svg width="24" height="24" viewBox="0 0 24 24" fill="none" xmlns="http://www.w3.org/2000/svg">
  <g clip-path="url(#clip0_53602_101696)">
    <path
      d="M12 22C9.68333 21.4167 7.77067 20.0873 6.262 18.012C4.75333 15.9367 3.99933 13.6327 4 11.1V5L12 2L20 5V11.1C20 13.6333 19.2457 15.9377 17.737 18.013C16.2283 20.0883 14.316 21.4173 12 22ZM12 19.9C13.6167 19.4 14.9667 18.4123 16.05 16.937C17.1333 15.4617 17.7667 13.816 17.95 12H12V4.125L6 6.375V11.55C6 11.6667 6.01667 11.8167 6.05 12H12V19.9Z"
      fill="currentColor"/>
  </g>
  <defs>
    <clipPath id="clip0_53602_101696">
      <rect width="24" height="24" fill="white"/>
    </clipPath>
  </defs>
</svg>
