<svg width="24" height="24" viewBox="0 0 24 24" fill="none" xmlns="http://www.w3.org/2000/svg">
  <g clip-path="url(#clip0_53204_104966)">
    <path
      d="M20.7922 3.21843C20.6908 3.11768 20.5628 3.04793 20.4231 3.01737C20.2835 2.98681 20.138 2.99672 20.0037 3.04593L3.48458 9.04593C3.34211 9.0999 3.21946 9.19589 3.13291 9.32114C3.04635 9.44639 3 9.59498 3 9.74718C3 9.89937 3.04635 10.048 3.13291 10.1732C3.21946 10.2985 3.34211 10.3945 3.48458 10.4484L9.93456 13.0209L14.6951 8.25093L15.7538 9.30843L10.9708 14.0859L13.5538 20.5284C13.6094 20.668 13.7057 20.7876 13.8302 20.8719C13.9547 20.9561 14.1017 21.0011 14.2521 21.0009C14.4038 20.9978 14.551 20.9489 14.6744 20.8605C14.7977 20.7721 14.8913 20.6485 14.9429 20.5059L20.9498 4.00593C21.001 3.87323 21.0133 3.72875 20.9854 3.58932C20.9575 3.44989 20.8905 3.32126 20.7922 3.21843Z"
      fill="currentColor"/>
  </g>
  <defs>
    <clipPath id="clip0_53204_104966">
      <rect width="24" height="24" fill="white"/>
    </clipPath>
  </defs>
</svg>
