<svg width="24" height="24" viewBox="0 0 24 24" fill="none" xmlns="http://www.w3.org/2000/svg">
  <path
    d="M19.9999 8.68989V5.99989C19.9999 4.89989 19.0999 3.99989 17.9999 3.99989H15.3099L13.4099 2.09989C12.6299 1.31989 11.3599 1.31989 10.5799 2.09989L8.68989 3.99989H5.99989C4.89989 3.99989 3.99989 4.89989 3.99989 5.99989V8.68989L2.09989 10.5899C1.31989 11.3699 1.31989 12.6399 2.09989 13.4199L3.99989 15.3199V17.9999C3.99989 19.0999 4.89989 19.9999 5.99989 19.9999H8.68989L10.5899 21.8999C11.3699 22.6799 12.6399 22.6799 13.4199 21.8999L15.3199 19.9999H17.9999C19.0999 19.9999 19.9999 19.0999 19.9999 17.9999V15.3099L21.8999 13.4099C22.6799 12.6299 22.6799 11.3599 21.8999 10.5799L19.9999 8.68989ZM11.9999 17.9999C8.68989 17.9999 5.99989 15.3099 5.99989 11.9999C5.99989 8.68989 8.68989 5.99989 11.9999 5.99989C15.3099 5.99989 17.9999 8.68989 17.9999 11.9999C17.9999 15.3099 15.3099 17.9999 11.9999 17.9999ZM11.9999 7.99989C9.78989 7.99989 7.99989 9.78989 7.99989 11.9999C7.99989 14.2099 9.78989 15.9999 11.9999 15.9999C14.2099 15.9999 15.9999 14.2099 15.9999 11.9999C15.9999 9.78989 14.2099 7.99989 11.9999 7.99989Z"
    fill="currentColor"/>
</svg>
