<svg width="24" height="24" viewBox="0 0 24 24" fill="none" xmlns="http://www.w3.org/2000/svg">
  <g clip-path="url(#clip0_55128_107745)">
    <g clip-path="url(#clip1_55128_107745)">
      <path
        d="M6.19364 2.14125L2.06605 8.01366C1.99172 8.11772 1.98203 8.25467 2.04096 8.36817C2.09989 8.48166 2.21748 8.55252 2.34536 8.55159H4.41433V9.58607C4.41375 12.1546 5.52246 14.5983 7.45571 16.2895L8.30398 17.0309C9.33839 17.937 9.93161 19.2454 9.93157 20.6206V21.655C9.93157 21.8455 10.086 21.9999 10.2764 21.9999H13.7247C13.9151 21.9999 14.0695 21.8455 14.0695 21.655V20.6206C14.0631 18.0535 12.9556 15.6126 11.0281 13.9171L10.1798 13.1757C9.14543 12.2696 8.55222 10.9612 8.55226 9.58607V8.55159H10.6212C10.7491 8.55252 10.8667 8.48166 10.9256 8.36817C10.9846 8.25467 10.9749 8.11772 10.9005 8.01366L6.75226 2.14125C6.68726 2.05189 6.58344 1.99902 6.47295 1.99902C6.36245 1.99902 6.25863 2.05189 6.19364 2.14125Z"
        fill="currentColor"/>
      <path
        d="M13.0345 8.21046C13.0349 8.30148 13.0715 8.38862 13.1362 8.45266C13.2008 8.51671 13.2883 8.55239 13.3794 8.55184H15.4483V9.58632C15.4484 10.9615 14.8552 12.2698 13.8207 13.176L12.9725 13.9174C12.7966 14.0725 12.6276 14.2346 12.4656 14.4001C12.4863 14.4277 12.5104 14.4518 12.5311 14.4794C13.5188 15.6612 14.2061 17.0643 14.5345 18.5691C14.8119 17.9819 15.2075 17.4583 15.6966 17.0311L16.5449 16.2898C18.4781 14.5986 19.5868 12.1549 19.5863 9.58632V8.55184H21.6552C21.7831 8.55276 21.9007 8.4819 21.9596 8.36841C22.0186 8.25492 22.0089 8.11797 21.9345 8.0139L17.7863 2.14149C17.7213 2.05213 17.6174 1.99927 17.507 1.99927C17.3965 1.99927 17.2926 2.05213 17.2276 2.14149L13.1001 8.0139C13.0581 8.07089 13.0351 8.13967 13.0345 8.21046Z"
        fill="currentColor"/>
    </g>
  </g>
  <defs>
    <clipPath id="clip0_55128_107745">
      <rect width="24" height="24" fill="white"/>
    </clipPath>
    <clipPath id="clip1_55128_107745">
      <rect width="20" height="20" fill="white" transform="translate(2 2)"/>
    </clipPath>
  </defs>
</svg>
