<svg width="24" height="24" viewBox="0 0 24 24" fill="none" xmlns="http://www.w3.org/2000/svg">
  <g clip-path="url(#clip0_55535_100033)">
    <path
      d="M12 7.90909C9.74182 7.90909 7.90909 9.74182 7.90909 12C7.90909 14.2582 9.74182 16.0909 12 16.0909C14.2582 16.0909 16.0909 14.2582 16.0909 12C16.0909 9.74182 14.2582 7.90909 12 7.90909ZM3.81818 12.8182H5.45455C5.90455 12.8182 6.27273 12.45 6.27273 12C6.27273 11.55 5.90455 11.1818 5.45455 11.1818H3.81818C3.36818 11.1818 3 11.55 3 12C3 12.45 3.36818 12.8182 3.81818 12.8182ZM18.5455 12.8182H20.1818C20.6318 12.8182 21 12.45 21 12C21 11.55 20.6318 11.1818 20.1818 11.1818H18.5455C18.0955 11.1818 17.7273 11.55 17.7273 12C17.7273 12.45 18.0955 12.8182 18.5455 12.8182ZM11.1818 3.81818V5.45455C11.1818 5.90455 11.55 6.27273 12 6.27273C12.45 6.27273 12.8182 5.90455 12.8182 5.45455V3.81818C12.8182 3.36818 12.45 3 12 3C11.55 3 11.1818 3.36818 11.1818 3.81818ZM11.1818 18.5455V20.1818C11.1818 20.6318 11.55 21 12 21C12.45 21 12.8182 20.6318 12.8182 20.1818V18.5455C12.8182 18.0955 12.45 17.7273 12 17.7273C11.55 17.7273 11.1818 18.0955 11.1818 18.5455ZM7.08273 5.92909C7.00703 5.85324 6.91713 5.79307 6.81815 5.75201C6.71917 5.71095 6.61307 5.68982 6.50591 5.68982C6.39875 5.68982 6.29265 5.71095 6.19367 5.75201C6.09469 5.79307 6.00478 5.85324 5.92909 5.92909C5.85324 6.00478 5.79307 6.09469 5.75201 6.19367C5.71095 6.29265 5.68982 6.39875 5.68982 6.50591C5.68982 6.61307 5.71095 6.71917 5.75201 6.81815C5.79307 6.91713 5.85324 7.00703 5.92909 7.08273L6.79636 7.95C7.11545 8.26909 7.63909 8.26909 7.95 7.95C8.26091 7.63091 8.26909 7.10727 7.95 6.79636L7.08273 5.92909ZM17.2036 16.05C17.1279 15.9742 17.038 15.914 16.9391 15.8729C16.8401 15.8319 16.734 15.8107 16.6268 15.8107C16.5197 15.8107 16.4136 15.8319 16.3146 15.8729C16.2156 15.914 16.1257 15.9742 16.05 16.05C15.9742 16.1257 15.914 16.2156 15.8729 16.3146C15.8319 16.4136 15.8107 16.5197 15.8107 16.6268C15.8107 16.734 15.8319 16.8401 15.8729 16.9391C15.914 17.038 15.9742 17.1279 16.05 17.2036L16.9173 18.0709C17.2364 18.39 17.76 18.39 18.0709 18.0709C18.1468 17.9952 18.2069 17.9053 18.248 17.8063C18.289 17.7074 18.3102 17.6012 18.3102 17.4941C18.3102 17.3869 18.289 17.2808 18.248 17.1819C18.2069 17.0829 18.1468 16.993 18.0709 16.9173L17.2036 16.05ZM18.0709 7.08273C18.1468 7.00703 18.2069 6.91713 18.248 6.81815C18.289 6.71917 18.3102 6.61307 18.3102 6.50591C18.3102 6.39875 18.289 6.29265 18.248 6.19367C18.2069 6.09469 18.1468 6.00478 18.0709 5.92909C17.9952 5.85324 17.9053 5.79307 17.8063 5.75201C17.7074 5.71095 17.6012 5.68982 17.4941 5.68982C17.3869 5.68982 17.2808 5.71095 17.1819 5.75201C17.0829 5.79307 16.993 5.85324 16.9173 5.92909L16.05 6.79636C15.7309 7.11545 15.7309 7.63909 16.05 7.95C16.3691 8.26091 16.8927 8.26909 17.2036 7.95L18.0709 7.08273ZM7.95 17.2036C8.02585 17.1279 8.08602 17.038 8.12708 16.9391C8.16814 16.8401 8.18927 16.734 8.18927 16.6268C8.18927 16.5197 8.16814 16.4136 8.12708 16.3146C8.08602 16.2156 8.02585 16.1257 7.95 16.05C7.87431 15.9742 7.7844 15.914 7.68542 15.8729C7.58644 15.8319 7.48034 15.8107 7.37318 15.8107C7.26603 15.8107 7.15992 15.8319 7.06094 15.8729C6.96197 15.914 6.87206 15.9742 6.79636 16.05L5.92909 16.9173C5.61 17.2364 5.61 17.76 5.92909 18.0709C6.24818 18.3818 6.77182 18.39 7.08273 18.0709L7.95 17.2036Z"
      fill="currentColor"/>
  </g>
  <defs>
    <clipPath id="clip0_55535_100033">
      <rect width="24" height="24" fill="white"/>
    </clipPath>
  </defs>
</svg>
