<svg width="24" height="24" viewBox="0 0 24 24" fill="none" xmlns="http://www.w3.org/2000/svg">
  <g clip-path="url(#clip0_54569_100492)">
    <g clip-path="url(#clip1_54569_100492)">
      <g clip-path="url(#clip2_54569_100492)">
        <path
          d="M19.0864 7.08637C19.0864 3.17892 15.9074 0 12 0C8.09254 0 4.91357 3.17892 4.91357 7.08637C4.91357 10.9938 8.09249 14.1727 11.9999 14.1727C15.9074 14.1727 19.0864 10.9938 19.0864 7.08637ZM9.25089 8.78323H10.6571C10.6571 9.27042 11.0534 9.66677 11.5406 9.66677H12.4436C12.9465 9.66677 13.3557 9.25758 13.3557 8.75464C13.3557 8.2517 12.9466 7.84251 12.4436 7.84251H11.5564C10.2781 7.84251 9.23809 6.80251 9.23809 5.52421C9.23809 4.33366 10.1403 3.35028 11.2969 3.22082V2.0507H12.7031V3.22345C13.8504 3.36214 14.7425 4.34116 14.7425 5.52524H13.3364C13.3364 5.02174 12.9267 4.61213 12.4233 4.61213H11.5564C11.0535 4.61213 10.6443 5.02127 10.6443 5.52421C10.6443 6.02715 11.0535 6.43635 11.5564 6.43635H12.4436C13.7219 6.43635 14.7619 7.47634 14.7619 8.7546C14.7619 9.94515 13.8597 10.9285 12.7031 11.058V12.2282H11.297V11.0598C10.1485 10.9378 9.25089 9.96343 9.25089 8.78323Z"
          fill="currentColor"/>
        <path
          d="M16.6737 14.1736C15.3322 15.0612 13.7255 15.579 12 15.579C10.2745 15.579 8.66784 15.0612 7.32636 14.1736V17.2514H4.93457V18.268L12 24.0001L19.0654 18.268V17.2514H16.6737L16.6737 14.1736Z"
          fill="currentColor"/>
      </g>
    </g>
  </g>
  <defs>
    <clipPath id="clip0_54569_100492">
      <rect width="24" height="24" fill="white"/>
    </clipPath>
    <clipPath id="clip1_54569_100492">
      <rect width="24" height="24" fill="white"/>
    </clipPath>
    <clipPath id="clip2_54569_100492">
      <rect width="24" height="24" fill="white"/>
    </clipPath>
  </defs>
</svg>
