<svg width="512" height="512" viewBox="0 0 512 512" fill="none" xmlns="http://www.w3.org/2000/svg">
  <g id="512&#209;&#133;512">
    <g id="Group">
      <g id="Group_2">
        <path id="Vector (Stroke)" fill-rule="evenodd" clip-rule="evenodd" d="M301.171 62.4101L444 255.758L301.18 449.5L244.126 372.151L329.889 255.772L244.119 139.757L301.171 62.4101ZM301.183 95.128L268.274 139.744L354.04 255.755L268.267 372.146L301.175 416.759L419.851 255.769L301.183 95.128Z" fill="#01579B"/>
        <path id="Vector (Stroke)_2" fill-rule="evenodd" clip-rule="evenodd" d="M211.234 62.4257L268.274 139.757L182.504 255.772L268.267 372.151L211.225 449.484L68 255.758L211.234 62.4257ZM92.1727 255.769L211.207 416.775L244.126 372.146L158.353 255.755L244.119 139.744L211.199 95.1123L92.1727 255.769Z" fill="#01579B"/>
      </g>
      <path id="Vector" d="M341.965 255.764L256.197 291.832L170.429 255.764L256.197 372.149L341.965 255.764Z" fill="#01579B"/>
    </g>
  </g>
</svg>
