<svg width="24" height="24" viewBox="0 0 24 24" fill="none" xmlns="http://www.w3.org/2000/svg">
  <g clip-path="url(#clip0_53602_101152)">
    <g clip-path="url(#clip1_53602_101152)">
      <path
        d="M15.3663 15.75C14.7069 18.8125 13.3007 20.75 12 20.75C10.6994 20.75 9.29316 18.8125 8.63379 15.75H15.3663Z"
        fill="currentColor"/>
      <path
        d="M8.25 12C8.24985 11.1639 8.3056 10.3287 8.41688 9.5H15.5831C15.6944 10.3287 15.7502 11.1639 15.75 12C15.7502 12.8361 15.6944 13.6713 15.5831 14.5H8.41688C8.3056 13.6713 8.24985 12.8361 8.25 12Z"
        fill="currentColor"/>
      <path d="M8.63379 8.25C9.29316 5.1875 10.6994 3.25 12 3.25C13.3007 3.25 14.7069 5.1875 15.3663 8.25H8.63379Z"
            fill="currentColor"/>
      <path
        d="M16.6463 15.7501H20.5838C19.9922 17.0965 19.0933 18.2855 17.9592 19.2218C16.8251 20.158 15.4873 20.8155 14.0532 21.1414C15.2388 20.0982 16.1688 18.1695 16.6463 15.7501Z"
        fill="currentColor"/>
      <path
        d="M21.0331 14.5H16.8456C16.9487 13.6707 17.0003 12.8357 17 12C17.0001 11.1643 16.9483 10.3293 16.845 9.5H21.0325C21.4883 11.1355 21.4889 12.8645 21.0331 14.5Z"
        fill="currentColor"/>
      <path
        d="M14.0532 2.85875C15.4875 3.18446 16.8255 3.84182 17.9599 4.77809C19.0942 5.71435 19.9934 6.90346 20.5851 8.25H16.6476C16.1688 5.83063 15.2388 3.90188 14.0532 2.85875Z"
        fill="currentColor"/>
      <path
        d="M7.35376 8.25H3.41626C4.008 6.90346 4.90712 5.71435 6.04147 4.77809C7.17582 3.84182 8.51382 3.18446 9.94813 2.85875C8.76126 3.90188 7.83126 5.83063 7.35376 8.25Z"
        fill="currentColor"/>
      <path
        d="M9.94691 21.1414C8.5126 20.8156 7.1746 20.1583 6.04025 19.222C4.9059 18.2858 4.00678 17.0967 3.41504 15.7501H7.35254C7.83129 18.1695 8.76129 20.0982 9.94691 21.1414Z"
        fill="currentColor"/>
      <path
        d="M7.00008 12C7 12.8357 7.05176 13.6707 7.15508 14.5H2.96758C2.51178 12.8645 2.51178 11.1355 2.96758 9.5H7.15508C7.05176 10.3293 7 11.1643 7.00008 12Z"
        fill="currentColor"/>
    </g>
  </g>
  <defs>
    <clipPath id="clip0_53602_101152">
      <rect width="24" height="24" fill="white"/>
    </clipPath>
    <clipPath id="clip1_53602_101152">
      <rect width="20" height="20" fill="white" transform="matrix(1 0 0 -1 2 22)"/>
    </clipPath>
  </defs>
</svg>
