<svg width="24" height="24" viewBox="0 0 24 24" fill="none" xmlns="http://www.w3.org/2000/svg">
  <g clip-path="url(#clip0_53602_101736)">
    <g clip-path="url(#clip1_53602_101736)">
      <path
        d="M12 2C6.47676 2 2 6.47676 2 12C2 17.5232 6.47676 22 12 22H12.8333V16.0828C14.735 15.6962 16.1667 14.0158 16.1667 12V9.5H14.5V7C14.5 6.53926 14.1272 6.16675 13.6667 6.16675C13.206 6.16675 12.8333 6.53926 12.8333 7V9.5H11.1667V7C11.1667 6.53926 10.794 6.16675 10.3333 6.16675C9.87275 6.16675 9.5 6.53926 9.5 7V9.5H7.83325V12C7.83325 14.0158 9.26499 15.6962 11.1667 16.0828V20.291C6.95601 19.8728 3.66675 16.3213 3.66675 12C3.66675 7.39727 7.39727 3.66675 12 3.66675C16.6002 3.66675 20.3333 7.39727 20.3333 12C20.3333 15.4725 18.2067 18.4453 15.1877 19.6978L15.82 21.2238C19.4437 19.723 22 16.1675 22 12C22 6.47676 17.5208 2 12 2Z"
        fill="currentColor"/>
    </g>
  </g>
  <defs>
    <clipPath id="clip0_53602_101736">
      <rect width="24" height="24" fill="white"/>
    </clipPath>
    <clipPath id="clip1_53602_101736">
      <rect width="20" height="20" fill="white" transform="translate(2 2)"/>
    </clipPath>
  </defs>
</svg>
